<svg id="Layer_1" data-name="Layer 1" xmlns="http://www.w3.org/2000/svg" xmlns:xlink="http://www.w3.org/1999/xlink" viewBox="0 0 33.38 21.83"><defs><style>.cls-1,.cls-4,.cls-5{fill:none;}.cls-2{clip-path:url(#clip-path);}.cls-3{fill:#fff;}.cls-4,.cls-5{stroke:#ed8c22;}.cls-4{stroke-width:1.16px;}.cls-5{stroke-width:1.39px;}.cls-6{fill:#434345;}</style><clipPath id="clip-path"><rect class="cls-1" width="33.38" height="21.83"/></clipPath></defs><title>Wash Icons Final</title><g class="cls-2"><path class="cls-3" d="M.56.16l1,3.61s5.22-1,7.43,0S15.85,3,19.32,3.33s7.16,1.55,9.16.74a10,10,0,0,1,3.39-.81l-3.39,18H4.78L1.57,3.77"/><path class="cls-4" d="M.56.16l1,3.61s5.22-1,7.43,0S15.85,3,19.32,3.33s7.16,1.55,9.16.74a10,10,0,0,1,3.39-.81l-3.39,18H4.78L1.57,3.77"/><line class="cls-5" x1="31.86" y1="3.16" x2="32.71" y2="0.36"/><path class="cls-6" d="M24.1,10.87a1.07,1.07,0,0,1,1.09-1.14,1.06,1.06,0,0,1,1.08,1.14A1,1,0,0,1,25.19,12a1.06,1.06,0,0,1-1.09-1.11m-1.18,0a2.28,2.28,0,0,0,4.56,0,2.28,2.28,0,0,0-4.56,0m-6.64,2.22c0-1.49.56-2.92,2-2.92s2,1.38,2,2.92-.55,2.91-2,2.91-2-1.38-2-2.91m2,4.45c2.62,0,3.68-2,3.68-4.42s-1-4.49-3.68-4.49-3.67,2.1-3.67,4.49,1.07,4.42,3.67,4.42m-9.63-5v1.14a4.72,4.72,0,0,1,1.13-.12c1.1,0,2,.4,2,1.28S11.08,16,9.78,16a5.67,5.67,0,0,1-2.52-.62l-.19,1.5a6.22,6.22,0,0,0,2.87.63c2,0,3.59-.78,3.59-2.74,0-1.4-1.11-2.43-2.82-2.49l2.34-2.23V8.75H7.47v1.51h3.42Z"/></g></svg>