<svg id="Layer_1" data-name="Layer 1" xmlns="http://www.w3.org/2000/svg" xmlns:xlink="http://www.w3.org/1999/xlink" viewBox="0 0 33.38 25.96"><defs><style>.cls-1,.cls-3,.cls-4,.cls-5{fill:none;}.cls-2{clip-path:url(#clip-path);}.cls-3{stroke:#434345;}.cls-4,.cls-5{stroke:#ed8c22;}.cls-4{stroke-width:1.16px;}.cls-5{stroke-width:1.39px;}</style><clipPath id="clip-path"><rect class="cls-1" width="33.38" height="25.96"/></clipPath></defs><title>Wash Icons Final</title><g class="cls-2"><path class="cls-3" d="M18.35,2.6C14.78-2.27,6.73,2.22,8.21,7.12c.88,2.13,3.47,8,3.91,8.94s2.1.2,1.7-.76S12.06,11,12.06,11s2.91,5.82,3.58,7.26,2.35.61,1.73-.77-2.79-6.89-2.79-6.89,3.18,6.6,3.7,7.75,2.27.31,1.82-.81c-.61-1.43-3.32-7.92-3.32-7.92s2.79,5.78,3.36,6.92a1,1,0,1,0,1.79-.73c-.53-1.25-4.21-10.07-4.21-10.07S19.36,9,19.6,9.49s1.85.32,1.52-.67A37.57,37.57,0,0,0,18.35,2.6Z"/><path class="cls-4" d="M.56,4.28l1,3.62s5.22-1,7.43,0,6.85-.77,10.32-.45S26.48,9,28.48,8.2a9.93,9.93,0,0,1,3.39-.82l-3.39,18H4.78L1.57,7.9"/><line class="cls-5" x1="31.86" y1="7.29" x2="32.71" y2="4.49"/></g></svg>