<?xml version="1.0" encoding="utf-8"?>
<!-- Generator: Adobe Illustrator 23.1.1, SVG Export Plug-In . SVG Version: 6.00 Build 0)  -->
<svg version="1.1" id="Layer_1" xmlns="http://www.w3.org/2000/svg" xmlns:xlink="http://www.w3.org/1999/xlink" x="0px" y="0px"
	 viewBox="0 0 792 612" style="enable-background:new 0 0 792 612;" xml:space="preserve">
<style type="text/css">
	.st0{fill:#EE8922;}
	.st1{fill:none;stroke:#BCBEC0;stroke-width:1.165;}
</style>
<path class="st0" d="M255.01,141.76h14.11l-22.43,54.03c-3.81,9.11-9.66,14.31-19.86,14.31c-3.82,0-6.98-1.04-9.06-2.08l1.58-10.2
	c1.64,0.69,3.87,1.24,5.99,1.24c5.3,0,9.06-3.71,10.55-9.71l-19.66-47.59h14.06l12.43,34.62L255.01,141.76z"/>
<path class="st0" d="M293.05,140.77c14.61,0,25.41,10.75,25.41,24.76c0,14.06-10.8,24.76-25.41,24.76c-14.56,0-25.4-10.7-25.4-24.76
	C267.64,151.52,278.49,140.77,293.05,140.77 M293.05,178.8c7.48,0,12.78-5.65,12.78-13.27c0-7.58-5.3-13.22-12.78-13.22
	c-7.43,0-12.78,5.65-12.78,13.22C280.27,173.16,285.62,178.8,293.05,178.8"/>
<path class="st0" d="M346.43,140.77c14.61,0,25.41,10.75,25.41,24.76c0,14.06-10.8,24.76-25.41,24.76c-14.56,0-25.4-10.7-25.4-24.76
	C321.03,151.52,331.87,140.77,346.43,140.77 M346.43,178.8c7.48,0,12.78-5.65,12.78-13.27c0-7.58-5.3-13.22-12.78-13.22
	c-7.43,0-12.78,5.65-12.78,13.22C333.66,173.16,339,178.8,346.43,178.8"/>
<path class="st0" d="M422.85,159.44v29.86h-12.73v-26.59c0-6.59-4.26-10.15-9.81-10.15c-5.6,0-10.55,3.56-10.55,10.15v26.59h-12.68
	v-47.54h12.08l0.25,5.5c2.48-3.32,7.58-6.49,14.66-6.49C415.07,140.77,422.85,148,422.85,159.44"/>
<path class="st0" d="M473.26,185.83c-4.61,2.62-10.99,4.46-17.93,4.46c-16.84,0-27.63-9.95-27.63-24.76
	c0-14.56,10.3-24.76,24.41-24.76c14.61,0,25.7,10.99,22.58,28.57h-34.37c1.29,6.64,7.23,9.81,15.05,9.81
	c5.89,0,11.39-1.39,16.09-3.61L473.26,185.83z M463.3,160.83c-0.35-5.3-4.36-9.36-10.89-9.36c-6.78,0-11.34,3.96-11.89,9.36H463.3z"
	/>
<path class="st0" d="M523.47,185.83c-4.61,2.62-10.99,4.46-17.93,4.46c-16.84,0-27.63-9.95-27.63-24.76
	c0-14.56,10.3-24.76,24.41-24.76c14.61,0,25.7,10.99,22.59,28.57h-34.37c1.29,6.64,7.23,9.81,15.05,9.81
	c5.89,0,11.39-1.39,16.09-3.61L523.47,185.83z M513.52,160.83c-0.35-5.3-4.36-9.36-10.89-9.36c-6.78,0-11.34,3.96-11.89,9.36H513.52
	z"/>
<polygon class="st0" points="530.76,119.57 530.76,189.3 543.43,189.3 543.43,170.14 550.46,170.14 563.79,189.3 578.74,189.3 
	560.86,164.79 575.67,141.76 561.56,141.76 550.86,159.14 543.43,159.14 543.43,119.57 "/>
<polygon class="st0" points="587.63,184.85 585.09,184.85 585.09,192.01 583.45,192.01 583.45,184.85 580.92,184.85 580.92,183.43 
	587.63,183.43 "/>
<polygon class="st0" points="595.73,183.43 593.1,189.85 590.48,183.43 588.59,183.43 588.59,192.01 590.22,192.01 590.22,186.23 
	590.28,186.23 592.49,192.01 593.72,192.01 595.91,186.23 595.97,186.23 595.97,192.01 597.62,192.01 597.62,183.43 "/>
<path class="st1" d="M155.35,315.36h23.87l-37.94,91.37c-6.45,15.41-16.33,24.21-33.59,24.21c-6.45,0-11.81-1.76-15.33-3.52
	l2.68-17.25c2.76,1.17,6.53,2.09,10.14,2.09c8.96,0,15.32-6.28,17.84-16.42l-33.25-80.49h23.78l21.03,58.54L155.35,315.36z"/>
<path class="st1" d="M219.67,313.69c24.71,0,42.97,18.18,42.97,41.88c0,23.79-18.26,41.88-42.97,41.88
	c-24.62,0-42.96-18.09-42.96-41.88C176.71,331.86,195.05,313.69,219.67,313.69 M219.67,378.01c12.65,0,21.61-9.55,21.61-22.45
	c0-12.81-8.96-22.36-21.61-22.36c-12.56,0-21.61,9.55-21.61,22.36C198.07,368.46,207.11,378.01,219.67,378.01"/>
<path class="st1" d="M309.96,313.69c24.71,0,42.97,18.18,42.97,41.88c0,23.79-18.26,41.88-42.97,41.88
	c-24.62,0-42.96-18.09-42.96-41.88C267,331.86,285.34,313.69,309.96,313.69 M309.96,378.01c12.65,0,21.61-9.55,21.61-22.45
	c0-12.81-8.96-22.36-21.61-22.36c-12.56,0-21.61,9.55-21.61,22.36C288.35,368.46,297.4,378.01,309.96,378.01"/>
<path class="st1" d="M439.19,345.26v50.5h-21.52v-44.98c0-11.14-7.2-17.17-16.59-17.17c-9.46,0-17.84,6.03-17.84,17.17v44.98H361.8
	v-80.4h20.44l0.42,9.3c4.19-5.61,12.81-10.97,24.79-10.97C426.04,313.69,439.19,325.92,439.19,345.26"/>
<path class="st1" d="M524.45,389.9c-7.79,4.44-18.59,7.54-30.32,7.54c-28.48,0-46.74-16.83-46.74-41.88
	c0-24.62,17.42-41.88,41.29-41.88c24.71,0,43.47,18.59,38.19,48.33h-58.12c2.18,11.22,12.23,16.58,25.46,16.58
	c9.97,0,19.27-2.34,27.22-6.11L524.45,389.9z M507.62,347.61c-0.59-8.96-7.37-15.83-18.43-15.83c-11.47,0-19.18,6.7-20.1,15.83
	H507.62z"/>
<path class="st1" d="M609.38,389.9c-7.79,4.44-18.59,7.54-30.32,7.54c-28.48,0-46.74-16.83-46.74-41.88
	c0-24.62,17.43-41.88,41.29-41.88c24.71,0,43.47,18.59,38.19,48.33h-58.12c2.18,11.22,12.22,16.58,25.46,16.58
	c9.97,0,19.26-2.34,27.22-6.11L609.38,389.9z M592.55,347.61c-0.59-8.96-7.37-15.83-18.43-15.83c-11.47,0-19.18,6.7-20.1,15.83
	H592.55z"/>
<polygon class="st1" points="621.7,277.84 621.7,395.77 643.14,395.77 643.14,363.35 655.03,363.35 677.56,395.77 702.85,395.77 
	672.62,354.31 697.66,315.36 673.79,315.36 655.7,344.76 643.14,344.76 643.14,277.84 "/>
</svg>
