<svg width="478" height="129" viewBox="0 0 478 129" fill="none" xmlns="http://www.w3.org/2000/svg">
<path d="M48.7626 31.595H66.4001L38.3626 108.049C33.6001 120.94 26.2876 128.298 13.5376 128.298C8.76261 128.298 4.81261 126.827 2.21261 125.355L4.18761 110.922C6.23761 111.898 9.0251 112.676 11.6751 112.676C18.3001 112.676 23.0001 107.427 24.8626 98.9365L0.287598 31.595H17.8626L33.4001 80.5835L48.7626 31.595Z" fill="#EE8922"/>
<path d="M96.3125 30.1942C114.575 30.1942 128.075 45.4057 128.075 65.2303C128.075 85.1257 114.575 100.267 96.3125 100.267C78.1125 100.267 64.5625 85.1257 64.5625 65.2303C64.55 45.4057 78.1125 30.1942 96.3125 30.1942ZM96.3125 84.0078C105.662 84.0078 112.287 76.0129 112.287 65.2303C112.287 54.5044 105.662 46.5236 96.3125 46.5236C87.025 46.5236 80.3375 54.5186 80.3375 65.2303C80.3375 76.027 87.025 84.0078 96.3125 84.0078Z" fill="#EE8922"/>
<path d="M163.038 30.1942C181.3 30.1942 194.8 45.4057 194.8 65.2303C194.8 85.1257 181.3 100.267 163.038 100.267C144.838 100.267 131.288 85.1257 131.288 65.2303C131.288 45.4057 144.838 30.1942 163.038 30.1942ZM163.038 84.0078C172.388 84.0078 179.013 76.0129 179.013 65.2303C179.013 54.5044 172.388 46.5236 163.038 46.5236C153.75 46.5236 147.063 54.5186 147.063 65.2303C147.075 76.027 153.75 84.0078 163.038 84.0078Z" fill="#EE8922"/>
<path d="M258.563 56.6128V98.8657H242.65V61.24C242.65 51.9149 237.325 46.8774 230.388 46.8774C223.388 46.8774 217.2 51.9149 217.2 61.24V98.8657H201.35V31.595H216.45L216.763 39.3777C219.863 34.6798 226.238 30.1942 235.088 30.1942C248.838 30.1942 258.563 40.4248 258.563 56.6128Z" fill="#EE8922"/>
<path d="M321.575 93.9555C315.812 97.6629 307.837 100.267 299.162 100.267C278.112 100.267 264.625 86.187 264.625 65.2303C264.625 44.6275 277.5 30.1942 295.137 30.1942C313.4 30.1942 327.262 45.7454 323.362 70.6216H280.4C282.012 80.0174 289.437 84.5031 299.212 84.5031C306.575 84.5031 313.45 82.5362 319.325 79.3948L321.575 93.9555ZM309.125 58.5797C308.687 51.08 303.675 45.335 295.512 45.335C287.037 45.335 281.337 50.9385 280.65 58.5797H309.125Z" fill="#EE8922"/>
<path d="M384.337 93.9555C378.575 97.6629 370.6 100.267 361.925 100.267C340.875 100.267 327.387 86.187 327.387 65.2303C327.387 44.6275 340.262 30.1942 357.9 30.1942C376.163 30.1942 390.025 45.7454 386.137 70.6216H343.175C344.787 80.0174 352.212 84.5031 361.987 84.5031C369.35 84.5031 376.225 82.5362 382.1 79.3948L384.337 93.9555ZM371.9 58.5797C371.463 51.08 366.45 45.335 358.287 45.335C349.812 45.335 344.112 50.9385 343.425 58.5797H371.9Z" fill="#EE8922"/>
<path d="M393.45 0.195435V98.8656H409.287V71.7536H418.075L434.737 98.8656H453.425L431.075 64.1832L449.587 31.595H431.95L418.575 56.1883H409.287V0.195435H393.45Z" fill="#EE8922"/>
<path d="M464.537 92.5688H461.362V102.7H459.312V92.5688H456.15V90.5594H464.537V92.5688Z" fill="#EE8922"/>
<path d="M474.663 90.5594L471.375 99.644L468.1 90.5594H465.738V102.7H467.775V94.5215H467.85L470.613 102.7H472.15L474.887 94.5215H474.962V102.7H477.025V90.5594H474.663Z" fill="#EE8922"/>
</svg>
