<svg width="477" height="129" viewBox="0 0 477 129" fill="none" xmlns="http://www.w3.org/2000/svg">
<path d="M48.475 31.3996H66.1125L38.075 107.854C33.3125 120.745 26 128.103 13.25 128.103C8.47501 128.103 4.52501 126.631 1.92501 125.16L3.90001 110.726C5.95001 111.703 8.7375 112.481 11.3875 112.481C18.0125 112.481 22.7125 107.231 24.575 98.741L0 31.3996H17.575L33.1125 80.3881L48.475 31.3996Z" fill="#F5F5F5"/>
<path d="M96.0249 29.9987C114.287 29.9987 127.787 45.2103 127.787 65.0349C127.787 84.9303 114.287 100.071 96.0249 100.071C77.8249 100.071 64.2749 84.9303 64.2749 65.0349C64.2624 45.2103 77.8249 29.9987 96.0249 29.9987ZM96.0249 83.8124C105.375 83.8124 112 75.8175 112 65.0349C112 54.309 105.375 46.3282 96.0249 46.3282C86.7374 46.3282 80.0499 54.3231 80.0499 65.0349C80.0499 75.8316 86.7374 83.8124 96.0249 83.8124Z" fill="#F5F5F5"/>
<path d="M162.75 29.9987C181.012 29.9987 194.512 45.2103 194.512 65.0349C194.512 84.9303 181.012 100.071 162.75 100.071C144.55 100.071 131 84.9303 131 65.0349C131 45.2103 144.55 29.9987 162.75 29.9987ZM162.75 83.8124C172.1 83.8124 178.725 75.8175 178.725 65.0349C178.725 54.309 172.1 46.3282 162.75 46.3282C153.462 46.3282 146.775 54.3231 146.775 65.0349C146.787 75.8316 153.462 83.8124 162.75 83.8124Z" fill="#F5F5F5"/>
<path d="M258.275 56.4174V98.6702H242.362V61.0445C242.362 51.7195 237.037 46.6819 230.1 46.6819C223.1 46.6819 216.913 51.7195 216.913 61.0445V98.6702H201.062V31.3996H216.163L216.475 39.1823C219.575 34.4844 225.95 29.9987 234.8 29.9987C248.55 29.9987 258.275 40.2294 258.275 56.4174Z" fill="#F5F5F5"/>
<path d="M321.287 93.7601C315.525 97.4675 307.55 100.071 298.875 100.071C277.825 100.071 264.337 85.9915 264.337 65.0349C264.337 44.432 277.212 29.9987 294.85 29.9987C313.112 29.9987 326.975 45.5499 323.075 70.4262H280.112C281.725 79.822 289.15 84.3076 298.925 84.3076C306.287 84.3076 313.162 82.3408 319.037 79.1994L321.287 93.7601ZM308.837 58.3843C308.4 50.8846 303.387 45.1396 295.225 45.1396C286.75 45.1396 281.05 50.7431 280.362 58.3843H308.837Z" fill="#F5F5F5"/>
<path d="M384.05 93.7601C378.287 97.4675 370.312 100.071 361.637 100.071C340.587 100.071 327.1 85.9915 327.1 65.0349C327.1 44.432 339.975 29.9987 357.612 29.9987C375.875 29.9987 389.737 45.5499 385.85 70.4262H342.887C344.5 79.822 351.925 84.3076 361.7 84.3076C369.062 84.3076 375.937 82.3408 381.812 79.1994L384.05 93.7601ZM371.612 58.3843C371.175 50.8846 366.162 45.1396 358 45.1396C349.525 45.1396 343.825 50.7431 343.137 58.3843H371.612Z" fill="#F5F5F5"/>
<path d="M393.162 0V98.6702H409V71.5582H417.787L434.45 98.6702H453.137L430.787 63.9877L449.3 31.3996H431.662L418.287 55.9928H409V0H393.162Z" fill="#F5F5F5"/>
<path d="M464.25 92.3734H461.075V102.505H459.025V92.3734H455.862V90.364H464.25V92.3734Z" fill="#F5F5F5"/>
<path d="M474.375 90.364L471.087 99.4485L467.812 90.364H465.45V102.505H467.487V94.3261H467.562L470.325 102.505H471.862L474.6 94.3261H474.675V102.505H476.737V90.364H474.375Z" fill="#F5F5F5"/>
</svg>
