<svg width="500" height="100" viewBox="0 0 500 100" fill="none" xmlns="http://www.w3.org/2000/svg">
<rect width="500" height="100" rx="10" fill="#242424"/>
<path d="M40.5048 67.384C38.1688 67.384 36.1048 66.888 34.3128 65.896C32.5528 64.904 31.1928 63.496 30.2328 61.672C29.2728 59.848 28.7928 57.72 28.7928 55.288C28.7928 52.856 29.2888 50.712 30.2808 48.856C31.3048 46.968 32.7288 45.512 34.5528 44.488C36.3768 43.464 38.4728 42.952 40.8408 42.952C42.0888 42.952 43.3368 43.128 44.5848 43.48C45.8648 43.832 46.9848 44.312 47.9448 44.92C48.9688 45.592 49.4808 46.44 49.4808 47.464C49.4808 48.168 49.3048 48.744 48.9528 49.192C48.6328 49.608 48.2008 49.816 47.6568 49.816C47.3048 49.816 46.9368 49.736 46.5528 49.576C46.1688 49.416 45.7848 49.224 45.4008 49C44.6968 48.584 44.0248 48.264 43.3848 48.04C42.7448 47.784 42.0088 47.656 41.1768 47.656C39.1928 47.656 37.6568 48.312 36.5688 49.624C35.5128 50.904 34.9848 52.76 34.9848 55.192C34.9848 57.592 35.5128 59.448 36.5688 60.76C37.6568 62.04 39.1928 62.68 41.1768 62.68C41.9768 62.68 42.6808 62.568 43.2888 62.344C43.9288 62.088 44.6328 61.752 45.4008 61.336C45.8808 61.048 46.2968 60.84 46.6488 60.712C47.0008 60.552 47.3528 60.472 47.7048 60.472C48.2168 60.472 48.6488 60.696 49.0008 61.144C49.3528 61.592 49.5288 62.152 49.5288 62.824C49.5288 63.368 49.4008 63.848 49.1448 64.264C48.9208 64.648 48.5368 65 47.9928 65.32C47.0008 65.96 45.8488 66.472 44.5368 66.856C43.2248 67.208 41.8808 67.384 40.5048 67.384ZM64.2303 67.384C61.8303 67.384 59.7183 66.888 57.8943 65.896C56.1023 64.904 54.7103 63.48 53.7183 61.624C52.7263 59.768 52.2303 57.608 52.2303 55.144C52.2303 52.68 52.7263 50.536 53.7183 48.712C54.7103 46.856 56.1023 45.432 57.8943 44.44C59.7183 43.448 61.8303 42.952 64.2303 42.952C66.6303 42.952 68.7263 43.448 70.5183 44.44C72.3423 45.432 73.7343 46.856 74.6943 48.712C75.6863 50.536 76.1823 52.68 76.1823 55.144C76.1823 57.608 75.6863 59.768 74.6943 61.624C73.7343 63.48 72.3423 64.904 70.5183 65.896C68.7263 66.888 66.6303 67.384 64.2303 67.384ZM64.1823 62.728C66.1343 62.728 67.6223 62.088 68.6463 60.808C69.6703 59.528 70.1823 57.64 70.1823 55.144C70.1823 52.68 69.6703 50.808 68.6463 49.528C67.6223 48.216 66.1503 47.56 64.2303 47.56C62.3103 47.56 60.8223 48.216 59.7663 49.528C58.7423 50.808 58.2303 52.68 58.2303 55.144C58.2303 57.64 58.7423 59.528 59.7663 60.808C60.7903 62.088 62.2623 62.728 64.1823 62.728ZM100.72 32.92C101.616 32.92 102.352 33.176 102.928 33.688C103.504 34.2 103.792 34.872 103.792 35.704V64.408C103.792 65.272 103.52 65.96 102.976 66.472C102.432 66.984 101.712 67.24 100.816 67.24C99.9196 67.24 99.1996 66.984 98.6556 66.472C98.1116 65.96 97.8396 65.272 97.8396 64.408V63.208C97.1356 64.52 96.1116 65.544 94.7676 66.28C93.4556 67.016 91.9516 67.384 90.2556 67.384C88.2396 67.384 86.4316 66.872 84.8316 65.848C83.2636 64.824 82.0316 63.384 81.1356 61.528C80.2716 59.64 79.8396 57.48 79.8396 55.048C79.8396 52.616 80.2716 50.488 81.1356 48.664C82.0316 46.84 83.2636 45.432 84.8316 44.44C86.3996 43.448 88.2076 42.952 90.2556 42.952C91.9516 42.952 93.4556 43.304 94.7676 44.008C96.0796 44.712 97.0876 45.704 97.7916 46.984V35.608C97.7916 34.808 98.0476 34.168 98.5596 33.688C99.1036 33.176 99.8236 32.92 100.72 32.92ZM91.8396 62.728C93.7596 62.728 95.2316 62.072 96.2556 60.76C97.3116 59.448 97.8396 57.576 97.8396 55.144C97.8396 52.712 97.3116 50.856 96.2556 49.576C95.2316 48.264 93.7756 47.608 91.8876 47.608C89.9676 47.608 88.4796 48.248 87.4236 49.528C86.3676 50.808 85.8396 52.648 85.8396 55.048C85.8396 57.48 86.3676 59.368 87.4236 60.712C88.4796 62.056 89.9516 62.728 91.8396 62.728ZM126.332 44.776C126.588 44.2 126.924 43.784 127.34 43.528C127.788 43.24 128.268 43.096 128.78 43.096C129.516 43.096 130.172 43.352 130.748 43.864C131.356 44.344 131.66 44.952 131.66 45.688C131.66 46.04 131.564 46.408 131.372 46.792L118.268 74.248C117.724 75.336 116.876 75.88 115.724 75.88C114.988 75.88 114.332 75.64 113.756 75.16C113.212 74.712 112.94 74.136 112.94 73.432C112.94 73.08 113.036 72.68 113.228 72.232L116.492 65.368L107.564 46.792C107.404 46.472 107.324 46.104 107.324 45.688C107.324 44.952 107.628 44.328 108.236 43.816C108.876 43.304 109.596 43.048 110.396 43.048C110.94 43.048 111.436 43.192 111.884 43.48C112.332 43.736 112.684 44.152 112.94 44.728L119.66 59.56L126.332 44.776ZM166.957 44.824C167.181 44.248 167.501 43.816 167.917 43.528C168.365 43.24 168.845 43.096 169.357 43.096C170.093 43.096 170.749 43.352 171.325 43.864C171.933 44.344 172.237 44.952 172.237 45.688C172.237 46.104 172.157 46.472 171.997 46.792L164.077 65.368C163.821 65.976 163.421 66.44 162.877 66.76C162.365 67.08 161.789 67.24 161.149 67.24C160.541 67.24 159.965 67.08 159.421 66.76C158.909 66.44 158.525 65.976 158.269 65.368L152.557 51.64L147.037 65.368C146.781 65.976 146.381 66.44 145.837 66.76C145.325 67.08 144.749 67.24 144.109 67.24C143.501 67.24 142.925 67.08 142.381 66.76C141.837 66.44 141.437 65.976 141.181 65.368L133.309 46.792C133.149 46.376 133.069 46.024 133.069 45.736C133.069 45 133.389 44.376 134.029 43.864C134.669 43.32 135.373 43.048 136.141 43.048C136.685 43.048 137.181 43.192 137.629 43.48C138.077 43.768 138.413 44.2 138.637 44.776L144.301 59.416L150.109 44.92C150.365 44.312 150.733 43.864 151.213 43.576C151.693 43.256 152.221 43.096 152.797 43.096C153.373 43.096 153.901 43.256 154.381 43.576C154.861 43.864 155.229 44.312 155.485 44.92L161.341 59.464L166.957 44.824ZM179.315 67.288C178.451 67.288 177.731 67.048 177.155 66.568C176.611 66.056 176.339 65.336 176.339 64.408V45.88C176.339 44.952 176.611 44.248 177.155 43.768C177.731 43.288 178.451 43.048 179.315 43.048C180.179 43.048 180.899 43.288 181.475 43.768C182.051 44.248 182.339 44.952 182.339 45.88V64.408C182.339 65.336 182.051 66.056 181.475 66.568C180.899 67.048 180.179 67.288 179.315 67.288ZM179.315 38.776C178.227 38.776 177.363 38.488 176.723 37.912C176.083 37.304 175.763 36.52 175.763 35.56C175.763 34.6 176.083 33.832 176.723 33.256C177.363 32.68 178.227 32.392 179.315 32.392C180.371 32.392 181.219 32.68 181.859 33.256C182.531 33.832 182.867 34.6 182.867 35.56C182.867 36.52 182.547 37.304 181.907 37.912C181.267 38.488 180.403 38.776 179.315 38.776ZM191.502 67.288C190.638 67.288 189.918 67.048 189.342 66.568C188.798 66.056 188.526 65.336 188.526 64.408V35.752C188.526 34.824 188.798 34.12 189.342 33.64C189.918 33.16 190.638 32.92 191.502 32.92C192.366 32.92 193.086 33.16 193.662 33.64C194.238 34.12 194.526 34.824 194.526 35.752V64.408C194.526 65.336 194.238 66.056 193.662 66.568C193.086 67.048 192.366 67.288 191.502 67.288ZM203.69 67.288C202.826 67.288 202.106 67.048 201.53 66.568C200.986 66.056 200.714 65.336 200.714 64.408V35.752C200.714 34.824 200.986 34.12 201.53 33.64C202.106 33.16 202.826 32.92 203.69 32.92C204.554 32.92 205.274 33.16 205.85 33.64C206.426 34.12 206.714 34.824 206.714 35.752V64.408C206.714 65.336 206.426 66.056 205.85 66.568C205.274 67.048 204.554 67.288 203.69 67.288ZM215.877 67.288C215.013 67.288 214.293 67.048 213.717 66.568C213.173 66.056 212.901 65.336 212.901 64.408V45.88C212.901 44.952 213.173 44.248 213.717 43.768C214.293 43.288 215.013 43.048 215.877 43.048C216.741 43.048 217.461 43.288 218.037 43.768C218.613 44.248 218.901 44.952 218.901 45.88V64.408C218.901 65.336 218.613 66.056 218.037 66.568C217.461 67.048 216.741 67.288 215.877 67.288ZM215.877 38.776C214.789 38.776 213.925 38.488 213.285 37.912C212.645 37.304 212.325 36.52 212.325 35.56C212.325 34.6 212.645 33.832 213.285 33.256C213.925 32.68 214.789 32.392 215.877 32.392C216.933 32.392 217.781 32.68 218.421 33.256C219.093 33.832 219.429 34.6 219.429 35.56C219.429 36.52 219.109 37.304 218.469 37.912C217.829 38.488 216.965 38.776 215.877 38.776ZM235.265 42.952C238.529 42.952 240.945 43.768 242.513 45.4C244.113 47 244.913 49.448 244.913 52.744V64.456C244.913 65.32 244.657 66.008 244.145 66.52C243.633 67 242.929 67.24 242.033 67.24C241.201 67.24 240.513 66.984 239.969 66.472C239.457 65.96 239.201 65.288 239.201 64.456V63.4C238.657 64.648 237.793 65.624 236.609 66.328C235.457 67.032 234.113 67.384 232.577 67.384C231.009 67.384 229.585 67.064 228.305 66.424C227.025 65.784 226.017 64.904 225.281 63.784C224.545 62.664 224.177 61.416 224.177 60.04C224.177 58.312 224.609 56.952 225.473 55.96C226.369 54.968 227.809 54.248 229.793 53.8C231.777 53.352 234.513 53.128 238.001 53.128H239.201V52.024C239.201 50.456 238.865 49.32 238.193 48.616C237.521 47.88 236.433 47.512 234.929 47.512C234.001 47.512 233.057 47.656 232.097 47.944C231.137 48.2 230.001 48.584 228.689 49.096C227.857 49.512 227.249 49.72 226.865 49.72C226.289 49.72 225.809 49.512 225.425 49.096C225.073 48.68 224.897 48.136 224.897 47.464C224.897 46.92 225.025 46.456 225.281 46.072C225.569 45.656 226.033 45.272 226.673 44.92C227.793 44.312 229.121 43.832 230.657 43.48C232.225 43.128 233.761 42.952 235.265 42.952ZM233.777 63.064C235.377 63.064 236.673 62.536 237.665 61.48C238.689 60.392 239.201 59 239.201 57.304V56.296H238.337C236.193 56.296 234.529 56.392 233.345 56.584C232.161 56.776 231.313 57.112 230.801 57.592C230.289 58.072 230.033 58.728 230.033 59.56C230.033 60.584 230.385 61.432 231.089 62.104C231.825 62.744 232.721 63.064 233.777 63.064ZM278.899 42.952C281.459 42.952 283.411 43.72 284.755 45.256C286.131 46.76 286.819 49.208 286.819 52.6V64.408C286.819 65.336 286.531 66.056 285.955 66.568C285.411 67.048 284.691 67.288 283.795 67.288C282.931 67.288 282.211 67.048 281.635 66.568C281.091 66.056 280.819 65.336 280.819 64.408V52.6C280.819 50.84 280.499 49.592 279.859 48.856C279.251 48.088 278.307 47.704 277.027 47.704C275.459 47.704 274.211 48.248 273.283 49.336C272.355 50.392 271.891 51.848 271.891 53.704V64.408C271.891 65.336 271.603 66.056 271.027 66.568C270.483 67.048 269.779 67.288 268.915 67.288C268.051 67.288 267.331 67.048 266.755 66.568C266.179 66.056 265.891 65.336 265.891 64.408V52.6C265.891 50.84 265.571 49.592 264.931 48.856C264.323 48.088 263.379 47.704 262.099 47.704C260.531 47.704 259.283 48.248 258.355 49.336C257.459 50.392 257.011 51.848 257.011 53.704V64.408C257.011 65.336 256.723 66.056 256.147 66.568C255.571 67.048 254.851 67.288 253.987 67.288C253.123 67.288 252.403 67.048 251.827 66.568C251.283 66.056 251.011 65.336 251.011 64.408V45.832C251.011 44.936 251.299 44.248 251.875 43.768C252.451 43.288 253.171 43.048 254.035 43.048C254.867 43.048 255.539 43.288 256.051 43.768C256.595 44.216 256.867 44.872 256.867 45.736V46.888C257.603 45.608 258.579 44.632 259.795 43.96C261.043 43.288 262.467 42.952 264.067 42.952C267.587 42.952 269.939 44.424 271.123 47.368C271.827 46.024 272.867 44.952 274.243 44.152C275.619 43.352 277.171 42.952 278.899 42.952ZM301.413 67.384C297.925 67.384 295.109 66.696 292.965 65.32C291.941 64.712 291.429 63.848 291.429 62.728C291.429 62.088 291.605 61.576 291.957 61.192C292.309 60.776 292.741 60.568 293.253 60.568C293.797 60.568 294.549 60.824 295.509 61.336C296.533 61.816 297.461 62.184 298.293 62.44C299.157 62.696 300.245 62.824 301.557 62.824C302.901 62.824 303.941 62.6 304.677 62.152C305.445 61.704 305.829 61.08 305.829 60.28C305.829 59.736 305.669 59.304 305.349 58.984C305.061 58.664 304.517 58.376 303.717 58.12C302.949 57.832 301.765 57.512 300.165 57.16C297.317 56.584 295.269 55.768 294.021 54.712C292.805 53.656 292.197 52.2 292.197 50.344C292.197 48.936 292.613 47.672 293.445 46.552C294.277 45.4 295.413 44.52 296.853 43.912C298.325 43.272 299.989 42.952 301.845 42.952C303.189 42.952 304.485 43.128 305.733 43.48C306.981 43.8 308.101 44.28 309.093 44.92C310.117 45.56 310.629 46.408 310.629 47.464C310.629 48.104 310.453 48.648 310.101 49.096C309.749 49.512 309.317 49.72 308.805 49.72C308.453 49.72 308.101 49.656 307.749 49.528C307.429 49.368 307.013 49.144 306.501 48.856C305.573 48.376 304.773 48.024 304.101 47.8C303.429 47.544 302.597 47.416 301.605 47.416C300.421 47.416 299.477 47.656 298.773 48.136C298.101 48.616 297.765 49.272 297.765 50.104C297.765 50.904 298.117 51.512 298.821 51.928C299.525 52.344 300.885 52.76 302.901 53.176C305.045 53.624 306.725 54.136 307.941 54.712C309.157 55.288 310.021 56.008 310.533 56.872C311.077 57.736 311.349 58.84 311.349 60.184C311.349 62.36 310.437 64.104 308.613 65.416C306.821 66.728 304.421 67.384 301.413 67.384ZM326.918 67.384C324.518 67.384 322.406 66.888 320.582 65.896C318.79 64.904 317.398 63.48 316.406 61.624C315.414 59.768 314.918 57.608 314.918 55.144C314.918 52.68 315.414 50.536 316.406 48.712C317.398 46.856 318.79 45.432 320.582 44.44C322.406 43.448 324.518 42.952 326.918 42.952C329.318 42.952 331.414 43.448 333.206 44.44C335.03 45.432 336.422 46.856 337.382 48.712C338.374 50.536 338.87 52.68 338.87 55.144C338.87 57.608 338.374 59.768 337.382 61.624C336.422 63.48 335.03 64.904 333.206 65.896C331.414 66.888 329.318 67.384 326.918 67.384ZM326.87 62.728C328.822 62.728 330.31 62.088 331.334 60.808C332.358 59.528 332.87 57.64 332.87 55.144C332.87 52.68 332.358 50.808 331.334 49.528C330.31 48.216 328.838 47.56 326.918 47.56C324.998 47.56 323.51 48.216 322.454 49.528C321.43 50.808 320.918 52.68 320.918 55.144C320.918 57.64 321.43 59.528 322.454 60.808C323.478 62.088 324.95 62.728 326.87 62.728ZM357.455 42.952C360.271 42.952 362.367 43.752 363.743 45.352C365.119 46.952 365.807 49.368 365.807 52.6V64.408C365.807 65.304 365.535 66.008 364.991 66.52C364.479 67.032 363.759 67.288 362.831 67.288C361.903 67.288 361.167 67.032 360.623 66.52C360.079 66.008 359.807 65.304 359.807 64.408V52.936C359.807 51.112 359.455 49.784 358.751 48.952C358.079 48.12 357.007 47.704 355.535 47.704C353.807 47.704 352.415 48.248 351.359 49.336C350.335 50.424 349.823 51.88 349.823 53.704V64.408C349.823 65.304 349.551 66.008 349.007 66.52C348.463 67.032 347.727 67.288 346.799 67.288C345.871 67.288 345.135 67.032 344.591 66.52C344.079 66.008 343.823 65.304 343.823 64.408V45.832C343.823 45 344.095 44.328 344.639 43.816C345.183 43.304 345.919 43.048 346.847 43.048C347.679 43.048 348.351 43.304 348.863 43.816C349.407 44.296 349.679 44.936 349.679 45.736V47.032C350.479 45.72 351.551 44.712 352.895 44.008C354.239 43.304 355.759 42.952 357.455 42.952ZM374.733 67.288C373.709 67.288 372.861 66.952 372.189 66.28C371.517 65.576 371.181 64.712 371.181 63.688C371.181 62.664 371.517 61.816 372.189 61.144C372.861 60.44 373.709 60.088 374.733 60.088C375.757 60.088 376.605 60.44 377.277 61.144C377.949 61.816 378.285 62.664 378.285 63.688C378.285 64.712 377.949 65.576 377.277 66.28C376.605 66.952 375.757 67.288 374.733 67.288ZM393.614 67.384C391.278 67.384 389.214 66.888 387.422 65.896C385.662 64.904 384.302 63.496 383.342 61.672C382.382 59.848 381.902 57.72 381.902 55.288C381.902 52.856 382.398 50.712 383.39 48.856C384.414 46.968 385.838 45.512 387.662 44.488C389.486 43.464 391.582 42.952 393.95 42.952C395.198 42.952 396.446 43.128 397.694 43.48C398.974 43.832 400.094 44.312 401.054 44.92C402.078 45.592 402.59 46.44 402.59 47.464C402.59 48.168 402.414 48.744 402.062 49.192C401.742 49.608 401.31 49.816 400.766 49.816C400.414 49.816 400.046 49.736 399.662 49.576C399.278 49.416 398.894 49.224 398.51 49C397.806 48.584 397.134 48.264 396.494 48.04C395.854 47.784 395.118 47.656 394.286 47.656C392.302 47.656 390.766 48.312 389.678 49.624C388.622 50.904 388.094 52.76 388.094 55.192C388.094 57.592 388.622 59.448 389.678 60.76C390.766 62.04 392.302 62.68 394.286 62.68C395.086 62.68 395.79 62.568 396.398 62.344C397.038 62.088 397.742 61.752 398.51 61.336C398.99 61.048 399.406 60.84 399.758 60.712C400.11 60.552 400.462 60.472 400.814 60.472C401.326 60.472 401.758 60.696 402.11 61.144C402.462 61.592 402.638 62.152 402.638 62.824C402.638 63.368 402.51 63.848 402.254 64.264C402.03 64.648 401.646 65 401.102 65.32C400.11 65.96 398.958 66.472 397.646 66.856C396.334 67.208 394.99 67.384 393.614 67.384ZM417.34 67.384C414.94 67.384 412.828 66.888 411.004 65.896C409.212 64.904 407.82 63.48 406.828 61.624C405.836 59.768 405.34 57.608 405.34 55.144C405.34 52.68 405.836 50.536 406.828 48.712C407.82 46.856 409.212 45.432 411.004 44.44C412.828 43.448 414.94 42.952 417.34 42.952C419.74 42.952 421.836 43.448 423.628 44.44C425.452 45.432 426.844 46.856 427.804 48.712C428.796 50.536 429.292 52.68 429.292 55.144C429.292 57.608 428.796 59.768 427.804 61.624C426.844 63.48 425.452 64.904 423.628 65.896C421.836 66.888 419.74 67.384 417.34 67.384ZM417.292 62.728C419.244 62.728 420.732 62.088 421.756 60.808C422.78 59.528 423.292 57.64 423.292 55.144C423.292 52.68 422.78 50.808 421.756 49.528C420.732 48.216 419.26 47.56 417.34 47.56C415.42 47.56 413.932 48.216 412.876 49.528C411.852 50.808 411.34 52.68 411.34 55.144C411.34 57.64 411.852 59.528 412.876 60.808C413.9 62.088 415.372 62.728 417.292 62.728ZM462.133 42.952C464.693 42.952 466.645 43.72 467.989 45.256C469.365 46.76 470.053 49.208 470.053 52.6V64.408C470.053 65.336 469.765 66.056 469.189 66.568C468.645 67.048 467.925 67.288 467.029 67.288C466.165 67.288 465.445 67.048 464.869 66.568C464.325 66.056 464.053 65.336 464.053 64.408V52.6C464.053 50.84 463.733 49.592 463.093 48.856C462.485 48.088 461.541 47.704 460.261 47.704C458.693 47.704 457.445 48.248 456.517 49.336C455.589 50.392 455.125 51.848 455.125 53.704V64.408C455.125 65.336 454.837 66.056 454.261 66.568C453.717 67.048 453.013 67.288 452.149 67.288C451.285 67.288 450.565 67.048 449.989 66.568C449.413 66.056 449.125 65.336 449.125 64.408V52.6C449.125 50.84 448.805 49.592 448.165 48.856C447.557 48.088 446.613 47.704 445.333 47.704C443.765 47.704 442.517 48.248 441.589 49.336C440.693 50.392 440.245 51.848 440.245 53.704V64.408C440.245 65.336 439.957 66.056 439.381 66.568C438.805 67.048 438.085 67.288 437.221 67.288C436.357 67.288 435.637 67.048 435.061 66.568C434.517 66.056 434.245 65.336 434.245 64.408V45.832C434.245 44.936 434.533 44.248 435.109 43.768C435.685 43.288 436.405 43.048 437.269 43.048C438.101 43.048 438.773 43.288 439.285 43.768C439.829 44.216 440.101 44.872 440.101 45.736V46.888C440.837 45.608 441.813 44.632 443.029 43.96C444.277 43.288 445.701 42.952 447.301 42.952C450.821 42.952 453.173 44.424 454.357 47.368C455.061 46.024 456.101 44.952 457.477 44.152C458.853 43.352 460.405 42.952 462.133 42.952Z" fill="#FFFFF0"/>
<rect x="138" y="73" width="335" height="8" rx="4" fill="#FFFFF0"/>
</svg>
