<svg viewBox="0 0 264 267" fill="none" xmlns="http://www.w3.org/2000/svg">
  <rect x=".693848" y=".922615" width="263.016" height="265.173" rx="10" fill="#242424"/>
  <path d="M1.194 93.0061L83.9735 1.42262h48.0885L1.19401 145.672 1.194 93.0061z" fill="ivory" stroke="#242424"/>
  <mask id="a" maskUnits="userSpaceOnUse" x="109.457" y="183.073" width="150" height="65" fill="#000">
    <path fill="#fff" d="M109.457 183.073h150v65h-150z"/>
    <path d="M200.524 205.613c-1.46 0-2.75-.31-3.87-.93-1.1-.62-1.95-1.5-2.55-2.64-.6-1.14-.9-2.47-.9-3.99s.31-2.86.93-4.02c.64-1.18 1.53-2.09 2.67-2.73 1.14-.64 2.45-.96 3.93-.96.78 0 1.56.11 2.34.33.8.22 1.5.52 2.1.9.64.42.96.95.96 1.59 0 .44-.11.8-.33 1.08-.2.26-.47.39-.81.39-.22 0-.45-.05-.69-.15-.24-.1-.48-.22-.72-.36-.44-.26-.86-.46-1.26-.6-.4-.16-.86-.24-1.38-.24-1.24 0-2.2.41-2.88 1.23-.66.8-.99 1.96-.99 3.48 0 1.5.33 2.66.99 3.48.68.8 1.64 1.2 2.88 1.2.5 0 .94-.07 1.32-.21.4-.16.84-.37 1.32-.63.3-.18.56-.31.78-.39.22-.1.44-.15.66-.15.32 0 .59.14.81.42.22.28.33.63.33 1.05 0 .34-.08.64-.24.9-.14.24-.38.46-.72.66-.62.4-1.34.72-2.16.96-.82.22-1.66.33-2.52.33zM215.353 205.613c-1.5 0-2.82-.31-3.96-.93-1.12-.62-1.99-1.51-2.61-2.67-.62-1.16-.93-2.51-.93-4.05s.31-2.88.93-4.02c.62-1.16 1.49-2.05 2.61-2.67 1.14-.62 2.46-.93 3.96-.93s2.81.31 3.93.93c1.14.62 2.01 1.51 2.61 2.67.62 1.14.93 2.48.93 4.02 0 1.54-.31 2.89-.93 4.05-.6 1.16-1.47 2.05-2.61 2.67-1.12.62-2.43.93-3.93.93zm-.03-2.91c1.22 0 2.15-.4 2.79-1.2.64-.8.96-1.98.96-3.54 0-1.54-.32-2.71-.96-3.51-.64-.82-1.56-1.23-2.76-1.23-1.2 0-2.13.41-2.79 1.23-.64.8-.96 1.97-.96 3.51 0 1.56.32 2.74.96 3.54.64.8 1.56 1.2 2.76 1.2zM238.158 184.073c.56 0 1.02.16 1.38.48.36.32.54.74.54 1.26v17.94c0 .54-.17.97-.51 1.29-.34.32-.79.48-1.35.48s-1.01-.16-1.35-.48c-.34-.32-.51-.75-.51-1.29v-.75c-.44.82-1.08 1.46-1.92 1.92-.82.46-1.76.69-2.82.69-1.26 0-2.39-.32-3.39-.96-.98-.64-1.75-1.54-2.31-2.7-.54-1.18-.81-2.53-.81-4.05s.27-2.85.81-3.99c.56-1.14 1.33-2.02 2.31-2.64.98-.62 2.11-.93 3.39-.93 1.06 0 2 .22 2.82.66.82.44 1.45 1.06 1.89 1.86v-7.11c0-.5.16-.9.48-1.2.34-.32.79-.48 1.35-.48zm-5.55 18.63c1.2 0 2.12-.41 2.76-1.23.66-.82.99-1.99.99-3.51 0-1.52-.33-2.68-.99-3.48-.64-.82-1.55-1.23-2.73-1.23-1.2 0-2.13.4-2.79 1.2-.66.8-.99 1.95-.99 3.45 0 1.52.33 2.7.99 3.54.66.84 1.58 1.26 2.76 1.26zM254.166 191.483c.16-.36.37-.62.63-.78.28-.18.58-.27.9-.27.46 0 .87.16 1.23.48.38.3.57.68.57 1.14 0 .22-.06.45-.18.69l-8.19 17.16c-.34.68-.87 1.02-1.59 1.02-.46 0-.87-.15-1.23-.45-.34-.28-.51-.64-.51-1.08 0-.22.06-.47.18-.75l2.04-4.29-5.58-11.61c-.1-.2-.15-.43-.15-.69 0-.46.19-.85.57-1.17.4-.32.85-.48 1.35-.48.34 0 .65.09.93.27.28.16.5.42.66.78l4.2 9.27 4.17-9.24zM131.637 232.513c.14-.36.34-.63.6-.81.28-.18.58-.27.9-.27.46 0 .87.16 1.23.48.38.3.57.68.57 1.14 0 .26-.05.49-.15.69l-4.95 11.61c-.16.38-.41.67-.75.87-.32.2-.68.3-1.08.3-.38 0-.74-.1-1.08-.3-.32-.2-.56-.49-.72-.87l-3.57-8.58-3.45 8.58c-.16.38-.41.67-.75.87-.32.2-.68.3-1.08.3-.38 0-.74-.1-1.08-.3-.34-.2-.59-.49-.75-.87l-4.92-11.61c-.1-.26-.15-.48-.15-.66 0-.46.2-.85.6-1.17.4-.34.84-.51 1.32-.51.34 0 .65.09.93.27.28.18.49.45.63.81l3.54 9.15 3.63-9.06c.16-.38.39-.66.69-.84.3-.2.63-.3.99-.3s.69.1.99.3c.3.18.53.46.69.84l3.66 9.09 3.51-9.15zM139.36 246.553c-.54 0-.99-.15-1.35-.45-.34-.32-.51-.77-.51-1.35v-11.58c0-.58.17-1.02.51-1.32.36-.3.81-.45 1.35-.45s.99.15 1.35.45c.36.3.54.74.54 1.32v11.58c0 .58-.18 1.03-.54 1.35-.36.3-.81.45-1.35.45zm0-17.82c-.68 0-1.22-.18-1.62-.54-.4-.38-.6-.87-.6-1.47s.2-1.08.6-1.44c.4-.36.94-.54 1.62-.54.66 0 1.19.18 1.59.54.42.36.63.84.63 1.44s-.2 1.09-.6 1.47c-.4.36-.94.54-1.62.54zM146.978 246.553c-.54 0-.99-.15-1.35-.45-.34-.32-.51-.77-.51-1.35v-17.91c0-.58.17-1.02.51-1.32.36-.3.81-.45 1.35-.45s.99.15 1.35.45c.36.3.54.74.54 1.32v17.91c0 .58-.18 1.03-.54 1.35-.36.3-.81.45-1.35.45zM154.595 246.553c-.54 0-.99-.15-1.35-.45-.34-.32-.51-.77-.51-1.35v-17.91c0-.58.17-1.02.51-1.32.36-.3.81-.45 1.35-.45s.99.15 1.35.45c.36.3.54.74.54 1.32v17.91c0 .58-.18 1.03-.54 1.35-.36.3-.81.45-1.35.45zM162.212 246.553c-.54 0-.99-.15-1.35-.45-.34-.32-.51-.77-.51-1.35v-11.58c0-.58.17-1.02.51-1.32.36-.3.81-.45 1.35-.45s.99.15 1.35.45c.36.3.54.74.54 1.32v11.58c0 .58-.18 1.03-.54 1.35-.36.3-.81.45-1.35.45zm0-17.82c-.68 0-1.22-.18-1.62-.54-.4-.38-.6-.87-.6-1.47s.2-1.08.6-1.44c.4-.36.94-.54 1.62-.54.66 0 1.19.18 1.59.54.42.36.63.84.63 1.44s-.2 1.09-.6 1.47c-.4.36-.94.54-1.62.54zM174.329 231.343c2.04 0 3.55.51 4.53 1.53 1 1 1.5 2.53 1.5 4.59v7.32c0 .54-.16.97-.48 1.29-.32.3-.76.45-1.32.45-.52 0-.95-.16-1.29-.48-.32-.32-.48-.74-.48-1.26v-.66c-.34.78-.88 1.39-1.62 1.83-.72.44-1.56.66-2.52.66-.98 0-1.87-.2-2.67-.6-.8-.4-1.43-.95-1.89-1.65-.46-.7-.69-1.48-.69-2.34 0-1.08.27-1.93.81-2.55.56-.62 1.46-1.07 2.7-1.35 1.24-.28 2.95-.42 5.13-.42h.75v-.69c0-.98-.21-1.69-.63-2.13-.42-.46-1.1-.69-2.04-.69-.58 0-1.17.09-1.77.27-.6.16-1.31.4-2.13.72-.52.26-.9.39-1.14.39-.36 0-.66-.13-.9-.39-.22-.26-.33-.6-.33-1.02 0-.34.08-.63.24-.87.18-.26.47-.5.87-.72.7-.38 1.53-.68 2.49-.9.98-.22 1.94-.33 2.88-.33zm-.93 12.57c1 0 1.81-.33 2.43-.99.64-.68.96-1.55.96-2.61v-.63h-.54c-1.34 0-2.38.06-3.12.18-.74.12-1.27.33-1.59.63-.32.3-.48.71-.48 1.23 0 .64.22 1.17.66 1.59.46.4 1.02.6 1.68.6zM201.6 231.343c1.6 0 2.82.48 3.66 1.44.86.94 1.29 2.47 1.29 4.59v7.38c0 .58-.18 1.03-.54 1.35-.34.3-.79.45-1.35.45-.54 0-.99-.15-1.35-.45-.34-.32-.51-.77-.51-1.35v-7.38c0-1.1-.2-1.88-.6-2.34-.38-.48-.97-.72-1.77-.72-.98 0-1.76.34-2.34 1.02-.58.66-.87 1.57-.87 2.73v6.69c0 .58-.18 1.03-.54 1.35-.34.3-.78.45-1.32.45s-.99-.15-1.35-.45c-.36-.32-.54-.77-.54-1.35v-7.38c0-1.1-.2-1.88-.6-2.34-.38-.48-.97-.72-1.77-.72-.98 0-1.76.34-2.34 1.02-.56.66-.84 1.57-.84 2.73v6.69c0 .58-.18 1.03-.54 1.35-.36.3-.81.45-1.35.45s-.99-.15-1.35-.45c-.34-.32-.51-.77-.51-1.35v-11.61c0-.56.18-.99.54-1.29.36-.3.81-.45 1.35-.45.52 0 .94.15 1.26.45.34.28.51.69.51 1.23v.72c.46-.8 1.07-1.41 1.83-1.83.78-.42 1.67-.63 2.67-.63 2.2 0 3.67.92 4.41 2.76.44-.84 1.09-1.51 1.95-2.01.86-.5 1.83-.75 2.91-.75zM215.672 246.613c-2.18 0-3.94-.43-5.28-1.29-.64-.38-.96-.92-.96-1.62 0-.4.11-.72.33-.96.22-.26.49-.39.81-.39.34 0 .81.16 1.41.48.64.3 1.22.53 1.74.69.54.16 1.22.24 2.04.24.84 0 1.49-.14 1.95-.42.48-.28.72-.67.72-1.17 0-.34-.1-.61-.3-.81-.18-.2-.52-.38-1.02-.54-.48-.18-1.22-.38-2.22-.6-1.78-.36-3.06-.87-3.84-1.53-.76-.66-1.14-1.57-1.14-2.73 0-.88.26-1.67.78-2.37.52-.72 1.23-1.27 2.13-1.65.92-.4 1.96-.6 3.12-.6.84 0 1.65.11 2.43.33.78.2 1.48.5 2.1.9.64.4.96.93.96 1.59 0 .4-.11.74-.33 1.02-.22.26-.49.39-.81.39-.22 0-.44-.04-.66-.12-.2-.1-.46-.24-.78-.42-.58-.3-1.08-.52-1.5-.66-.42-.16-.94-.24-1.56-.24-.74 0-1.33.15-1.77.45-.42.3-.63.71-.63 1.23 0 .5.22.88.66 1.14.44.26 1.29.52 2.55.78 1.34.28 2.39.6 3.15.96.76.36 1.3.81 1.62 1.35.34.54.51 1.23.51 2.07 0 1.36-.57 2.45-1.71 3.27-1.12.82-2.62 1.23-4.5 1.23zM231.612 246.613c-1.5 0-2.82-.31-3.96-.93-1.12-.62-1.99-1.51-2.61-2.67-.62-1.16-.93-2.51-.93-4.05s.31-2.88.93-4.02c.62-1.16 1.49-2.05 2.61-2.67 1.14-.62 2.46-.93 3.96-.93s2.81.31 3.93.93c1.14.62 2.01 1.51 2.61 2.67.62 1.14.93 2.48.93 4.02 0 1.54-.31 2.89-.93 4.05-.6 1.16-1.47 2.05-2.61 2.67-1.12.62-2.43.93-3.93.93zm-.03-2.91c1.22 0 2.15-.4 2.79-1.2.64-.8.96-1.98.96-3.54 0-1.54-.32-2.71-.96-3.51-.64-.82-1.56-1.23-2.76-1.23-1.2 0-2.13.41-2.79 1.23-.64.8-.96 1.97-.96 3.51 0 1.56.32 2.74.96 3.54.64.8 1.56 1.2 2.76 1.2zM250.698 231.343c1.76 0 3.07.5 3.93 1.5.86 1 1.29 2.51 1.29 4.53v7.38c0 .56-.17 1-.51 1.32-.32.32-.77.48-1.35.48-.58 0-1.04-.16-1.38-.48-.34-.32-.51-.76-.51-1.32v-7.17c0-1.14-.22-1.97-.66-2.49-.42-.52-1.09-.78-2.01-.78-1.08 0-1.95.34-2.61 1.02-.64.68-.96 1.59-.96 2.73v6.69c0 .56-.17 1-.51 1.32-.34.32-.8.48-1.38.48-.58 0-1.04-.16-1.38-.48-.32-.32-.48-.76-.48-1.32v-11.61c0-.52.17-.94.51-1.26.34-.32.8-.48 1.38-.48.52 0 .94.16 1.26.48.34.3.51.7.51 1.2v.81c.5-.82 1.17-1.45 2.01-1.89.84-.44 1.79-.66 2.85-.66z"/>
  </mask>
  <path d="M200.524 205.613c-1.46 0-2.75-.31-3.87-.93-1.1-.62-1.95-1.5-2.55-2.64-.6-1.14-.9-2.47-.9-3.99s.31-2.86.93-4.02c.64-1.18 1.53-2.09 2.67-2.73 1.14-.64 2.45-.96 3.93-.96.78 0 1.56.11 2.34.33.8.22 1.5.52 2.1.9.64.42.96.95.96 1.59 0 .44-.11.8-.33 1.08-.2.26-.47.39-.81.39-.22 0-.45-.05-.69-.15-.24-.1-.48-.22-.72-.36-.44-.26-.86-.46-1.26-.6-.4-.16-.86-.24-1.38-.24-1.24 0-2.2.41-2.88 1.23-.66.8-.99 1.96-.99 3.48 0 1.5.33 2.66.99 3.48.68.8 1.64 1.2 2.88 1.2.5 0 .94-.07 1.32-.21.4-.16.84-.37 1.32-.63.3-.18.56-.31.78-.39.22-.1.44-.15.66-.15.32 0 .59.14.81.42.22.28.33.63.33 1.05 0 .34-.08.64-.24.9-.14.24-.38.46-.72.66-.62.4-1.34.72-2.16.96-.82.22-1.66.33-2.52.33zM215.353 205.613c-1.5 0-2.82-.31-3.96-.93-1.12-.62-1.99-1.51-2.61-2.67-.62-1.16-.93-2.51-.93-4.05s.31-2.88.93-4.02c.62-1.16 1.49-2.05 2.61-2.67 1.14-.62 2.46-.93 3.96-.93s2.81.31 3.93.93c1.14.62 2.01 1.51 2.61 2.67.62 1.14.93 2.48.93 4.02 0 1.54-.31 2.89-.93 4.05-.6 1.16-1.47 2.05-2.61 2.67-1.12.62-2.43.93-3.93.93zm-.03-2.91c1.22 0 2.15-.4 2.79-1.2.64-.8.96-1.98.96-3.54 0-1.54-.32-2.71-.96-3.51-.64-.82-1.56-1.23-2.76-1.23-1.2 0-2.13.41-2.79 1.23-.64.8-.96 1.97-.96 3.51 0 1.56.32 2.74.96 3.54.64.8 1.56 1.2 2.76 1.2zM238.158 184.073c.56 0 1.02.16 1.38.48.36.32.54.74.54 1.26v17.94c0 .54-.17.97-.51 1.29-.34.32-.79.48-1.35.48s-1.01-.16-1.35-.48c-.34-.32-.51-.75-.51-1.29v-.75c-.44.82-1.08 1.46-1.92 1.92-.82.46-1.76.69-2.82.69-1.26 0-2.39-.32-3.39-.96-.98-.64-1.75-1.54-2.31-2.7-.54-1.18-.81-2.53-.81-4.05s.27-2.85.81-3.99c.56-1.14 1.33-2.02 2.31-2.64.98-.62 2.11-.93 3.39-.93 1.06 0 2 .22 2.82.66.82.44 1.45 1.06 1.89 1.86v-7.11c0-.5.16-.9.48-1.2.34-.32.79-.48 1.35-.48zm-5.55 18.63c1.2 0 2.12-.41 2.76-1.23.66-.82.99-1.99.99-3.51 0-1.52-.33-2.68-.99-3.48-.64-.82-1.55-1.23-2.73-1.23-1.2 0-2.13.4-2.79 1.2-.66.8-.99 1.95-.99 3.45 0 1.52.33 2.7.99 3.54.66.84 1.58 1.26 2.76 1.26zM254.166 191.483c.16-.36.37-.62.63-.78.28-.18.58-.27.9-.27.46 0 .87.16 1.23.48.38.3.57.68.57 1.14 0 .22-.06.45-.18.69l-8.19 17.16c-.34.68-.87 1.02-1.59 1.02-.46 0-.87-.15-1.23-.45-.34-.28-.51-.64-.51-1.08 0-.22.06-.47.18-.75l2.04-4.29-5.58-11.61c-.1-.2-.15-.43-.15-.69 0-.46.19-.85.57-1.17.4-.32.85-.48 1.35-.48.34 0 .65.09.93.27.28.16.5.42.66.78l4.2 9.27 4.17-9.24zM131.637 232.513c.14-.36.34-.63.6-.81.28-.18.58-.27.9-.27.46 0 .87.16 1.23.48.38.3.57.68.57 1.14 0 .26-.05.49-.15.69l-4.95 11.61c-.16.38-.41.67-.75.87-.32.2-.68.3-1.08.3-.38 0-.74-.1-1.08-.3-.32-.2-.56-.49-.72-.87l-3.57-8.58-3.45 8.58c-.16.38-.41.67-.75.87-.32.2-.68.3-1.08.3-.38 0-.74-.1-1.08-.3-.34-.2-.59-.49-.75-.87l-4.92-11.61c-.1-.26-.15-.48-.15-.66 0-.46.2-.85.6-1.17.4-.34.84-.51 1.32-.51.34 0 .65.09.93.27.28.18.49.45.63.81l3.54 9.15 3.63-9.06c.16-.38.39-.66.69-.84.3-.2.63-.3.99-.3s.69.1.99.3c.3.18.53.46.69.84l3.66 9.09 3.51-9.15zM139.36 246.553c-.54 0-.99-.15-1.35-.45-.34-.32-.51-.77-.51-1.35v-11.58c0-.58.17-1.02.51-1.32.36-.3.81-.45 1.35-.45s.99.15 1.35.45c.36.3.54.74.54 1.32v11.58c0 .58-.18 1.03-.54 1.35-.36.3-.81.45-1.35.45zm0-17.82c-.68 0-1.22-.18-1.62-.54-.4-.38-.6-.87-.6-1.47s.2-1.08.6-1.44c.4-.36.94-.54 1.62-.54.66 0 1.19.18 1.59.54.42.36.63.84.63 1.44s-.2 1.09-.6 1.47c-.4.36-.94.54-1.62.54zM146.978 246.553c-.54 0-.99-.15-1.35-.45-.34-.32-.51-.77-.51-1.35v-17.91c0-.58.17-1.02.51-1.32.36-.3.81-.45 1.35-.45s.99.15 1.35.45c.36.3.54.74.54 1.32v17.91c0 .58-.18 1.03-.54 1.35-.36.3-.81.45-1.35.45zM154.595 246.553c-.54 0-.99-.15-1.35-.45-.34-.32-.51-.77-.51-1.35v-17.91c0-.58.17-1.02.51-1.32.36-.3.81-.45 1.35-.45s.99.15 1.35.45c.36.3.54.74.54 1.32v17.91c0 .58-.18 1.03-.54 1.35-.36.3-.81.45-1.35.45zM162.212 246.553c-.54 0-.99-.15-1.35-.45-.34-.32-.51-.77-.51-1.35v-11.58c0-.58.17-1.02.51-1.32.36-.3.81-.45 1.35-.45s.99.15 1.35.45c.36.3.54.74.54 1.32v11.58c0 .58-.18 1.03-.54 1.35-.36.3-.81.45-1.35.45zm0-17.82c-.68 0-1.22-.18-1.62-.54-.4-.38-.6-.87-.6-1.47s.2-1.08.6-1.44c.4-.36.94-.54 1.62-.54.66 0 1.19.18 1.59.54.42.36.63.84.63 1.44s-.2 1.09-.6 1.47c-.4.36-.94.54-1.62.54zM174.329 231.343c2.04 0 3.55.51 4.53 1.53 1 1 1.5 2.53 1.5 4.59v7.32c0 .54-.16.97-.48 1.29-.32.3-.76.45-1.32.45-.52 0-.95-.16-1.29-.48-.32-.32-.48-.74-.48-1.26v-.66c-.34.78-.88 1.39-1.62 1.83-.72.44-1.56.66-2.52.66-.98 0-1.87-.2-2.67-.6-.8-.4-1.43-.95-1.89-1.65-.46-.7-.69-1.48-.69-2.34 0-1.08.27-1.93.81-2.55.56-.62 1.46-1.07 2.7-1.35 1.24-.28 2.95-.42 5.13-.42h.75v-.69c0-.98-.21-1.69-.63-2.13-.42-.46-1.1-.69-2.04-.69-.58 0-1.17.09-1.77.27-.6.16-1.31.4-2.13.72-.52.26-.9.39-1.14.39-.36 0-.66-.13-.9-.39-.22-.26-.33-.6-.33-1.02 0-.34.08-.63.24-.87.18-.26.47-.5.87-.72.7-.38 1.53-.68 2.49-.9.98-.22 1.94-.33 2.88-.33zm-.93 12.57c1 0 1.81-.33 2.43-.99.64-.68.96-1.55.96-2.61v-.63h-.54c-1.34 0-2.38.06-3.12.18-.74.12-1.27.33-1.59.63-.32.3-.48.71-.48 1.23 0 .64.22 1.17.66 1.59.46.4 1.02.6 1.68.6zM201.6 231.343c1.6 0 2.82.48 3.66 1.44.86.94 1.29 2.47 1.29 4.59v7.38c0 .58-.18 1.03-.54 1.35-.34.3-.79.45-1.35.45-.54 0-.99-.15-1.35-.45-.34-.32-.51-.77-.51-1.35v-7.38c0-1.1-.2-1.88-.6-2.34-.38-.48-.97-.72-1.77-.72-.98 0-1.76.34-2.34 1.02-.58.66-.87 1.57-.87 2.73v6.69c0 .58-.18 1.03-.54 1.35-.34.3-.78.45-1.32.45s-.99-.15-1.35-.45c-.36-.32-.54-.77-.54-1.35v-7.38c0-1.1-.2-1.88-.6-2.34-.38-.48-.97-.72-1.77-.72-.98 0-1.76.34-2.34 1.02-.56.66-.84 1.57-.84 2.73v6.69c0 .58-.18 1.03-.54 1.35-.36.3-.81.45-1.35.45s-.99-.15-1.35-.45c-.34-.32-.51-.77-.51-1.35v-11.61c0-.56.18-.99.54-1.29.36-.3.81-.45 1.35-.45.52 0 .94.15 1.26.45.34.28.51.69.51 1.23v.72c.46-.8 1.07-1.41 1.83-1.83.78-.42 1.67-.63 2.67-.63 2.2 0 3.67.92 4.41 2.76.44-.84 1.09-1.51 1.95-2.01.86-.5 1.83-.75 2.91-.75zM215.672 246.613c-2.18 0-3.94-.43-5.28-1.29-.64-.38-.96-.92-.96-1.62 0-.4.11-.72.33-.96.22-.26.49-.39.81-.39.34 0 .81.16 1.41.48.64.3 1.22.53 1.74.69.54.16 1.22.24 2.04.24.84 0 1.49-.14 1.95-.42.48-.28.72-.67.72-1.17 0-.34-.1-.61-.3-.81-.18-.2-.52-.38-1.02-.54-.48-.18-1.22-.38-2.22-.6-1.78-.36-3.06-.87-3.84-1.53-.76-.66-1.14-1.57-1.14-2.73 0-.88.26-1.67.78-2.37.52-.72 1.23-1.27 2.13-1.65.92-.4 1.96-.6 3.12-.6.84 0 1.65.11 2.43.33.78.2 1.48.5 2.1.9.64.4.96.93.96 1.59 0 .4-.11.74-.33 1.02-.22.26-.49.39-.81.39-.22 0-.44-.04-.66-.12-.2-.1-.46-.24-.78-.42-.58-.3-1.08-.52-1.5-.66-.42-.16-.94-.24-1.56-.24-.74 0-1.33.15-1.77.45-.42.3-.63.71-.63 1.23 0 .5.22.88.66 1.14.44.26 1.29.52 2.55.78 1.34.28 2.39.6 3.15.96.76.36 1.3.81 1.62 1.35.34.54.51 1.23.51 2.07 0 1.36-.57 2.45-1.71 3.27-1.12.82-2.62 1.23-4.5 1.23zM231.612 246.613c-1.5 0-2.82-.31-3.96-.93-1.12-.62-1.99-1.51-2.61-2.67-.62-1.16-.93-2.51-.93-4.05s.31-2.88.93-4.02c.62-1.16 1.49-2.05 2.61-2.67 1.14-.62 2.46-.93 3.96-.93s2.81.31 3.93.93c1.14.62 2.01 1.51 2.61 2.67.62 1.14.93 2.48.93 4.02 0 1.54-.31 2.89-.93 4.05-.6 1.16-1.47 2.05-2.61 2.67-1.12.62-2.43.93-3.93.93zm-.03-2.91c1.22 0 2.15-.4 2.79-1.2.64-.8.96-1.98.96-3.54 0-1.54-.32-2.71-.96-3.51-.64-.82-1.56-1.23-2.76-1.23-1.2 0-2.13.41-2.79 1.23-.64.8-.96 1.97-.96 3.51 0 1.56.32 2.74.96 3.54.64.8 1.56 1.2 2.76 1.2zM250.698 231.343c1.76 0 3.07.5 3.93 1.5.86 1 1.29 2.51 1.29 4.53v7.38c0 .56-.17 1-.51 1.32-.32.32-.77.48-1.35.48-.58 0-1.04-.16-1.38-.48-.34-.32-.51-.76-.51-1.32v-7.17c0-1.14-.22-1.97-.66-2.49-.42-.52-1.09-.78-2.01-.78-1.08 0-1.95.34-2.61 1.02-.64.68-.96 1.59-.96 2.73v6.69c0 .56-.17 1-.51 1.32-.34.32-.8.48-1.38.48-.58 0-1.04-.16-1.38-.48-.32-.32-.48-.76-.48-1.32v-11.61c0-.52.17-.94.51-1.26.34-.32.8-.48 1.38-.48.52 0 .94.16 1.26.48.34.3.51.7.51 1.2v.81c.5-.82 1.17-1.45 2.01-1.89.84-.44 1.79-.66 2.85-.66z" fill="ivory"/>
  <path d="M200.524 205.613c-1.46 0-2.75-.31-3.87-.93-1.1-.62-1.95-1.5-2.55-2.64-.6-1.14-.9-2.47-.9-3.99s.31-2.86.93-4.02c.64-1.18 1.53-2.09 2.67-2.73 1.14-.64 2.45-.96 3.93-.96.78 0 1.56.11 2.34.33.8.22 1.5.52 2.1.9.64.42.96.95.96 1.59 0 .44-.11.8-.33 1.08-.2.26-.47.39-.81.39-.22 0-.45-.05-.69-.15-.24-.1-.48-.22-.72-.36-.44-.26-.86-.46-1.26-.6-.4-.16-.86-.24-1.38-.24-1.24 0-2.2.41-2.88 1.23-.66.8-.99 1.96-.99 3.48 0 1.5.33 2.66.99 3.48.68.8 1.64 1.2 2.88 1.2.5 0 .94-.07 1.32-.21.4-.16.84-.37 1.32-.63.3-.18.56-.31.78-.39.22-.1.44-.15.66-.15.32 0 .59.14.81.42.22.28.33.63.33 1.05 0 .34-.08.64-.24.9-.14.24-.38.46-.72.66-.62.4-1.34.72-2.16.96-.82.22-1.66.33-2.52.33zM215.353 205.613c-1.5 0-2.82-.31-3.96-.93-1.12-.62-1.99-1.51-2.61-2.67-.62-1.16-.93-2.51-.93-4.05s.31-2.88.93-4.02c.62-1.16 1.49-2.05 2.61-2.67 1.14-.62 2.46-.93 3.96-.93s2.81.31 3.93.93c1.14.62 2.01 1.51 2.61 2.67.62 1.14.93 2.48.93 4.02 0 1.54-.31 2.89-.93 4.05-.6 1.16-1.47 2.05-2.61 2.67-1.12.62-2.43.93-3.93.93zm-.03-2.91c1.22 0 2.15-.4 2.79-1.2.64-.8.96-1.98.96-3.54 0-1.54-.32-2.71-.96-3.51-.64-.82-1.56-1.23-2.76-1.23-1.2 0-2.13.41-2.79 1.23-.64.8-.96 1.97-.96 3.51 0 1.56.32 2.74.96 3.54.64.8 1.56 1.2 2.76 1.2zM238.158 184.073c.56 0 1.02.16 1.38.48.36.32.54.74.54 1.26v17.94c0 .54-.17.97-.51 1.29-.34.32-.79.48-1.35.48s-1.01-.16-1.35-.48c-.34-.32-.51-.75-.51-1.29v-.75c-.44.82-1.08 1.46-1.92 1.92-.82.46-1.76.69-2.82.69-1.26 0-2.39-.32-3.39-.96-.98-.64-1.75-1.54-2.31-2.7-.54-1.18-.81-2.53-.81-4.05s.27-2.85.81-3.99c.56-1.14 1.33-2.02 2.31-2.64.98-.62 2.11-.93 3.39-.93 1.06 0 2 .22 2.82.66.82.44 1.45 1.06 1.89 1.86v-7.11c0-.5.16-.9.48-1.2.34-.32.79-.48 1.35-.48zm-5.55 18.63c1.2 0 2.12-.41 2.76-1.23.66-.82.99-1.99.99-3.51 0-1.52-.33-2.68-.99-3.48-.64-.82-1.55-1.23-2.73-1.23-1.2 0-2.13.4-2.79 1.2-.66.8-.99 1.95-.99 3.45 0 1.52.33 2.7.99 3.54.66.84 1.58 1.26 2.76 1.26zM254.166 191.483c.16-.36.37-.62.63-.78.28-.18.58-.27.9-.27.46 0 .87.16 1.23.48.38.3.57.68.57 1.14 0 .22-.06.45-.18.69l-8.19 17.16c-.34.68-.87 1.02-1.59 1.02-.46 0-.87-.15-1.23-.45-.34-.28-.51-.64-.51-1.08 0-.22.06-.47.18-.75l2.04-4.29-5.58-11.61c-.1-.2-.15-.43-.15-.69 0-.46.19-.85.57-1.17.4-.32.85-.48 1.35-.48.34 0 .65.09.93.27.28.16.5.42.66.78l4.2 9.27 4.17-9.24zM131.637 232.513c.14-.36.34-.63.6-.81.28-.18.58-.27.9-.27.46 0 .87.16 1.23.48.38.3.57.68.57 1.14 0 .26-.05.49-.15.69l-4.95 11.61c-.16.38-.41.67-.75.87-.32.2-.68.3-1.08.3-.38 0-.74-.1-1.08-.3-.32-.2-.56-.49-.72-.87l-3.57-8.58-3.45 8.58c-.16.38-.41.67-.75.87-.32.2-.68.3-1.08.3-.38 0-.74-.1-1.08-.3-.34-.2-.59-.49-.75-.87l-4.92-11.61c-.1-.26-.15-.48-.15-.66 0-.46.2-.85.6-1.17.4-.34.84-.51 1.32-.51.34 0 .65.09.93.27.28.18.49.45.63.81l3.54 9.15 3.63-9.06c.16-.38.39-.66.69-.84.3-.2.63-.3.99-.3s.69.1.99.3c.3.18.53.46.69.84l3.66 9.09 3.51-9.15zM139.36 246.553c-.54 0-.99-.15-1.35-.45-.34-.32-.51-.77-.51-1.35v-11.58c0-.58.17-1.02.51-1.32.36-.3.81-.45 1.35-.45s.99.15 1.35.45c.36.3.54.74.54 1.32v11.58c0 .58-.18 1.03-.54 1.35-.36.3-.81.45-1.35.45zm0-17.82c-.68 0-1.22-.18-1.62-.54-.4-.38-.6-.87-.6-1.47s.2-1.08.6-1.44c.4-.36.94-.54 1.62-.54.66 0 1.19.18 1.59.54.42.36.63.84.63 1.44s-.2 1.09-.6 1.47c-.4.36-.94.54-1.62.54zM146.978 246.553c-.54 0-.99-.15-1.35-.45-.34-.32-.51-.77-.51-1.35v-17.91c0-.58.17-1.02.51-1.32.36-.3.81-.45 1.35-.45s.99.15 1.35.45c.36.3.54.74.54 1.32v17.91c0 .58-.18 1.03-.54 1.35-.36.3-.81.45-1.35.45zM154.595 246.553c-.54 0-.99-.15-1.35-.45-.34-.32-.51-.77-.51-1.35v-17.91c0-.58.17-1.02.51-1.32.36-.3.81-.45 1.35-.45s.99.15 1.35.45c.36.3.54.74.54 1.32v17.91c0 .58-.18 1.03-.54 1.35-.36.3-.81.45-1.35.45zM162.212 246.553c-.54 0-.99-.15-1.35-.45-.34-.32-.51-.77-.51-1.35v-11.58c0-.58.17-1.02.51-1.32.36-.3.81-.45 1.35-.45s.99.15 1.35.45c.36.3.54.74.54 1.32v11.58c0 .58-.18 1.03-.54 1.35-.36.3-.81.45-1.35.45zm0-17.82c-.68 0-1.22-.18-1.62-.54-.4-.38-.6-.87-.6-1.47s.2-1.08.6-1.44c.4-.36.94-.54 1.62-.54.66 0 1.19.18 1.59.54.42.36.63.84.63 1.44s-.2 1.09-.6 1.47c-.4.36-.94.54-1.62.54zM174.329 231.343c2.04 0 3.55.51 4.53 1.53 1 1 1.5 2.53 1.5 4.59v7.32c0 .54-.16.97-.48 1.29-.32.3-.76.45-1.32.45-.52 0-.95-.16-1.29-.48-.32-.32-.48-.74-.48-1.26v-.66c-.34.78-.88 1.39-1.62 1.83-.72.44-1.56.66-2.52.66-.98 0-1.87-.2-2.67-.6-.8-.4-1.43-.95-1.89-1.65-.46-.7-.69-1.48-.69-2.34 0-1.08.27-1.93.81-2.55.56-.62 1.46-1.07 2.7-1.35 1.24-.28 2.95-.42 5.13-.42h.75v-.69c0-.98-.21-1.69-.63-2.13-.42-.46-1.1-.69-2.04-.69-.58 0-1.17.09-1.77.27-.6.16-1.31.4-2.13.72-.52.26-.9.39-1.14.39-.36 0-.66-.13-.9-.39-.22-.26-.33-.6-.33-1.02 0-.34.08-.63.24-.87.18-.26.47-.5.87-.72.7-.38 1.53-.68 2.49-.9.98-.22 1.94-.33 2.88-.33zm-.93 12.57c1 0 1.81-.33 2.43-.99.64-.68.96-1.55.96-2.61v-.63h-.54c-1.34 0-2.38.06-3.12.18-.74.12-1.27.33-1.59.63-.32.3-.48.71-.48 1.23 0 .64.22 1.17.66 1.59.46.4 1.02.6 1.68.6zM201.6 231.343c1.6 0 2.82.48 3.66 1.44.86.94 1.29 2.47 1.29 4.59v7.38c0 .58-.18 1.03-.54 1.35-.34.3-.79.45-1.35.45-.54 0-.99-.15-1.35-.45-.34-.32-.51-.77-.51-1.35v-7.38c0-1.1-.2-1.88-.6-2.34-.38-.48-.97-.72-1.77-.72-.98 0-1.76.34-2.34 1.02-.58.66-.87 1.57-.87 2.73v6.69c0 .58-.18 1.03-.54 1.35-.34.3-.78.45-1.32.45s-.99-.15-1.35-.45c-.36-.32-.54-.77-.54-1.35v-7.38c0-1.1-.2-1.88-.6-2.34-.38-.48-.97-.72-1.77-.72-.98 0-1.76.34-2.34 1.02-.56.66-.84 1.57-.84 2.73v6.69c0 .58-.18 1.03-.54 1.35-.36.3-.81.45-1.35.45s-.99-.15-1.35-.45c-.34-.32-.51-.77-.51-1.35v-11.61c0-.56.18-.99.54-1.29.36-.3.81-.45 1.35-.45.52 0 .94.15 1.26.45.34.28.51.69.51 1.23v.72c.46-.8 1.07-1.41 1.83-1.83.78-.42 1.67-.63 2.67-.63 2.2 0 3.67.92 4.41 2.76.44-.84 1.09-1.51 1.95-2.01.86-.5 1.83-.75 2.91-.75zM215.672 246.613c-2.18 0-3.94-.43-5.28-1.29-.64-.38-.96-.92-.96-1.62 0-.4.11-.72.33-.96.22-.26.49-.39.81-.39.34 0 .81.16 1.41.48.64.3 1.22.53 1.74.69.54.16 1.22.24 2.04.24.84 0 1.49-.14 1.95-.42.48-.28.72-.67.72-1.17 0-.34-.1-.61-.3-.81-.18-.2-.52-.38-1.02-.54-.48-.18-1.22-.38-2.22-.6-1.78-.36-3.06-.87-3.84-1.53-.76-.66-1.14-1.57-1.14-2.73 0-.88.26-1.67.78-2.37.52-.72 1.23-1.27 2.13-1.65.92-.4 1.96-.6 3.12-.6.84 0 1.65.11 2.43.33.78.2 1.48.5 2.1.9.64.4.96.93.96 1.59 0 .4-.11.74-.33 1.02-.22.26-.49.39-.81.39-.22 0-.44-.04-.66-.12-.2-.1-.46-.24-.78-.42-.58-.3-1.08-.52-1.5-.66-.42-.16-.94-.24-1.56-.24-.74 0-1.33.15-1.77.45-.42.3-.63.71-.63 1.23 0 .5.22.88.66 1.14.44.26 1.29.52 2.55.78 1.34.28 2.39.6 3.15.96.76.36 1.3.81 1.62 1.35.34.54.51 1.23.51 2.07 0 1.36-.57 2.45-1.71 3.27-1.12.82-2.62 1.23-4.5 1.23zM231.612 246.613c-1.5 0-2.82-.31-3.96-.93-1.12-.62-1.99-1.51-2.61-2.67-.62-1.16-.93-2.51-.93-4.05s.31-2.88.93-4.02c.62-1.16 1.49-2.05 2.61-2.67 1.14-.62 2.46-.93 3.96-.93s2.81.31 3.93.93c1.14.62 2.01 1.51 2.61 2.67.62 1.14.93 2.48.93 4.02 0 1.54-.31 2.89-.93 4.05-.6 1.16-1.47 2.05-2.61 2.67-1.12.62-2.43.93-3.93.93zm-.03-2.91c1.22 0 2.15-.4 2.79-1.2.64-.8.96-1.98.96-3.54 0-1.54-.32-2.71-.96-3.51-.64-.82-1.56-1.23-2.76-1.23-1.2 0-2.13.41-2.79 1.23-.64.8-.96 1.97-.96 3.51 0 1.56.32 2.74.96 3.54.64.8 1.56 1.2 2.76 1.2zM250.698 231.343c1.76 0 3.07.5 3.93 1.5.86 1 1.29 2.51 1.29 4.53v7.38c0 .56-.17 1-.51 1.32-.32.32-.77.48-1.35.48-.58 0-1.04-.16-1.38-.48-.34-.32-.51-.76-.51-1.32v-7.17c0-1.14-.22-1.97-.66-2.49-.42-.52-1.09-.78-2.01-.78-1.08 0-1.95.34-2.61 1.02-.64.68-.96 1.59-.96 2.73v6.69c0 .56-.17 1-.51 1.32-.34.32-.8.48-1.38.48-.58 0-1.04-.16-1.38-.48-.32-.32-.48-.76-.48-1.32v-11.61c0-.52.17-.94.51-1.26.34-.32.8-.48 1.38-.48.52 0 .94.16 1.26.48.34.3.51.7.51 1.2v.81c.5-.82 1.17-1.45 2.01-1.89.84-.44 1.79-.66 2.85-.66z" stroke="#242424" stroke-width="2" mask="url(#a)"/>
</svg>
