<svg id="Layer_1" data-name="Layer 1" xmlns="http://www.w3.org/2000/svg" xmlns:xlink="http://www.w3.org/1999/xlink" viewBox="0 0 244.21 189.66"><defs><style>.cls-1,.cls-4,.cls-5{fill:none;}.cls-2{fill:#ed8c22;}.cls-3{clip-path:url(#clip-path);}.cls-4{stroke:#ed8c22;}.cls-4,.cls-5{stroke-width:1.16px;}.cls-5{stroke:#fff;}.cls-6{fill:#fff;}.cls-7{fill:#434345;}</style><clipPath id="clip-path"><rect class="cls-1" width="244.21" height="189.66"/></clipPath></defs><title>Final Sizing Charts</title><rect class="cls-2" x="0.58" y="0.87" width="243.05" height="20.01"/><g class="cls-3"><rect class="cls-4" x="0.58" y="0.87" width="243.05" height="20.01"/><rect class="cls-4" x="0.58" y="24.21" width="243.05" height="140.72"/><rect class="cls-4" x="0.58" y="24.21" width="243.05" height="164.87"/><line class="cls-4" x1="244.21" y1="45.43" x2="0.07" y2="45.43"/><line class="cls-4" x1="244.21" y1="68.74" x2="0.07" y2="68.74"/><line class="cls-4" x1="244.21" y1="93.23" x2="0.07" y2="93.23"/><line class="cls-4" x1="244.21" y1="117.13" x2="0.07" y2="117.13"/><line class="cls-4" x1="244.21" y1="141.03" x2="0.07" y2="141.03"/><line class="cls-4" x1="70.78" y1="24.57" x2="70.78" y2="189.66"/><line class="cls-5" x1="70.8" x2="70.8" y2="23.18"/><line class="cls-5" x1="157.95" x2="157.95" y2="23.18"/><line class="cls-4" x1="158.14" y1="24.43" x2="158.14" y2="189.66"/><path class="cls-6" d="M43.32,8.87v-1H39.44V14h3.88V13H40.71v-1.6h2v-1h-2V8.87Zm-4.73-1H34.06v1H37l-3,4.29a.44.44,0,0,0-.08.15.57.57,0,0,0,0,.18V14h4.66V13h-3l3-4.26a.66.66,0,0,0,.09-.19.63.63,0,0,0,0-.19Zm-5.53,0H31.79V14h1.27Zm-2.28.57A2.26,2.26,0,0,0,30,8a2.78,2.78,0,0,0-1-.17,2.42,2.42,0,0,0-.88.15,2,2,0,0,0-.64.4,1.61,1.61,0,0,0-.39.57,1.64,1.64,0,0,0-.13.65,1.83,1.83,0,0,0,.11.71,1.49,1.49,0,0,0,.32.48,1.35,1.35,0,0,0,.44.31,3.89,3.89,0,0,0,.51.21l.51.15a3.72,3.72,0,0,1,.44.16,1.28,1.28,0,0,1,.31.24.58.58,0,0,1,.12.38.75.75,0,0,1-.24.6,1.07,1.07,0,0,1-.69.2,1.52,1.52,0,0,1-.51-.08,1.92,1.92,0,0,1-.38-.19l-.29-.18a.45.45,0,0,0-.24-.09.3.3,0,0,0-.16,0,.32.32,0,0,0-.12.11l-.37.59a2,2,0,0,0,.41.33,2.59,2.59,0,0,0,.5.25,3.5,3.5,0,0,0,.55.17,2.93,2.93,0,0,0,.58.06,2.59,2.59,0,0,0,.91-.16,1.72,1.72,0,0,0,.67-.43,1.66,1.66,0,0,0,.42-.63,2,2,0,0,0,.15-.78,1.6,1.6,0,0,0-.12-.65,1.36,1.36,0,0,0-.32-.45,2.32,2.32,0,0,0-.44-.31l-.51-.21L29,10.27a2.53,2.53,0,0,1-.44-.18,1.13,1.13,0,0,1-.32-.22.53.53,0,0,1-.11-.34A.66.66,0,0,1,28.32,9,1,1,0,0,1,29,8.83a1.4,1.4,0,0,1,.43.06,2.52,2.52,0,0,1,.33.14l.25.14a.35.35,0,0,0,.2.07.28.28,0,0,0,.16-.05.43.43,0,0,0,.12-.14Z"/><path class="cls-7" d="M45.83,62.35h1.23V54.92H45.83Zm-2.49,0h1.24V54.92H43.34Zm-5-4a.57.57,0,0,0,.15.16.32.32,0,0,0,.22.07.5.5,0,0,0,.27-.07l.27-.16a2.29,2.29,0,0,1,.35-.16,1.72,1.72,0,0,1,.5-.07.83.83,0,0,1,.63.25,1.11,1.11,0,0,1,.22.76v.3a7.61,7.61,0,0,0-1,.09,5,5,0,0,0-.8.19,2.53,2.53,0,0,0-.57.27,1.62,1.62,0,0,0-.39.33,1.07,1.07,0,0,0-.21.37,1.21,1.21,0,0,0-.06.38,1.45,1.45,0,0,0,.11.61,1,1,0,0,0,.31.43,1.29,1.29,0,0,0,.47.27,2.23,2.23,0,0,0,.6.08,2.6,2.6,0,0,0,.5,0,2.71,2.71,0,0,0,.43-.14A3.84,3.84,0,0,0,40.7,62a4.73,4.73,0,0,0,.38-.31l.11.37a.29.29,0,0,0,.15.21.5.5,0,0,0,.27.05h.56V59.11a2.58,2.58,0,0,0-.13-.8,1.83,1.83,0,0,0-.37-.62,1.65,1.65,0,0,0-.6-.41,2.09,2.09,0,0,0-.81-.15,3,3,0,0,0-2.13.81ZM41,61a2.2,2.2,0,0,1-.54.42,1.53,1.53,0,0,1-.66.13.78.78,0,0,1-.5-.14.51.51,0,0,1-.19-.46.59.59,0,0,1,.09-.31.77.77,0,0,1,.32-.24,2.13,2.13,0,0,1,.58-.17,6.3,6.3,0,0,1,.9-.1Zm-9.85,1.32V58.6a1.59,1.59,0,0,1,.43-.36,1,1,0,0,1,.51-.14.75.75,0,0,1,.6.24,1.12,1.12,0,0,1,.21.75v3.26H34.1V59.09a1.18,1.18,0,0,1,.07-.43.91.91,0,0,1,.19-.3.7.7,0,0,1,.29-.19A1,1,0,0,1,35,58.1a.8.8,0,0,1,.63.25,1.13,1.13,0,0,1,.22.74v3.26h1.23V59.09a2.64,2.64,0,0,0-.12-.83,1.72,1.72,0,0,0-.34-.61,1.55,1.55,0,0,0-.55-.38,2.24,2.24,0,0,0-.76-.13,2.05,2.05,0,0,0-.49.06,1.74,1.74,0,0,0-.45.17,1.45,1.45,0,0,0-.4.3,1.5,1.5,0,0,0-.3.43,1.49,1.49,0,0,0-.47-.69,1.17,1.17,0,0,0-.79-.27,1.44,1.44,0,0,0-.43.06,1.42,1.42,0,0,0-.36.14,2.11,2.11,0,0,0-.31.21l-.28.28L31,57.45a.31.31,0,0,0-.32-.23h-.75v5.13ZM28.87,55.8a2.84,2.84,0,0,0-.92-.56,3.48,3.48,0,0,0-1.18-.2,2.64,2.64,0,0,0-1,.18,2.27,2.27,0,0,0-.74.46,2,2,0,0,0-.46.67,1.9,1.9,0,0,0-.16.77,2.21,2.21,0,0,0,.14.83,1.63,1.63,0,0,0,.38.56,2,2,0,0,0,.54.37,6.44,6.44,0,0,0,.61.24c.2.07.41.13.61.18a3.25,3.25,0,0,1,.53.21,1.15,1.15,0,0,1,.38.3.77.77,0,0,1,.14.47,1,1,0,0,1-.31.78,1.33,1.33,0,0,1-.89.27,1.81,1.81,0,0,1-.65-.1,2.19,2.19,0,0,1-.46-.23l-.35-.22a.5.5,0,0,0-.27-.11.34.34,0,0,0-.17,0,.37.37,0,0,0-.13.12l-.39.64a2.28,2.28,0,0,0,.48.39,3.1,3.1,0,0,0,.57.3,3.5,3.5,0,0,0,.65.2,3.82,3.82,0,0,0,.68.06,2.91,2.91,0,0,0,1.06-.18,2.37,2.37,0,0,0,.79-.5,2.17,2.17,0,0,0,.49-.74,2.55,2.55,0,0,0,.17-.92,1.79,1.79,0,0,0-.15-.77,1.68,1.68,0,0,0-.37-.53,2.54,2.54,0,0,0-.54-.36,6.5,6.5,0,0,0-.61-.25l-.62-.2a2.92,2.92,0,0,1-.53-.22,1,1,0,0,1-.38-.29.59.59,0,0,1-.14-.42.9.9,0,0,1,.07-.37.66.66,0,0,1,.21-.29.89.89,0,0,1,.35-.18,1.45,1.45,0,0,1,.49-.07,1.46,1.46,0,0,1,.54.08,3,3,0,0,1,.4.17l.29.17a.46.46,0,0,0,.23.08.28.28,0,0,0,.16,0,.39.39,0,0,0,.13-.15Z"/><path class="cls-7" d="M50.92,39h1.24V31.53H50.92Zm-2.48,0h1.23V31.53H48.44Zm-5-4a.52.52,0,0,0,.14.16.41.41,0,0,0,.22.07.68.68,0,0,0,.28-.07l.27-.16a1.92,1.92,0,0,1,.35-.16,1.64,1.64,0,0,1,.49-.07.8.8,0,0,1,.64.25,1.17,1.17,0,0,1,.22.76V36a7.61,7.61,0,0,0-1,.09,4.72,4.72,0,0,0-.8.19,2.08,2.08,0,0,0-.58.27,1.77,1.77,0,0,0-.38.33,1,1,0,0,0-.21.36,1.07,1.07,0,0,0-.07.39,1.66,1.66,0,0,0,.11.61,1.25,1.25,0,0,0,.31.43,1.18,1.18,0,0,0,.48.26,1.89,1.89,0,0,0,.6.09,2,2,0,0,0,.5,0,1.79,1.79,0,0,0,.81-.36,3.32,3.32,0,0,0,.38-.3l.11.37a.39.39,0,0,0,.15.21.68.68,0,0,0,.27.05h.56V35.72a2.58,2.58,0,0,0-.12-.8,1.83,1.83,0,0,0-.38-.63,1.73,1.73,0,0,0-.6-.41,2.2,2.2,0,0,0-.8-.14,3,3,0,0,0-2.13.81Zm2.61,2.7a2.14,2.14,0,0,1-.54.41,1.39,1.39,0,0,1-.66.14.76.76,0,0,1-.5-.14.53.53,0,0,1-.2-.46.52.52,0,0,1,.1-.31.8.8,0,0,1,.31-.24,2.6,2.6,0,0,1,.59-.18,8.49,8.49,0,0,1,.9-.09ZM36.21,39V35.21a1.42,1.42,0,0,1,.43-.36,1,1,0,0,1,.5-.14.76.76,0,0,1,.61.24,1.08,1.08,0,0,1,.21.75V39H39.2V35.7a1.18,1.18,0,0,1,.07-.43,1.08,1.08,0,0,1,.19-.31,1,1,0,0,1,.64-.25.77.77,0,0,1,.63.25,1.13,1.13,0,0,1,.21.74V39h1.24V35.7a2.64,2.64,0,0,0-.12-.83,1.72,1.72,0,0,0-.34-.61,1.59,1.59,0,0,0-.56-.38,2.18,2.18,0,0,0-.75-.13,2.05,2.05,0,0,0-.49.06,1.6,1.6,0,0,0-.46.17,1.52,1.52,0,0,0-.39.29,1.71,1.71,0,0,0-.3.44,1.58,1.58,0,0,0-.47-.7,1.22,1.22,0,0,0-.8-.26,1.86,1.86,0,0,0-.42,0,1.94,1.94,0,0,0-.36.15,1.69,1.69,0,0,0-.31.21,3.83,3.83,0,0,0-.29.28L36,34.06a.3.3,0,0,0-.31-.23H35V39ZM34,32.41a2.74,2.74,0,0,0-.92-.56,3.44,3.44,0,0,0-1.18-.2,2.67,2.67,0,0,0-1,.18,2.21,2.21,0,0,0-.74.46,2,2,0,0,0-.45.67,1.87,1.87,0,0,0-.16.77,2.25,2.25,0,0,0,.14.83,1.73,1.73,0,0,0,.38.56,2.19,2.19,0,0,0,.53.37c.2.09.41.17.61.24l.61.18a3.38,3.38,0,0,1,.54.21,1.26,1.26,0,0,1,.38.3.77.77,0,0,1,.14.47,1,1,0,0,1-.32.78,1.32,1.32,0,0,1-.89.27,1.76,1.76,0,0,1-.64-.1,2.57,2.57,0,0,1-.47-.23l-.34-.23a.56.56,0,0,0-.27-.1.34.34,0,0,0-.17,0,.37.37,0,0,0-.13.12l-.4.64a2.28,2.28,0,0,0,.48.39,3.19,3.19,0,0,0,.58.3,2.94,2.94,0,0,0,.64.19,3.14,3.14,0,0,0,.68.07,3,3,0,0,0,1.07-.18,2.37,2.37,0,0,0,.79-.5,2.27,2.27,0,0,0,.49-.75,2.49,2.49,0,0,0,.16-.91,1.8,1.8,0,0,0-.14-.77,1.47,1.47,0,0,0-.38-.53A1.77,1.77,0,0,0,33,35a4.73,4.73,0,0,0-.62-.25l-.61-.2a4.65,4.65,0,0,1-.54-.22,1.09,1.09,0,0,1-.37-.29.6.6,0,0,1-.15-.42,1.06,1.06,0,0,1,.07-.37A.77.77,0,0,1,31,33a1.06,1.06,0,0,1,.35-.19,2.08,2.08,0,0,1,1,0,2.38,2.38,0,0,1,.39.18l.3.17a.42.42,0,0,0,.22.08.29.29,0,0,0,.17,0,.39.39,0,0,0,.13-.15Zm-8.15,4.05H28.4v-1H25.81Zm-2.74-1.27,2.32-3.46H24.11a.31.31,0,0,0-.17.05.43.43,0,0,0-.12.14l-1.51,2.37-.12.25-1.64-2.65a.45.45,0,0,0-.12-.12.35.35,0,0,0-.2,0H18.89l2.3,3.51L18.79,39h1.26a.27.27,0,0,0,.2-.07,1.07,1.07,0,0,0,.14-.16L22,36.17a1,1,0,0,0,.1-.21l1.67,2.77a.54.54,0,0,0,.14.16.31.31,0,0,0,.22.07h1.34Z"/><path class="cls-7" d="M136.07,62.35V58.6a1.62,1.62,0,0,1,.44-.36,1,1,0,0,1,.5-.14.76.76,0,0,1,.61.24,1.18,1.18,0,0,1,.2.75v3.26h1.24V59.09a1.43,1.43,0,0,1,.07-.43.79.79,0,0,1,.2-.3.67.67,0,0,1,.28-.19,1,1,0,0,1,.35-.07.8.8,0,0,1,.63.25,1.07,1.07,0,0,1,.22.74v3.26H142V59.09a3,3,0,0,0-.11-.83,1.74,1.74,0,0,0-.35-.61,1.55,1.55,0,0,0-.55-.38,2.2,2.2,0,0,0-.76-.13,2,2,0,0,0-.48.06,1.68,1.68,0,0,0-.46.17,1.61,1.61,0,0,0-.4.3,1.5,1.5,0,0,0-.3.43,1.56,1.56,0,0,0-.46-.69,1.19,1.19,0,0,0-.8-.27,1.37,1.37,0,0,0-.42.06,1.42,1.42,0,0,0-.36.14,1.77,1.77,0,0,0-.32.21,3.7,3.7,0,0,0-.28.28l-.08-.38a.31.31,0,0,0-.32-.23h-.75v5.13Zm-2-4.49a2.4,2.4,0,0,0-.78-.53,2.6,2.6,0,0,0-1-.19,2.76,2.76,0,0,0-1.07.2,2.23,2.23,0,0,0-.78.56,2.19,2.19,0,0,0-.47.83,3.21,3.21,0,0,0-.17,1.05,3,3,0,0,0,.19,1.12,2.34,2.34,0,0,0,.49.83,2.12,2.12,0,0,0,.74.52,2.25,2.25,0,0,0,.89.18,3.48,3.48,0,0,0,.55,0,2.6,2.6,0,0,0,.53-.14,2.11,2.11,0,0,0,.49-.26,2.39,2.39,0,0,0,.45-.4l-.36-.45a.24.24,0,0,0-.22-.12.32.32,0,0,0-.21.08l-.22.16a2,2,0,0,1-.3.16,1.57,1.57,0,0,1-.48.07,1.29,1.29,0,0,1-.53-.11,1.16,1.16,0,0,1-.4-.33,1.49,1.49,0,0,1-.25-.54,2.7,2.7,0,0,1-.09-.73,3.08,3.08,0,0,1,.08-.71,1.43,1.43,0,0,1,.24-.53,1.12,1.12,0,0,1,.41-.34,1.26,1.26,0,0,1,.57-.12,1.35,1.35,0,0,1,.43.06,1.57,1.57,0,0,1,.29.13l.22.13a.32.32,0,0,0,.18.06.25.25,0,0,0,.16,0,.55.55,0,0,0,.1-.11Zm-8.59,3.34a3.42,3.42,0,0,0-.44,0,4,4,0,0,0-.47.11l1.63-1.67c.19-.2.38-.39.55-.59a4.43,4.43,0,0,0,.47-.6,3,3,0,0,0,.31-.65,2.17,2.17,0,0,0,.12-.74,2.07,2.07,0,0,0-.17-.84,1.88,1.88,0,0,0-.46-.65,2,2,0,0,0-.71-.42,2.63,2.63,0,0,0-.91-.15,2.93,2.93,0,0,0-.9.14,2.19,2.19,0,0,0-.74.39,2.36,2.36,0,0,0-.54.66,2.7,2.7,0,0,0-.29.91l.65.11a.6.6,0,0,0,.39,0,.51.51,0,0,0,.22-.31,1.66,1.66,0,0,1,.15-.33,1.23,1.23,0,0,1,.25-.26,1.29,1.29,0,0,1,.33-.17,1.1,1.1,0,0,1,.41-.07,1.43,1.43,0,0,1,.43.07.91.91,0,0,1,.33.2.89.89,0,0,1,.21.34,1.25,1.25,0,0,1,.08.45,2,2,0,0,1-.08.55,2,2,0,0,1-.22.5,4,4,0,0,1-.36.51c-.15.17-.31.35-.5.53L123,61.43a.79.79,0,0,0-.17.25.85.85,0,0,0,0,.26v.41h5v-.74a.37.37,0,0,0-.12-.29.42.42,0,0,0-.32-.12Zm-4.94.77a.74.74,0,0,0,.4.4.94.94,0,0,0,.3.05,1,1,0,0,0,.3-.05.78.78,0,0,0,.24-.16,1,1,0,0,0,.16-.24.73.73,0,0,0,.06-.3.72.72,0,0,0-.06-.29,1,1,0,0,0-.16-.24.78.78,0,0,0-.24-.16.77.77,0,0,0-.3-.06.73.73,0,0,0-.3.06.74.74,0,0,0-.4.4.72.72,0,0,0-.06.29.73.73,0,0,0,.06.3m-4-5.73h2a.77.77,0,0,0,.56-.16.58.58,0,0,0,.17-.43v-.53h-3.57l-.6,3.51.77.22a3.33,3.33,0,0,1,1-.19,1.38,1.38,0,0,1,1,.34,1.25,1.25,0,0,1,.34.92,1.87,1.87,0,0,1-.09.59,1.27,1.27,0,0,1-.26.47,1.13,1.13,0,0,1-.43.31,1.57,1.57,0,0,1-.6.11,1.72,1.72,0,0,1-.94-.26l-.3-.17a.52.52,0,0,0-.26-.08.37.37,0,0,0-.31.17l-.38.52a2.81,2.81,0,0,0,.41.33,3.27,3.27,0,0,0,.49.27,3.45,3.45,0,0,0,.57.18,2.76,2.76,0,0,0,.65.07,3.08,3.08,0,0,0,1.07-.18,2.42,2.42,0,0,0,1.42-1.34,2.69,2.69,0,0,0,.2-1,2.39,2.39,0,0,0-.15-.86,2,2,0,0,0-.45-.71,2.09,2.09,0,0,0-.73-.47,2.79,2.79,0,0,0-1-.17l-.43,0a4.3,4.3,0,0,0-.46.07Zm-4.21,5.19V55.11h-1L109.06,57l.39.53a.38.38,0,0,0,.09.09.46.46,0,0,0,.14,0,.43.43,0,0,0,.16,0,.51.51,0,0,0,.18-.09l1-.87c0,.18,0,.35,0,.51v4.22h-1.46v.92h4v-.92Zm-5.37-6.51h-.53A.64.64,0,0,0,106,55a.68.68,0,0,0-.25.32l-2.92,7.47h.53a.68.68,0,0,0,.38-.12.58.58,0,0,0,.27-.34ZM96.75,57.45a.3.3,0,0,0-.31-.23h-.76v5.13h1.24V58.64a2.41,2.41,0,0,1,.53-.39,1.27,1.27,0,0,1,.6-.15.8.8,0,0,1,.65.26,1.08,1.08,0,0,1,.22.73v3.26h1.23V59.09a2.48,2.48,0,0,0-.11-.79,1.57,1.57,0,0,0-.33-.61,1.28,1.28,0,0,0-.54-.4,1.79,1.79,0,0,0-.75-.15,1.86,1.86,0,0,0-.48.06,2,2,0,0,0-.41.14,1.69,1.69,0,0,0-.36.23,2.22,2.22,0,0,0-.33.28Zm-2.22-2a.74.74,0,0,0-.17-.25.81.81,0,0,0-.57-.23.8.8,0,0,0-.3.06.85.85,0,0,0-.25.17.72.72,0,0,0-.16.25.82.82,0,0,0-.07.31.73.73,0,0,0,.07.3.78.78,0,0,0,.16.24.85.85,0,0,0,.25.17.8.8,0,0,0,.3.06.81.81,0,0,0,.57-.23.81.81,0,0,0,.17-.24.73.73,0,0,0,.06-.3.81.81,0,0,0-.06-.31m-1.35,6.93h1.24V57.22H93.18Zm-5.14-1a1.15,1.15,0,0,1-.4-.28,1.09,1.09,0,0,1-.25-.42,1.87,1.87,0,0,1-.08-.55,1.5,1.5,0,0,1,.09-.52,1.51,1.51,0,0,1,.27-.42,1.2,1.2,0,0,1,.41-.28,1.55,1.55,0,0,1,1.07,0,1.18,1.18,0,0,1,.69.69,1.38,1.38,0,0,1,.1.55,1.32,1.32,0,0,1-.1.53,1.34,1.34,0,0,1-.28.42,1.19,1.19,0,0,1-.42.28,1.42,1.42,0,0,1-.55.1,1.55,1.55,0,0,1-.55-.09m2.42-6.21h-1.1a.87.87,0,0,0-.4.09.78.78,0,0,0-.26.2L87,57.73a4.81,4.81,0,0,0-.64,1.12,2.8,2.8,0,0,0-.21,1,2.87,2.87,0,0,0,.18,1,2.24,2.24,0,0,0,.49.8,2.27,2.27,0,0,0,.79.52,2.84,2.84,0,0,0,1,.18,2.68,2.68,0,0,0,1-.19A2.35,2.35,0,0,0,91,61a2.47,2.47,0,0,0,.18-1,2.28,2.28,0,0,0-.18-.94A1.93,1.93,0,0,0,89.84,58a2.44,2.44,0,0,0-.8-.13,2.12,2.12,0,0,0-.52.06,1.79,1.79,0,0,0-.46.16l.25-.31Z"/><path class="cls-7" d="M135.87,39V35.21a1.46,1.46,0,0,1,.44-.36,1,1,0,0,1,.5-.14.76.76,0,0,1,.61.24,1.14,1.14,0,0,1,.2.75V39h1.24V35.7a1.43,1.43,0,0,1,.07-.43.79.79,0,0,1,.2-.3.67.67,0,0,1,.28-.19.84.84,0,0,1,.35-.07.8.8,0,0,1,.63.25,1.07,1.07,0,0,1,.22.74V39h1.23V35.7a3,3,0,0,0-.11-.83,1.74,1.74,0,0,0-.35-.61,1.55,1.55,0,0,0-.55-.38,2.2,2.2,0,0,0-.76-.13,2,2,0,0,0-.48.06,1.72,1.72,0,0,0-.86.47,1.5,1.5,0,0,0-.3.43A1.56,1.56,0,0,0,138,34a1.19,1.19,0,0,0-.8-.27,1.79,1.79,0,0,0-.42,0,1.94,1.94,0,0,0-.36.15,1.77,1.77,0,0,0-.32.21l-.28.28-.08-.38a.31.31,0,0,0-.32-.23h-.75V39Zm-2.05-4.49a2.4,2.4,0,0,0-.78-.53,2.43,2.43,0,0,0-1-.19A2.76,2.76,0,0,0,131,34a2.34,2.34,0,0,0-.78.55,2.31,2.31,0,0,0-.47.84,3.21,3.21,0,0,0-.17,1,3,3,0,0,0,.19,1.12,2.34,2.34,0,0,0,.49.83,2.12,2.12,0,0,0,.74.52,2.25,2.25,0,0,0,.89.18,5.28,5.28,0,0,0,.55,0,3.46,3.46,0,0,0,.53-.14,2.11,2.11,0,0,0,.49-.26,2.39,2.39,0,0,0,.45-.4l-.36-.45a.24.24,0,0,0-.22-.12.38.38,0,0,0-.21.07,2.72,2.72,0,0,1-.52.33,1.57,1.57,0,0,1-.48.07,1.29,1.29,0,0,1-.53-.11,1.16,1.16,0,0,1-.4-.33,1.49,1.49,0,0,1-.25-.54,2.75,2.75,0,0,1-.09-.73,3,3,0,0,1,.08-.71,1.36,1.36,0,0,1,.24-.53,1.12,1.12,0,0,1,.41-.34,1.26,1.26,0,0,1,.57-.12,1.35,1.35,0,0,1,.43.06,1.57,1.57,0,0,1,.29.13l.22.13a.32.32,0,0,0,.18.06.34.34,0,0,0,.16,0l.1-.11Zm-11.18-2.74v.84a.28.28,0,0,0,.09.2.3.3,0,0,0,.2.08h3.46a1.86,1.86,0,0,0-.21.28l-.19.31L123.2,39h.89a.66.66,0,0,0,.42-.12.89.89,0,0,0,.24-.3l2.74-5.64a1.94,1.94,0,0,0,.1-.24,1.37,1.37,0,0,0,0-.39v-.54Zm-2.35,6.85a.78.78,0,0,0,.16.24.75.75,0,0,0,.24.15.73.73,0,0,0,.3.06.77.77,0,0,0,.3-.06.75.75,0,0,0,.24-.15,1,1,0,0,0,.16-.24.73.73,0,0,0,.06-.3.77.77,0,0,0-.22-.53.78.78,0,0,0-.24-.16.77.77,0,0,0-.3-.06.73.73,0,0,0-.3.06.78.78,0,0,0-.24.16.6.6,0,0,0-.16.24.72.72,0,0,0-.06.29.73.73,0,0,0,.06.3m-3.24-.77a3.59,3.59,0,0,0-.44,0,4.52,4.52,0,0,0-.47.11l1.63-1.67c.2-.2.38-.39.56-.59a3.68,3.68,0,0,0,.46-.6,3,3,0,0,0,.32-.65,2.45,2.45,0,0,0,.11-.74,2.06,2.06,0,0,0-.16-.84,1.79,1.79,0,0,0-.46-.65,2.09,2.09,0,0,0-.71-.42,2.69,2.69,0,0,0-.92-.15,3.13,3.13,0,0,0-.89.13,2.22,2.22,0,0,0-1.28,1,2.84,2.84,0,0,0-.29.92l.65.11a.6.6,0,0,0,.39,0,.55.55,0,0,0,.22-.31,1,1,0,0,1,.15-.33,1.2,1.2,0,0,1,.24-.26,1.56,1.56,0,0,1,.34-.18,1.29,1.29,0,0,1,.4-.06,1.5,1.5,0,0,1,.44.07.94.94,0,0,1,.33.2.89.89,0,0,1,.21.34,1.25,1.25,0,0,1,.07.45,2,2,0,0,1-.07.55,2.5,2.5,0,0,1-.23.5,2.65,2.65,0,0,1-.36.51c-.14.17-.31.35-.49.53L114.6,38a.76.76,0,0,0-.16.25.65.65,0,0,0-.06.26V39h5v-.74a.44.44,0,0,0-.11-.3.48.48,0,0,0-.32-.11Zm-5,.23V31.72h-1l-2.2,1.88.39.53a.38.38,0,0,0,.09.09.46.46,0,0,0,.14.05h.16a.76.76,0,0,0,.18-.09l1-.87c0,.17,0,.35,0,.51V38h-1.46V39h4V38Zm-5.37-6.51h-.53a.7.7,0,0,0-.38.11.76.76,0,0,0-.25.33l-2.92,7.47h.53a.68.68,0,0,0,.38-.12.58.58,0,0,0,.27-.34Zm-10,2.53a.3.3,0,0,0-.31-.23h-.76V39h1.24V35.25a2.13,2.13,0,0,1,.53-.39,1.27,1.27,0,0,1,.6-.15.8.8,0,0,1,.65.26,1.06,1.06,0,0,1,.22.73V39h1.23V35.7a2.48,2.48,0,0,0-.11-.79,1.57,1.57,0,0,0-.33-.61,1.39,1.39,0,0,0-.54-.41,2,2,0,0,0-.75-.14,2.44,2.44,0,0,0-.48,0,2.86,2.86,0,0,0-.41.15,2.16,2.16,0,0,0-.36.22,3.11,3.11,0,0,0-.33.29Zm-2.22-2a.74.74,0,0,0-.17-.25.81.81,0,0,0-.57-.23.8.8,0,0,0-.3.06.85.85,0,0,0-.25.17.72.72,0,0,0-.16.25.78.78,0,0,0-.07.31.82.82,0,0,0,.07.3.78.78,0,0,0,.16.24.85.85,0,0,0,.25.17.8.8,0,0,0,.3.06.81.81,0,0,0,.57-.23.72.72,0,0,0,.23-.54.78.78,0,0,0-.06-.31M93.18,39h1.24V33.83H93.18Zm-5-6.11h2a.77.77,0,0,0,.56-.16.6.6,0,0,0,.17-.43v-.53H87.33l-.6,3.51.77.22a3.33,3.33,0,0,1,1-.19,1.38,1.38,0,0,1,1,.34,1.2,1.2,0,0,1,.34.92,1.87,1.87,0,0,1-.09.59,1.27,1.27,0,0,1-.26.47,1.25,1.25,0,0,1-.43.31,1.57,1.57,0,0,1-.6.11,1.77,1.77,0,0,1-.55-.08,2.38,2.38,0,0,1-.39-.18l-.3-.17A.44.44,0,0,0,87,37.5a.35.35,0,0,0-.31.17l-.38.52a3.47,3.47,0,0,0,.41.33,2.54,2.54,0,0,0,.49.26,2.73,2.73,0,0,0,.57.19,2.76,2.76,0,0,0,.65.07,3.08,3.08,0,0,0,1.07-.18,2.55,2.55,0,0,0,.85-.53,2.37,2.37,0,0,0,.57-.81,2.69,2.69,0,0,0,.2-1.05,2.39,2.39,0,0,0-.15-.86,2,2,0,0,0-.45-.71,2.09,2.09,0,0,0-.73-.47,2.79,2.79,0,0,0-1-.17l-.43,0a4.46,4.46,0,0,0-.46.08Z"/><path class="cls-7" d="M222.65,62.35V58.6a1.45,1.45,0,0,1,.43-.36,1,1,0,0,1,.5-.14.76.76,0,0,1,.61.24,1.12,1.12,0,0,1,.21.75v3.26h1.24V59.09a1.18,1.18,0,0,1,.07-.43.77.77,0,0,1,.19-.3.73.73,0,0,1,.28-.19,1,1,0,0,1,.36-.07.83.83,0,0,1,.63.25,1.13,1.13,0,0,1,.21.74v3.26h1.24V59.09a2.64,2.64,0,0,0-.12-.83,1.72,1.72,0,0,0-.34-.61,1.59,1.59,0,0,0-.56-.38,2.18,2.18,0,0,0-.75-.13,2,2,0,0,0-.49.06,2,2,0,0,0-.46.17,1.57,1.57,0,0,0-.39.3,1.5,1.5,0,0,0-.3.43,1.57,1.57,0,0,0-.47-.69,1.17,1.17,0,0,0-.8-.27,1.77,1.77,0,0,0-.78.2,2.2,2.2,0,0,0-.32.21l-.28.28-.08-.38a.3.3,0,0,0-.31-.23h-.76v5.13Zm-2.06-4.49a2.47,2.47,0,0,0-.77-.53,2.64,2.64,0,0,0-1-.19,2.72,2.72,0,0,0-1.07.2,2.23,2.23,0,0,0-.78.56,2.35,2.35,0,0,0-.48.83,3.21,3.21,0,0,0-.16,1.05,3.25,3.25,0,0,0,.18,1.12,2.36,2.36,0,0,0,.5.83,2.08,2.08,0,0,0,.73.52,2.26,2.26,0,0,0,.9.18,3.27,3.27,0,0,0,.54,0,2.44,2.44,0,0,0,.53-.14,2.17,2.17,0,0,0,.5-.26,2.07,2.07,0,0,0,.44-.4l-.35-.45a.26.26,0,0,0-.23-.12.32.32,0,0,0-.2.08,2.39,2.39,0,0,0-.22.16,2.94,2.94,0,0,1-.31.16,1.52,1.52,0,0,1-.48.07,1.32,1.32,0,0,1-.53-.11,1.26,1.26,0,0,1-.4-.33,1.68,1.68,0,0,1-.25-.54,2.7,2.7,0,0,1-.09-.73,3.08,3.08,0,0,1,.08-.71,1.63,1.63,0,0,1,.25-.53,1,1,0,0,1,.4-.34,1.48,1.48,0,0,1,1-.06,1.69,1.69,0,0,1,.3.13l.21.13a.33.33,0,0,0,.19.06.22.22,0,0,0,.15,0l.11-.11Zm-6.73.1a1.73,1.73,0,0,0,.26-1,1.79,1.79,0,0,0-.16-.76,2,2,0,0,0-.47-.62,2.3,2.3,0,0,0-.72-.41,2.69,2.69,0,0,0-.92-.15,2.63,2.63,0,0,0-.91.15,2.3,2.3,0,0,0-.72.41,1.89,1.89,0,0,0-.47.62,1.8,1.8,0,0,0-.17.76,1.73,1.73,0,0,0,.27,1,1.59,1.59,0,0,0,.78.62,1.91,1.91,0,0,0-1,.66,1.84,1.84,0,0,0-.32,1.08,1.92,1.92,0,0,0,.19.87,1.87,1.87,0,0,0,.51.67,2.38,2.38,0,0,0,.79.42,3.58,3.58,0,0,0,2,0,2.48,2.48,0,0,0,.79-.42,1.87,1.87,0,0,0,.51-.67,2.05,2.05,0,0,0,.18-.87,1.83,1.83,0,0,0-.31-1.08,1.94,1.94,0,0,0-1-.66,1.61,1.61,0,0,0,.79-.62m-1.53-1.9a1,1,0,0,1,.33.23.94.94,0,0,1,.19.32,1.07,1.07,0,0,1,.07.39,1.86,1.86,0,0,1,0,.42,1,1,0,0,1-.18.36.9.9,0,0,1-.33.25,1.13,1.13,0,0,1-.51.1,1.06,1.06,0,0,1-.5-.1.76.76,0,0,1-.33-.25.87.87,0,0,1-.18-.36,1.86,1.86,0,0,1-.05-.42,1.32,1.32,0,0,1,.06-.39.83.83,0,0,1,.2-.32.81.81,0,0,1,.33-.23,1.13,1.13,0,0,1,.47-.09,1.17,1.17,0,0,1,.48.09m-1,5.32a1.17,1.17,0,0,1-.39-.24,1.18,1.18,0,0,1-.24-.37,1.4,1.4,0,0,1-.08-.47,1.19,1.19,0,0,1,.33-.9,1.31,1.31,0,0,1,.91-.3,1.3,1.3,0,0,1,.91.3,1.4,1.4,0,0,1,.25,1.37,1,1,0,0,1-.23.37,1.28,1.28,0,0,1-.39.24,1.49,1.49,0,0,1-.54.09,1.44,1.44,0,0,1-.53-.09m-4.25.59a.75.75,0,0,0,.15.24.78.78,0,0,0,.24.16,1,1,0,0,0,.3.05.94.94,0,0,0,.3-.05.74.74,0,0,0,.4-.4.73.73,0,0,0,.06-.3.72.72,0,0,0-.06-.29.74.74,0,0,0-.4-.4.73.73,0,0,0-.3-.06.8.8,0,0,0-.3.06.78.78,0,0,0-.24.16.75.75,0,0,0-.15.24.72.72,0,0,0-.06.29.73.73,0,0,0,.06.3m-5.83-6.85V56a.27.27,0,0,0,.09.2.24.24,0,0,0,.2.08H205a1.86,1.86,0,0,0-.21.28l-.19.31-2.79,5.52h.89a.68.68,0,0,0,.42-.12.89.89,0,0,0,.24-.3l2.74-5.64c0-.06.06-.15.1-.24a1.37,1.37,0,0,0,.05-.39v-.54Zm-2.39,6.31V55.11h-1L195.63,57l.39.53a.38.38,0,0,0,.09.09l.14,0a.48.48,0,0,0,.17,0,.56.56,0,0,0,.17-.09l1-.87c0,.18,0,.35,0,.51v4.22h-1.47v.92h4v-.92Zm-5.36-6.51H193a.65.65,0,0,0-.39.12.61.61,0,0,0-.24.32l-2.92,7.47h.52a.74.74,0,0,0,.39-.12.67.67,0,0,0,.27-.34Zm-9.36,2.53a.31.31,0,0,0-.32-.23h-.75v5.13h1.23V58.64a2.67,2.67,0,0,1,.53-.39,1.27,1.27,0,0,1,.6-.15.82.82,0,0,1,.66.26,1.13,1.13,0,0,1,.21.73v3.26h1.24V59.09a2.79,2.79,0,0,0-.11-.79,1.88,1.88,0,0,0-.33-.61,1.37,1.37,0,0,0-.55-.4,1.72,1.72,0,0,0-.74-.15,1.75,1.75,0,0,0-.48.06,1.65,1.65,0,0,0-.41.14,2.06,2.06,0,0,0-.37.23,4.09,4.09,0,0,0-.33.28Zm-2.23-2a.74.74,0,0,0-.17-.25.85.85,0,0,0-.25-.17.81.81,0,0,0-.31-.06.73.73,0,0,0-.3.06.81.81,0,0,0-.42.42.81.81,0,0,0-.06.31.73.73,0,0,0,.06.3.81.81,0,0,0,.17.24.74.74,0,0,0,.25.17.73.73,0,0,0,.3.06.81.81,0,0,0,.31-.06.85.85,0,0,0,.25-.17.81.81,0,0,0,.17-.24.6.6,0,0,0,.07-.3.67.67,0,0,0-.07-.31m-1.34,6.93h1.24V57.22h-1.24Zm-6.82-7.23V56a.27.27,0,0,0,.09.2.26.26,0,0,0,.2.08h3.46a1.86,1.86,0,0,0-.21.28l-.19.31-2.79,5.52h.89a.66.66,0,0,0,.42-.12.89.89,0,0,0,.24-.3l2.74-5.64a1.94,1.94,0,0,0,.1-.24,1.37,1.37,0,0,0,.05-.39v-.54Z"/><path class="cls-7" d="M222.55,39V35.21a1.31,1.31,0,0,1,.43-.36,1,1,0,0,1,.5-.14.76.76,0,0,1,.61.24,1.08,1.08,0,0,1,.21.75V39h1.24V35.7a1.18,1.18,0,0,1,.07-.43.89.89,0,0,1,.19-.31.84.84,0,0,1,.28-.18.86.86,0,0,1,.36-.07.83.83,0,0,1,.63.25,1.13,1.13,0,0,1,.21.74V39h1.24V35.7a2.64,2.64,0,0,0-.12-.83,1.72,1.72,0,0,0-.34-.61,1.59,1.59,0,0,0-.56-.38,2.18,2.18,0,0,0-.75-.13,2,2,0,0,0-.49.06,1.6,1.6,0,0,0-.46.17,1.52,1.52,0,0,0-.39.29,1.71,1.71,0,0,0-.3.44,1.57,1.57,0,0,0-.47-.69,1.17,1.17,0,0,0-.8-.27,1.86,1.86,0,0,0-.42,0,1.94,1.94,0,0,0-.36.15,2.2,2.2,0,0,0-.32.21l-.28.28-.08-.38a.3.3,0,0,0-.31-.23h-.76V39Zm-2.06-4.49a2.37,2.37,0,0,0-1.78-.72,2.72,2.72,0,0,0-1.07.2,2.34,2.34,0,0,0-.78.55,2.49,2.49,0,0,0-.48.84,3.21,3.21,0,0,0-.16,1,3.25,3.25,0,0,0,.18,1.12,2.36,2.36,0,0,0,.5.83,2.08,2.08,0,0,0,.73.52,2.26,2.26,0,0,0,.9.18,4.9,4.9,0,0,0,.54,0,3.18,3.18,0,0,0,.53-.14,2.65,2.65,0,0,0,.5-.26,2.07,2.07,0,0,0,.44-.4l-.35-.45a.26.26,0,0,0-.23-.12.37.37,0,0,0-.2.07l-.22.16a1.29,1.29,0,0,1-.31.16,1.26,1.26,0,0,1-.48.08,1.32,1.32,0,0,1-.53-.11,1.26,1.26,0,0,1-.4-.33,1.68,1.68,0,0,1-.25-.54,2.75,2.75,0,0,1-.09-.73,3,3,0,0,1,.08-.71,1.53,1.53,0,0,1,.25-.53,1,1,0,0,1,.4-.34,1.48,1.48,0,0,1,1-.06,1.69,1.69,0,0,1,.3.13l.21.13a.33.33,0,0,0,.19.06.3.3,0,0,0,.15,0l.11-.11Zm-8.59,3.34a2.32,2.32,0,0,0-.44,0A4.52,4.52,0,0,0,211,38l1.63-1.67c.2-.2.38-.39.56-.59a4.35,4.35,0,0,0,.46-.6,3,3,0,0,0,.32-.65,2.45,2.45,0,0,0,.11-.74,2.06,2.06,0,0,0-.16-.84,1.92,1.92,0,0,0-.46-.65,2.19,2.19,0,0,0-.71-.42,2.69,2.69,0,0,0-.92-.15,3.13,3.13,0,0,0-.89.13,2.12,2.12,0,0,0-.74.4,2,2,0,0,0-.54.65,2.62,2.62,0,0,0-.29.92l.65.11a.6.6,0,0,0,.39,0,.55.55,0,0,0,.22-.31,1.13,1.13,0,0,1,.39-.59,1.22,1.22,0,0,1,.34-.18,1.29,1.29,0,0,1,.4-.06,1.23,1.23,0,0,1,.44.07.94.94,0,0,1,.33.2.93.93,0,0,1,.21.33,1.35,1.35,0,0,1,.07.46,2,2,0,0,1-.07.55,2.5,2.5,0,0,1-.23.5,2.65,2.65,0,0,1-.36.51c-.14.17-.31.35-.49.53l-2.2,2.2a.76.76,0,0,0-.16.25.65.65,0,0,0-.06.26V39h5v-.74a.44.44,0,0,0-.11-.3.48.48,0,0,0-.32-.11Zm-4.93.77a.63.63,0,0,0,.39.39.8.8,0,0,0,.3.06A.73.73,0,0,0,208,39a.75.75,0,0,0,.24-.15.78.78,0,0,0,.16-.24.73.73,0,0,0,.06-.3.72.72,0,0,0-.06-.29.6.6,0,0,0-.16-.24.78.78,0,0,0-.24-.16.73.73,0,0,0-.3-.06.8.8,0,0,0-.3.06.78.78,0,0,0-.24.16A.58.58,0,0,0,207,38a.72.72,0,0,0-.06.29.73.73,0,0,0,.06.3m-4-5.73h2a.78.78,0,0,0,.56-.16.59.59,0,0,0,.16-.43v-.53H202.1l-.6,3.51.77.22a3.34,3.34,0,0,1,1.06-.19,1.41,1.41,0,0,1,1,.33,1.24,1.24,0,0,1,.34.93,2.21,2.21,0,0,1-.08.59,1.43,1.43,0,0,1-.26.47,1.29,1.29,0,0,1-.44.31,1.57,1.57,0,0,1-.6.11,1.71,1.71,0,0,1-.54-.08,2.16,2.16,0,0,1-.4-.18l-.3-.17a.41.41,0,0,0-.25-.08.36.36,0,0,0-.32.17l-.38.52a3.47,3.47,0,0,0,.41.33,2.62,2.62,0,0,0,.5.26,2.39,2.39,0,0,0,.57.19,2.67,2.67,0,0,0,.64.07,3.14,3.14,0,0,0,1.08-.18,2.65,2.65,0,0,0,.85-.53,2.22,2.22,0,0,0,.56-.81,2.52,2.52,0,0,0,.2-1.05,2.49,2.49,0,0,0-.15-.87,2.13,2.13,0,0,0-.44-.7,2.19,2.19,0,0,0-.73-.47,2.85,2.85,0,0,0-1-.17l-.42,0a4,4,0,0,0-.46.08ZM198.75,38V31.72h-1l-2.21,1.88.39.53a.24.24,0,0,0,.09.08.35.35,0,0,0,.14.06h.17l.17-.09,1-.87c0,.17,0,.35,0,.51V38h-1.47V39h4V38Zm-5.36-6.51h-.53a.71.71,0,0,0-.39.11.68.68,0,0,0-.24.33l-2.92,7.47h.52a.74.74,0,0,0,.39-.12.67.67,0,0,0,.27-.34ZM184,34.06a.31.31,0,0,0-.32-.23H183V39h1.23V35.25a2.32,2.32,0,0,1,.53-.39,1.27,1.27,0,0,1,.6-.15A.82.82,0,0,1,186,35a1.11,1.11,0,0,1,.21.73V39h1.24V35.7a2.79,2.79,0,0,0-.11-.79,1.88,1.88,0,0,0-.33-.61,1.5,1.5,0,0,0-.55-.41,1.88,1.88,0,0,0-.74-.14,2.28,2.28,0,0,0-.48,0,2.19,2.19,0,0,0-.41.15,2.77,2.77,0,0,0-.37.22l-.33.29Zm-2.23-2a.74.74,0,0,0-.17-.25.85.85,0,0,0-.25-.17.81.81,0,0,0-.31-.06.73.73,0,0,0-.3.06.81.81,0,0,0-.42.42.78.78,0,0,0-.06.31.72.72,0,0,0,.23.54.74.74,0,0,0,.25.17.73.73,0,0,0,.3.06.81.81,0,0,0,.31-.06.85.85,0,0,0,.25-.17.81.81,0,0,0,.17-.24.66.66,0,0,0,.07-.3.64.64,0,0,0-.07-.31M180.46,39h1.24V33.83h-1.24Zm-4.75-1a1,1,0,0,1-.4-.27,1,1,0,0,1-.24-.42,1.63,1.63,0,0,1-.09-.55,1.5,1.5,0,0,1,.1-.52,1.2,1.2,0,0,1,.67-.7,1.58,1.58,0,0,1,1.08,0,1.29,1.29,0,0,1,.42.26,1.17,1.17,0,0,1,.27.42,1.69,1.69,0,0,1,.09.56,1.36,1.36,0,0,1-.37.95,1.15,1.15,0,0,1-.43.28,1.33,1.33,0,0,1-.54.1,1.4,1.4,0,0,1-.56-.1m2.42-6.2H177a.8.8,0,0,0-.39.09.64.64,0,0,0-.27.2l-1.72,2.32a4.43,4.43,0,0,0-.64,1.11,2.89,2.89,0,0,0-.21,1,3.11,3.11,0,0,0,.17,1,2.26,2.26,0,0,0,.5.8,2.48,2.48,0,0,0,.78.52,2.87,2.87,0,0,0,1,.18,2.76,2.76,0,0,0,1.05-.19,2.31,2.31,0,0,0,.8-.52,2.23,2.23,0,0,0,.52-.77,2.51,2.51,0,0,0,0-1.89,2,2,0,0,0-.48-.68,1.88,1.88,0,0,0-.68-.41,2.4,2.4,0,0,0-.8-.13,2.87,2.87,0,0,0-.52,0,2.2,2.2,0,0,0-.45.17l.25-.31Z"/><path class="cls-7" d="M136.1,85V81.25a1.79,1.79,0,0,1,.43-.36,1,1,0,0,1,.51-.13.75.75,0,0,1,.6.23,1.12,1.12,0,0,1,.21.75V85h1.24V81.74a1.09,1.09,0,0,1,.07-.42.86.86,0,0,1,.19-.31.81.81,0,0,1,.29-.19,1,1,0,0,1,.35-.06.79.79,0,0,1,.63.24,1.13,1.13,0,0,1,.22.74V85h1.23V81.74a2.57,2.57,0,0,0-.12-.82,1.64,1.64,0,0,0-.34-.61,1.33,1.33,0,0,0-.55-.38,2.34,2.34,0,0,0-1.25-.08,1.74,1.74,0,0,0-.45.17,1.68,1.68,0,0,0-.4.3,1.55,1.55,0,0,0-.3.44,1.53,1.53,0,0,0-.47-.7,1.16,1.16,0,0,0-.79-.26,1.45,1.45,0,0,0-.43,0,1.42,1.42,0,0,0-.36.14,1.6,1.6,0,0,0-.31.22,2.37,2.37,0,0,0-.28.27l-.08-.38a.31.31,0,0,0-.32-.22h-.75V85Zm-2-4.5a2.4,2.4,0,0,0-.78-.53,2.64,2.64,0,0,0-1-.18,2.59,2.59,0,0,0-1.07.2,2.09,2.09,0,0,0-.78.55,2.35,2.35,0,0,0-.48.83,3.21,3.21,0,0,0-.16,1.05,3.25,3.25,0,0,0,.18,1.12,2.5,2.5,0,0,0,.5.84,2.25,2.25,0,0,0,1.63.69,3.27,3.27,0,0,0,.54,0,2.44,2.44,0,0,0,.53-.14,2.17,2.17,0,0,0,.5-.26,2.39,2.39,0,0,0,.45-.4l-.36-.45a.23.23,0,0,0-.22-.11.31.31,0,0,0-.21.07l-.22.16a1.49,1.49,0,0,1-.31.16,1.45,1.45,0,0,1-1,0,1.16,1.16,0,0,1-.4-.33,1.7,1.7,0,0,1-.26-.54,2.72,2.72,0,0,1-.08-.73,2.62,2.62,0,0,1,.08-.71,1.43,1.43,0,0,1,.24-.53,1,1,0,0,1,.41-.34,1.63,1.63,0,0,1,1-.06,1.42,1.42,0,0,1,.3.13l.22.13a.32.32,0,0,0,.18.06.21.21,0,0,0,.15,0,.57.57,0,0,0,.11-.11Zm-6.74.1a1.7,1.7,0,0,0,.27-1,1.81,1.81,0,0,0-.17-.77,1.89,1.89,0,0,0-.47-.62,2.3,2.3,0,0,0-.72-.41,3.06,3.06,0,0,0-1.83,0,2.3,2.3,0,0,0-.72.41,1.89,1.89,0,0,0-.47.62,1.8,1.8,0,0,0-.16.77,1.61,1.61,0,0,0,1,1.6,1.87,1.87,0,0,0-1,.65A1.84,1.84,0,0,0,122.8,83a2.05,2.05,0,0,0,.18.87,1.84,1.84,0,0,0,.51.66,2.4,2.4,0,0,0,.79.43,3.58,3.58,0,0,0,2,0,2.4,2.4,0,0,0,.79-.43,1.84,1.84,0,0,0,.51-.66,2.06,2.06,0,0,0,.19-.87,1.69,1.69,0,0,0-1.29-1.74,1.66,1.66,0,0,0,.78-.63m-1.53-1.9a1,1,0,0,1,.33.23.91.91,0,0,1,.2.33,1.23,1.23,0,0,1,.06.39,1.84,1.84,0,0,1-.05.41,1,1,0,0,1-.18.36.87.87,0,0,1-.33.26,1.24,1.24,0,0,1-.5.09,1.29,1.29,0,0,1-.51-.09.87.87,0,0,1-.33-.26,1,1,0,0,1-.18-.36,1.84,1.84,0,0,1-.05-.41,1.23,1.23,0,0,1,.06-.39.79.79,0,0,1,.2-.33,1,1,0,0,1,.33-.23,1.15,1.15,0,0,1,.48-.08,1.13,1.13,0,0,1,.47.08m-1,5.32a1.28,1.28,0,0,1-.39-.24,1,1,0,0,1-.23-.37,1.17,1.17,0,0,1-.08-.46,1.16,1.16,0,0,1,.33-.9,1.26,1.26,0,0,1,.91-.31,1.27,1.27,0,0,1,.91.31,1.16,1.16,0,0,1,.33.9,1.39,1.39,0,0,1-.08.46,1.18,1.18,0,0,1-.24.37,1.28,1.28,0,0,1-.39.24,1.44,1.44,0,0,1-.53.09,1.45,1.45,0,0,1-.54-.09m-4.25.59a.78.78,0,0,0,.16.24.6.6,0,0,0,.24.16.73.73,0,0,0,.3.06.72.72,0,0,0,.29-.06.78.78,0,0,0,.24-.16.81.81,0,0,0,.17-.24.72.72,0,0,0,.06-.29.73.73,0,0,0-.06-.3.81.81,0,0,0-.17-.24.78.78,0,0,0-.24-.16.72.72,0,0,0-.29-.06.73.73,0,0,0-.3.06.6.6,0,0,0-.24.16.78.78,0,0,0-.16.24.73.73,0,0,0-.06.3.72.72,0,0,0,.06.29m-5.82-6.84v.83a.26.26,0,0,0,.08.2.27.27,0,0,0,.2.09h3.46a1.94,1.94,0,0,0-.21.27c-.06.09-.12.2-.18.31L115.25,85h.9a.65.65,0,0,0,.41-.13,1,1,0,0,0,.24-.29L119.54,79a2.16,2.16,0,0,0,.1-.25,1.37,1.37,0,0,0,0-.39v-.53Zm-2.39,6.3V77.77h-1l-2.2,1.87.39.54a.36.36,0,0,0,.09.08l.13,0h.17a.38.38,0,0,0,.18-.09l1-.87c0,.18,0,.35,0,.52v4.21h-1.46V85h4v-.93Zm-5.37-6.5h-.53a.61.61,0,0,0-.38.11.62.62,0,0,0-.25.32l-2.92,7.47h.53a.79.79,0,0,0,.38-.11A.74.74,0,0,0,104,85ZM97,80.1a.29.29,0,0,0-.31-.22h-.76V85h1.24V81.3a2,2,0,0,1,.53-.4,1.21,1.21,0,0,1,.6-.14.8.8,0,0,1,.65.25,1.13,1.13,0,0,1,.22.73V85h1.23V81.74a2.79,2.79,0,0,0-.11-.79,1.88,1.88,0,0,0-.33-.61,1.52,1.52,0,0,0-.54-.4,1.79,1.79,0,0,0-.75-.14,1.86,1.86,0,0,0-.48,0,1.8,1.8,0,0,0-.41.14,2.06,2.06,0,0,0-.37.23,2.89,2.89,0,0,0-.32.29Zm-2.22-2a.76.76,0,0,0-.18-.25.74.74,0,0,0-.25-.17.81.81,0,0,0-.31-.06.73.73,0,0,0-.3.06.74.74,0,0,0-.25.17.92.92,0,0,0-.17.25.81.81,0,0,0-.06.31.73.73,0,0,0,.06.3,1.1,1.1,0,0,0,.17.25.72.72,0,0,0,.25.16.73.73,0,0,0,.3.07.82.82,0,0,0,.31-.07.72.72,0,0,0,.25-.16.88.88,0,0,0,.18-.25.73.73,0,0,0,.06-.3.81.81,0,0,0-.06-.31M93.41,85h1.24V79.88H93.41ZM86.2,77.78v.83a.26.26,0,0,0,.08.2.27.27,0,0,0,.2.09h3.46a1.94,1.94,0,0,0-.21.27c-.06.09-.12.2-.18.31L86.75,85h.9a.65.65,0,0,0,.41-.13,1,1,0,0,0,.24-.29L91,79a2.16,2.16,0,0,0,.1-.25,1.37,1.37,0,0,0,0-.39v-.53Z"/><path class="cls-7" d="M222.67,85V81.25a1.83,1.83,0,0,1,.44-.36,1,1,0,0,1,.5-.13.76.76,0,0,1,.61.23,1.18,1.18,0,0,1,.2.75V85h1.24V81.74a1.32,1.32,0,0,1,.07-.42.76.76,0,0,1,.2-.31.77.77,0,0,1,.28-.19,1,1,0,0,1,.35-.06.79.79,0,0,1,.63.24,1.07,1.07,0,0,1,.22.74V85h1.23V81.74a2.91,2.91,0,0,0-.11-.82,1.66,1.66,0,0,0-.35-.61,1.33,1.33,0,0,0-.55-.38,2,2,0,0,0-.76-.13,2,2,0,0,0-.48,0,1.68,1.68,0,0,0-.46.17,1.9,1.9,0,0,0-.4.3,1.55,1.55,0,0,0-.3.44,1.59,1.59,0,0,0-.46-.7,1.19,1.19,0,0,0-.8-.26,1.38,1.38,0,0,0-.42,0,1.42,1.42,0,0,0-.36.14,1.4,1.4,0,0,0-.32.22,2.37,2.37,0,0,0-.28.27l-.08-.38a.31.31,0,0,0-.32-.22h-.75V85Zm-2-4.5a2.4,2.4,0,0,0-.78-.53,2.94,2.94,0,0,0-2.08,0,2.09,2.09,0,0,0-.78.55,2.19,2.19,0,0,0-.47.83,3.26,3.26,0,0,0-.17,1.05,3,3,0,0,0,.19,1.12,2.48,2.48,0,0,0,.49.84,2.09,2.09,0,0,0,.74.51,2.25,2.25,0,0,0,.89.18,3.48,3.48,0,0,0,.55,0,2.6,2.6,0,0,0,.53-.14,2.43,2.43,0,0,0,.94-.66l-.36-.45a.23.23,0,0,0-.22-.11.31.31,0,0,0-.21.07l-.22.16a1.39,1.39,0,0,1-.3.16,1.32,1.32,0,0,1-.48.07,1.29,1.29,0,0,1-.53-.11,1.16,1.16,0,0,1-.4-.33,1.49,1.49,0,0,1-.25-.54,2.7,2.7,0,0,1-.09-.73,3.08,3.08,0,0,1,.08-.71,1.51,1.51,0,0,1,.24-.53,1.12,1.12,0,0,1,.41-.34,1.41,1.41,0,0,1,.57-.11,1.75,1.75,0,0,1,.43.05l.29.13.22.13a.32.32,0,0,0,.18.06.25.25,0,0,0,.16,0,.55.55,0,0,0,.1-.11Zm-10.45-.6a.67.67,0,0,0,.39,0,.56.56,0,0,0,.22-.3,1,1,0,0,1,.15-.33,1.27,1.27,0,0,1,.25-.27,1.14,1.14,0,0,1,.33-.17,1.29,1.29,0,0,1,.4-.06,1,1,0,0,1,.76.26,1,1,0,0,1,.29.78,1.27,1.27,0,0,1-.07.44.81.81,0,0,1-.25.34,1.34,1.34,0,0,1-.48.22,3.66,3.66,0,0,1-.75.09v.88a3.51,3.51,0,0,1,.88.08,1.37,1.37,0,0,1,.5.24.7.7,0,0,1,.23.36,1.74,1.74,0,0,1,0,.47,1.18,1.18,0,0,1-.07.41,1.24,1.24,0,0,1-.24.37,1,1,0,0,1-.39.26,1.35,1.35,0,0,1-.55.11,1.14,1.14,0,0,1-.48-.09,1.07,1.07,0,0,1-.36-.21,1.42,1.42,0,0,1-.25-.3,3.12,3.12,0,0,1-.2-.35.4.4,0,0,0-.27-.2.67.67,0,0,0-.41,0l-.54.22a4.13,4.13,0,0,0,.36.82,2.14,2.14,0,0,0,.51.6,2,2,0,0,0,.7.37,3.36,3.36,0,0,0,1,.13,3,3,0,0,0,.95-.15,2.42,2.42,0,0,0,.79-.43,1.93,1.93,0,0,0,.54-.69,2.26,2.26,0,0,0,.2-1,1.7,1.7,0,0,0-.32-1,1.92,1.92,0,0,0-1-.63,2.12,2.12,0,0,0,.48-.22,1.15,1.15,0,0,0,.36-.33,1.65,1.65,0,0,0,.23-.46,2.27,2.27,0,0,0,.07-.61,1.77,1.77,0,0,0-.15-.73,1.73,1.73,0,0,0-.44-.6,2.16,2.16,0,0,0-.68-.39,2.6,2.6,0,0,0-.91-.14,2.82,2.82,0,0,0-.89.13,2.27,2.27,0,0,0-.74.39,2.17,2.17,0,0,0-.54.66,2.7,2.7,0,0,0-.29.91Zm-3.08,4.71a.67.67,0,0,0,.16.24.78.78,0,0,0,.24.16.73.73,0,0,0,.3.06.77.77,0,0,0,.3-.06.78.78,0,0,0,.24-.16.84.84,0,0,0,.16-.24.72.72,0,0,0,.06-.29.73.73,0,0,0-.06-.3,1,1,0,0,0-.16-.24.78.78,0,0,0-.24-.16.77.77,0,0,0-.3-.06.73.73,0,0,0-.3.06.74.74,0,0,0-.4.4.73.73,0,0,0-.06.3.72.72,0,0,0,.06.29M205,82.69a2.67,2.67,0,0,1-.3.82,1.15,1.15,0,0,1-.45.43,1.17,1.17,0,0,1-.52.12,1.06,1.06,0,0,1-.95-.55,3,3,0,0,1-.3-.82,7.74,7.74,0,0,1,0-2.6,3,3,0,0,1,.3-.82,1.28,1.28,0,0,1,.44-.43,1.19,1.19,0,0,1,.51-.12,1.17,1.17,0,0,1,.52.12,1.22,1.22,0,0,1,.45.43,2.67,2.67,0,0,1,.3.82,7.1,7.1,0,0,1,0,2.6m1.19-2.94a3.17,3.17,0,0,0-.56-1.15,2.26,2.26,0,0,0-.84-.68,2.52,2.52,0,0,0-1.06-.22,2.43,2.43,0,0,0-1,.22,2.18,2.18,0,0,0-.84.68,3.34,3.34,0,0,0-.56,1.15,6.82,6.82,0,0,0,0,3.28,3.48,3.48,0,0,0,.56,1.16,2.16,2.16,0,0,0,.84.67,2.43,2.43,0,0,0,1,.23,2.52,2.52,0,0,0,1.06-.23,2.23,2.23,0,0,0,.84-.67,3.3,3.3,0,0,0,.56-1.16,6.82,6.82,0,0,0,0-3.28m-8.1,4.11-.44,0a4.52,4.52,0,0,0-.47.11l1.63-1.66c.2-.2.38-.4.56-.59a4.8,4.8,0,0,0,.46-.6,3.56,3.56,0,0,0,.32-.65,2.55,2.55,0,0,0,.11-.74,2.11,2.11,0,0,0-.16-.85,1.88,1.88,0,0,0-.46-.65,2.09,2.09,0,0,0-.71-.42,3,3,0,0,0-.92-.14,2.82,2.82,0,0,0-.89.13,2.27,2.27,0,0,0-.74.39,2.17,2.17,0,0,0-.54.66,2.7,2.7,0,0,0-.29.91l.65.12a.66.66,0,0,0,.39,0,.56.56,0,0,0,.22-.3,1,1,0,0,1,.15-.33,1.55,1.55,0,0,1,.24-.27,1.2,1.2,0,0,1,.34-.17,1.29,1.29,0,0,1,.4-.06,1.51,1.51,0,0,1,.44.06,1.15,1.15,0,0,1,.33.21.93.93,0,0,1,.21.33,1.27,1.27,0,0,1,.07.46,1.9,1.9,0,0,1-.07.54,2.87,2.87,0,0,1-.23.51,3,3,0,0,1-.36.5c-.14.17-.31.35-.49.54l-2.2,2.2a.63.63,0,0,0-.16.24.7.7,0,0,0-.06.27V85h5v-.74a.41.41,0,0,0-.11-.3.43.43,0,0,0-.32-.11Zm-4.54-6.28H193a.63.63,0,0,0-.38.11.68.68,0,0,0-.25.32l-2.92,7.47H190a.76.76,0,0,0,.38-.11.63.63,0,0,0,.27-.35Zm-9.36,2.52a.29.29,0,0,0-.31-.22h-.76V85h1.24V81.3a2.17,2.17,0,0,1,.53-.4,1.26,1.26,0,0,1,.6-.14.8.8,0,0,1,.65.25,1.1,1.1,0,0,1,.22.73V85h1.23V81.74a2.48,2.48,0,0,0-.11-.79,1.64,1.64,0,0,0-.33-.61,1.37,1.37,0,0,0-.54-.4,1.79,1.79,0,0,0-.75-.14,1.86,1.86,0,0,0-.48,0,2,2,0,0,0-.41.14,2.21,2.21,0,0,0-.36.23,2.28,2.28,0,0,0-.33.29Zm-2.22-2a.74.74,0,0,0-.17-.25,1,1,0,0,0-.26-.17.78.78,0,0,0-.31-.06.8.8,0,0,0-.3.06,1.1,1.1,0,0,0-.25.17.72.72,0,0,0-.16.25.82.82,0,0,0-.07.31.73.73,0,0,0,.07.3.69.69,0,0,0,.41.41.66.66,0,0,0,.3.07.64.64,0,0,0,.31-.07.76.76,0,0,0,.26-.16.85.85,0,0,0,.17-.25.73.73,0,0,0,.06-.3.81.81,0,0,0-.06-.31M180.58,85h1.24V79.88h-1.24Zm-2.37-4.4a1.7,1.7,0,0,0,.26-1,1.8,1.8,0,0,0-.16-.77,1.89,1.89,0,0,0-.47-.62,2.3,2.3,0,0,0-.72-.41,3.06,3.06,0,0,0-1.83,0,2.3,2.3,0,0,0-.72.41,1.89,1.89,0,0,0-.47.62,1.81,1.81,0,0,0-.17.77,1.7,1.7,0,0,0,.27,1,1.66,1.66,0,0,0,.78.63A1.69,1.69,0,0,0,173.69,83a2.06,2.06,0,0,0,.19.87,1.84,1.84,0,0,0,.51.66,2.4,2.4,0,0,0,.79.43,3.58,3.58,0,0,0,2,0,2.4,2.4,0,0,0,.79-.43,1.84,1.84,0,0,0,.51-.66,2.05,2.05,0,0,0,.18-.87,1.84,1.84,0,0,0-.31-1.09,1.87,1.87,0,0,0-1-.65,1.69,1.69,0,0,0,.79-.63m-1.53-1.9a1,1,0,0,1,.33.23.78.78,0,0,1,.19.33,1,1,0,0,1,.07.39,1.84,1.84,0,0,1-.05.41,1,1,0,0,1-.18.36.87.87,0,0,1-.33.26,1.29,1.29,0,0,1-.51.09,1.24,1.24,0,0,1-.5-.09.87.87,0,0,1-.33-.26,1,1,0,0,1-.18-.36,1.84,1.84,0,0,1-.05-.41,1.23,1.23,0,0,1,.06-.39.79.79,0,0,1,.2-.33,1,1,0,0,1,.33-.23,1.13,1.13,0,0,1,.47-.08,1.15,1.15,0,0,1,.48.08m-1,5.32a1.11,1.11,0,0,1-.39-.24,1.18,1.18,0,0,1-.24-.37A1.39,1.39,0,0,1,175,83a1.16,1.16,0,0,1,.33-.9,1.27,1.27,0,0,1,.91-.31,1.26,1.26,0,0,1,.91.31,1.16,1.16,0,0,1,.33.9,1.17,1.17,0,0,1-.08.46,1,1,0,0,1-.23.37,1.11,1.11,0,0,1-.39.24,1.45,1.45,0,0,1-.54.09,1.44,1.44,0,0,1-.53-.09"/><path class="cls-7" d="M136,109.13v-3.75a1.63,1.63,0,0,1,.43-.37,1.09,1.09,0,0,1,.5-.13.76.76,0,0,1,.61.24,1.08,1.08,0,0,1,.21.75v3.26H139v-3.26a1.18,1.18,0,0,1,.07-.43,1.08,1.08,0,0,1,.19-.31,1,1,0,0,1,.64-.25.77.77,0,0,1,.63.25,1.11,1.11,0,0,1,.21.74v3.26H142v-3.26a2.64,2.64,0,0,0-.12-.83,1.72,1.72,0,0,0-.34-.61,1.59,1.59,0,0,0-.56-.38,2.18,2.18,0,0,0-.75-.13,2.05,2.05,0,0,0-.49.06,1.6,1.6,0,0,0-.46.17,1.52,1.52,0,0,0-.39.29,1.71,1.71,0,0,0-.3.44,1.58,1.58,0,0,0-.47-.7,1.22,1.22,0,0,0-.8-.26,1.86,1.86,0,0,0-.42,0,1.94,1.94,0,0,0-.36.15,1.69,1.69,0,0,0-.31.21,3.83,3.83,0,0,0-.29.28l-.08-.38a.3.3,0,0,0-.31-.23h-.76v5.13ZM134,104.64a2.37,2.37,0,0,0-1.78-.72,2.76,2.76,0,0,0-1.07.2,2.34,2.34,0,0,0-.78.55,2.49,2.49,0,0,0-.48.84,3.21,3.21,0,0,0-.16,1,3.25,3.25,0,0,0,.18,1.12,2.36,2.36,0,0,0,.5.83,2.08,2.08,0,0,0,.73.52,2.26,2.26,0,0,0,.9.18,4.9,4.9,0,0,0,.54,0,3.18,3.18,0,0,0,.53-.14,2.65,2.65,0,0,0,.5-.26,2.07,2.07,0,0,0,.44-.4l-.35-.45a.26.26,0,0,0-.23-.12.37.37,0,0,0-.2.07L133,108a1.13,1.13,0,0,1-.31.16,1.26,1.26,0,0,1-.48.08,1.18,1.18,0,0,1-.53-.12,1,1,0,0,1-.4-.33,1.53,1.53,0,0,1-.25-.53,2.75,2.75,0,0,1-.09-.73,3,3,0,0,1,.08-.71,1.53,1.53,0,0,1,.25-.53,1,1,0,0,1,.4-.34,1.48,1.48,0,0,1,1-.06,1.42,1.42,0,0,1,.3.13l.21.13a.35.35,0,0,0,.19.06.27.27,0,0,0,.15,0l.11-.11ZM123.5,104a.6.6,0,0,0,.39,0,.51.51,0,0,0,.22-.31,1.66,1.66,0,0,1,.15-.33,1,1,0,0,1,.25-.26,1.32,1.32,0,0,1,.33-.18,1.35,1.35,0,0,1,.41-.06,1.05,1.05,0,0,1,.76.27,1,1,0,0,1,.28.77,1.23,1.23,0,0,1-.07.44.69.69,0,0,1-.24.34,1.34,1.34,0,0,1-.48.23,3.16,3.16,0,0,1-.76.08v.88a3.44,3.44,0,0,1,.88.09,1.11,1.11,0,0,1,.5.23.64.64,0,0,1,.23.36,1.8,1.8,0,0,1,.06.48,1.14,1.14,0,0,1-.08.4,1.1,1.1,0,0,1-.23.37,1.28,1.28,0,0,1-.4.27,1.32,1.32,0,0,1-.55.1,1.42,1.42,0,0,1-.48-.08,1.38,1.38,0,0,1-.35-.22,1.08,1.08,0,0,1-.26-.3l-.2-.34a.37.37,0,0,0-.27-.21.72.72,0,0,0-.4,0l-.55.23a4.13,4.13,0,0,0,.36.82,2.46,2.46,0,0,0,.51.6,2.28,2.28,0,0,0,.71.37,3.38,3.38,0,0,0,1,.12,3.31,3.31,0,0,0,1-.14,2.37,2.37,0,0,0,.78-.43,2,2,0,0,0,.54-.7,2,2,0,0,0,.2-1,1.65,1.65,0,0,0-.32-1.06,1.8,1.8,0,0,0-1-.62,2.22,2.22,0,0,0,.49-.23,1.42,1.42,0,0,0,.36-.33,1.31,1.31,0,0,0,.22-.46,2.13,2.13,0,0,0,.08-.6,1.81,1.81,0,0,0-.15-.74,1.94,1.94,0,0,0-.44-.59,2.12,2.12,0,0,0-.69-.4,2.83,2.83,0,0,0-.9-.14,3.26,3.26,0,0,0-.9.13,2.21,2.21,0,0,0-.74.4,2.31,2.31,0,0,0-.54.65,2.84,2.84,0,0,0-.29.92Zm-3.07,4.72a.63.63,0,0,0,.39.39.8.8,0,0,0,.3.06.73.73,0,0,0,.3-.06.75.75,0,0,0,.24-.15.78.78,0,0,0,.16-.24.73.73,0,0,0,.06-.3.72.72,0,0,0-.06-.29.6.6,0,0,0-.16-.24.78.78,0,0,0-.24-.16.73.73,0,0,0-.3-.06.8.8,0,0,0-.3.06.78.78,0,0,0-.24.16.58.58,0,0,0-.15.24.72.72,0,0,0-.06.29.73.73,0,0,0,.06.3m-2.13-1.93a2.76,2.76,0,0,1-.31.82,1.09,1.09,0,0,1-.44.42,1.08,1.08,0,0,1-.52.13,1,1,0,0,1-.51-.13,1.09,1.09,0,0,1-.44-.42,2.52,2.52,0,0,1-.3-.82,5.93,5.93,0,0,1-.12-1.3,5.8,5.8,0,0,1,.12-1.3,2.35,2.35,0,0,1,.3-.82,1.06,1.06,0,0,1,.44-.43,1.13,1.13,0,0,1,.51-.12,1.2,1.2,0,0,1,.52.12,1.06,1.06,0,0,1,.44.43,2.56,2.56,0,0,1,.31.82,5.88,5.88,0,0,1,.11,1.3,6,6,0,0,1-.11,1.3m1.19-2.95a3.74,3.74,0,0,0-.56-1.15,2.31,2.31,0,0,0-.85-.68,2.62,2.62,0,0,0-2.1,0,2.36,2.36,0,0,0-.84.68,3.52,3.52,0,0,0-.55,1.15,6.87,6.87,0,0,0,0,3.29,3.42,3.42,0,0,0,.55,1.15,2.26,2.26,0,0,0,.84.68,2.62,2.62,0,0,0,2.1,0,2.21,2.21,0,0,0,.85-.68,3.63,3.63,0,0,0,.56-1.15,6.87,6.87,0,0,0,0-3.29m-8.1,4.11a2.25,2.25,0,0,0-.44,0,2.66,2.66,0,0,0-.47.11l1.63-1.67c.19-.2.38-.39.55-.59a4.43,4.43,0,0,0,.47-.6,3,3,0,0,0,.31-.65,2.17,2.17,0,0,0,.12-.74,2.07,2.07,0,0,0-.17-.84,1.79,1.79,0,0,0-.46-.65,2,2,0,0,0-.71-.42,2.63,2.63,0,0,0-.91-.15,3.26,3.26,0,0,0-.9.13,2.21,2.21,0,0,0-.74.4,2.31,2.31,0,0,0-.54.65,2.84,2.84,0,0,0-.29.92l.65.11a.6.6,0,0,0,.39,0,.51.51,0,0,0,.22-.31,1.66,1.66,0,0,1,.15-.33,1,1,0,0,1,.25-.26,1.32,1.32,0,0,1,.33-.18,1.35,1.35,0,0,1,.41-.06,1.18,1.18,0,0,1,.43.07.79.79,0,0,1,.33.2.93.93,0,0,1,.21.33,1.34,1.34,0,0,1,.08.46,2.12,2.12,0,0,1-.3,1,4,4,0,0,1-.36.51c-.15.17-.31.35-.5.53l-2.19,2.2a.79.79,0,0,0-.17.25.85.85,0,0,0,0,.26v.41h5v-.74a.41.41,0,0,0-.12-.3.46.46,0,0,0-.32-.11Zm-4.54-6.28h-.53a.71.71,0,0,0-.39.11.68.68,0,0,0-.24.33l-2.92,7.47h.52a.74.74,0,0,0,.39-.12.67.67,0,0,0,.27-.34Zm-10,2.53a.31.31,0,0,0-.32-.23h-.75v5.13h1.23v-3.71a2.32,2.32,0,0,1,.53-.39,1.27,1.27,0,0,1,.6-.15.81.81,0,0,1,.66.26,1.11,1.11,0,0,1,.21.73v3.26h1.24v-3.26a2.79,2.79,0,0,0-.11-.79,2,2,0,0,0-.33-.62,1.59,1.59,0,0,0-.55-.4,1.88,1.88,0,0,0-.74-.14,2.44,2.44,0,0,0-.48,0,2.48,2.48,0,0,0-.41.15,2.77,2.77,0,0,0-.37.22l-.33.29Zm-2.23-2a.81.81,0,0,0-.42-.42.81.81,0,0,0-.31-.06.73.73,0,0,0-.3.06.81.81,0,0,0-.42.42.78.78,0,0,0-.06.31.72.72,0,0,0,.23.54.74.74,0,0,0,.25.17.73.73,0,0,0,.3.06.81.81,0,0,0,.31-.06.74.74,0,0,0,.25-.17.81.81,0,0,0,.17-.24.66.66,0,0,0,.07-.3.64.64,0,0,0-.07-.31m-1.34,6.93h1.24V104H93.32Zm-2.57-4.39a1.81,1.81,0,0,0,.26-1,1.76,1.76,0,0,0-.17-.76,1.79,1.79,0,0,0-.47-.62,2.07,2.07,0,0,0-.71-.41,2.9,2.9,0,0,0-1.84,0,2.12,2.12,0,0,0-.72.41,1.87,1.87,0,0,0-.63,1.38,1.81,1.81,0,0,0,.26,1,1.66,1.66,0,0,0,.79.62,1.88,1.88,0,0,0-1,.66,1.81,1.81,0,0,0-.31,1.08,2.05,2.05,0,0,0,.18.87,2,2,0,0,0,.51.67,2.43,2.43,0,0,0,.8.42,3.54,3.54,0,0,0,2,0,2.38,2.38,0,0,0,.79-.42,2,2,0,0,0,.52-.67,2.05,2.05,0,0,0,.18-.87,1.82,1.82,0,0,0-.32-1.08,1.85,1.85,0,0,0-1-.66,1.66,1.66,0,0,0,.79-.62m-1.54-1.9a.8.8,0,0,1,.33.22.94.94,0,0,1,.2.33,1.32,1.32,0,0,1,.06.39,1.47,1.47,0,0,1,0,.42.87.87,0,0,1-.18.36.85.85,0,0,1-.33.25,1.06,1.06,0,0,1-.5.1,1.13,1.13,0,0,1-.51-.1,1,1,0,0,1-.33-.25,1,1,0,0,1-.17-.36,1.47,1.47,0,0,1-.06-.42,1.34,1.34,0,0,1,.07-.39.92.92,0,0,1,.19-.33,1,1,0,0,1,.33-.22,1.21,1.21,0,0,1,.48-.09,1.13,1.13,0,0,1,.47.09m-1,5.32a1.12,1.12,0,0,1-.38-.24,1,1,0,0,1-.24-.37,1.45,1.45,0,0,1-.08-.47,1.19,1.19,0,0,1,.33-.9,1.53,1.53,0,0,1,1.82,0,1.19,1.19,0,0,1,.33.9,1.45,1.45,0,0,1-.08.47,1,1,0,0,1-.24.37,1.08,1.08,0,0,1-.39.24,1.44,1.44,0,0,1-.53.09,1.53,1.53,0,0,1-.54-.09"/><path class="cls-7" d="M222.58,109.13v-3.75A1.63,1.63,0,0,1,223,105a1.14,1.14,0,0,1,.51-.13.74.74,0,0,1,.6.24,1.08,1.08,0,0,1,.21.75v3.26h1.24v-3.26a1.18,1.18,0,0,1,.07-.43,1.08,1.08,0,0,1,.19-.31.88.88,0,0,1,.29-.18.81.81,0,0,1,.35-.07.77.77,0,0,1,.63.25,1.11,1.11,0,0,1,.22.74v3.26h1.23v-3.26a2.64,2.64,0,0,0-.12-.83,1.58,1.58,0,0,0-.34-.61,1.55,1.55,0,0,0-.55-.38,2.24,2.24,0,0,0-.76-.13,2.12,2.12,0,0,0-.49.06,1.44,1.44,0,0,0-.45.17,1.41,1.41,0,0,0-.4.29,1.71,1.71,0,0,0-.3.44,1.58,1.58,0,0,0-.47-.7,1.19,1.19,0,0,0-.79-.26,1.88,1.88,0,0,0-.43,0l-.36.15a2.11,2.11,0,0,0-.31.21l-.28.28-.08-.38a.31.31,0,0,0-.32-.23h-.75v5.13Zm-2.05-4.49a2.4,2.4,0,0,0-.78-.53,2.46,2.46,0,0,0-1-.19,2.76,2.76,0,0,0-1.07.2,2.34,2.34,0,0,0-.78.55,2.49,2.49,0,0,0-.48.84,3.5,3.5,0,0,0-.16,1,3.25,3.25,0,0,0,.18,1.12,2.52,2.52,0,0,0,.5.83,2.12,2.12,0,0,0,.74.52,2.21,2.21,0,0,0,.89.18,4.9,4.9,0,0,0,.54,0,2.94,2.94,0,0,0,.53-.14,2.36,2.36,0,0,0,1-.66l-.36-.45a.24.24,0,0,0-.22-.12.38.38,0,0,0-.21.07l-.22.16a1,1,0,0,1-.31.16,1.24,1.24,0,0,1-.47.08,1.12,1.12,0,0,1-.53-.12,1,1,0,0,1-.4-.33,1.54,1.54,0,0,1-.26-.53,3.26,3.26,0,0,1-.08-.73,2.57,2.57,0,0,1,.08-.71,1.36,1.36,0,0,1,.24-.53,1,1,0,0,1,.41-.34,1.26,1.26,0,0,1,.57-.12,1.25,1.25,0,0,1,.42.06,1.42,1.42,0,0,1,.3.13l.22.13a.32.32,0,0,0,.18.06.27.27,0,0,0,.15,0l.11-.11Zm-6.74.1a1.73,1.73,0,0,0,.27-1,1.76,1.76,0,0,0-.17-.76,1.79,1.79,0,0,0-.47-.62,2.12,2.12,0,0,0-.72-.41,2.63,2.63,0,0,0-.91-.15,2.69,2.69,0,0,0-.92.15,2.12,2.12,0,0,0-.72.41,1.92,1.92,0,0,0-.47.62,1.76,1.76,0,0,0-.16.76,1.73,1.73,0,0,0,.26,1,1.61,1.61,0,0,0,.79.62,1.88,1.88,0,0,0-1,.66,1.81,1.81,0,0,0-.31,1.08,2.05,2.05,0,0,0,.18.87,2,2,0,0,0,.51.67,2.48,2.48,0,0,0,.79.42,3.58,3.58,0,0,0,2.05,0,2.38,2.38,0,0,0,.79-.42,2,2,0,0,0,.51-.67,1.92,1.92,0,0,0,.19-.87A1.82,1.82,0,0,0,214,106a1.85,1.85,0,0,0-1-.66,1.59,1.59,0,0,0,.78-.62m-1.53-1.9a1,1,0,0,1,.33.22,1.12,1.12,0,0,1,.2.33,1.32,1.32,0,0,1,.06.39,1.93,1.93,0,0,1,0,.42,1,1,0,0,1-.18.36.85.85,0,0,1-.33.25,1.09,1.09,0,0,1-.5.1,1.13,1.13,0,0,1-.51-.1.85.85,0,0,1-.33-.25,1.22,1.22,0,0,1-.18-.36,1.93,1.93,0,0,1-.05-.42,1.32,1.32,0,0,1,.06-.39,1.12,1.12,0,0,1,.2-.33,1,1,0,0,1,.33-.22,1.17,1.17,0,0,1,.48-.09,1.13,1.13,0,0,1,.47.09m-1,5.32a1.28,1.28,0,0,1-.39-.24,1.1,1.1,0,0,1-.23-.37,1.22,1.22,0,0,1-.08-.47,1.19,1.19,0,0,1,.33-.9,1.3,1.3,0,0,1,.91-.3,1.31,1.31,0,0,1,.91.3,1.19,1.19,0,0,1,.33.9,1.45,1.45,0,0,1-.08.47,1.31,1.31,0,0,1-.24.37,1.28,1.28,0,0,1-.39.24,1.44,1.44,0,0,1-.53.09,1.45,1.45,0,0,1-.54-.09m-4.25.59a.78.78,0,0,0,.16.24.58.58,0,0,0,.24.15.73.73,0,0,0,.3.06.72.72,0,0,0,.29-.06.58.58,0,0,0,.24-.15.81.81,0,0,0,.17-.24.73.73,0,0,0,.06-.3.72.72,0,0,0-.06-.29.61.61,0,0,0-.17-.24.6.6,0,0,0-.24-.16.72.72,0,0,0-.29-.06.73.73,0,0,0-.3.06.74.74,0,0,0-.4.4.72.72,0,0,0-.06.29.73.73,0,0,0,.06.3m-3.24-.77a2.25,2.25,0,0,0-.44,0,2.66,2.66,0,0,0-.47.11l1.63-1.67c.2-.2.38-.39.56-.59a4.35,4.35,0,0,0,.46-.6,2.59,2.59,0,0,0,.31-.65,2.17,2.17,0,0,0,.12-.74,2.06,2.06,0,0,0-.16-.84,1.92,1.92,0,0,0-.46-.65,2.19,2.19,0,0,0-.71-.42,2.69,2.69,0,0,0-.92-.15,3.26,3.26,0,0,0-.9.13,2.31,2.31,0,0,0-.74.4,2.13,2.13,0,0,0-.53.65,2.62,2.62,0,0,0-.29.92l.65.11a.6.6,0,0,0,.39,0,.55.55,0,0,0,.22-.31,1.13,1.13,0,0,1,.39-.59,1.32,1.32,0,0,1,.33-.18,1.4,1.4,0,0,1,.41-.06,1.14,1.14,0,0,1,.43.07.79.79,0,0,1,.33.2.83.83,0,0,1,.22.33,1.35,1.35,0,0,1,.07.46,1.61,1.61,0,0,1-.08.54,1.92,1.92,0,0,1-.22.51,3.18,3.18,0,0,1-.36.51c-.15.17-.31.35-.49.53l-2.2,2.2a1,1,0,0,0-.17.25.85.85,0,0,0,0,.26v.41h5v-.74a.41.41,0,0,0-.12-.3.43.43,0,0,0-.31-.11Zm-5.8,0a2.25,2.25,0,0,0-.44,0,2.66,2.66,0,0,0-.47.11l1.63-1.67c.2-.2.38-.39.56-.59a4.35,4.35,0,0,0,.46-.6,2.59,2.59,0,0,0,.31-.65,2.17,2.17,0,0,0,.12-.74A2.06,2.06,0,0,0,200,103a1.92,1.92,0,0,0-.46-.65,2.19,2.19,0,0,0-.71-.42,2.69,2.69,0,0,0-.92-.15,3.26,3.26,0,0,0-.9.13,2.31,2.31,0,0,0-.74.4,2.13,2.13,0,0,0-.53.65,2.62,2.62,0,0,0-.29.92l.65.11a.6.6,0,0,0,.39,0,.55.55,0,0,0,.22-.31,1.13,1.13,0,0,1,.39-.59,1.32,1.32,0,0,1,.33-.18,1.4,1.4,0,0,1,.41-.06,1.14,1.14,0,0,1,.43.07.79.79,0,0,1,.33.2.83.83,0,0,1,.22.33,1.35,1.35,0,0,1,.07.46,1.61,1.61,0,0,1-.08.54,1.92,1.92,0,0,1-.22.51,3.18,3.18,0,0,1-.36.51c-.15.17-.31.35-.49.53l-2.2,2.2a1,1,0,0,0-.17.25.85.85,0,0,0-.05.26v.41h5v-.74a.41.41,0,0,0-.12-.3.43.43,0,0,0-.31-.11Zm-4.54-6.28h-.53a.7.7,0,0,0-.38.11.76.76,0,0,0-.25.33l-2.92,7.47h.53a.71.71,0,0,0,.38-.12.62.62,0,0,0,.27-.34Zm-9.36,2.53a.3.3,0,0,0-.31-.23H183v5.13h1.24v-3.71a2,2,0,0,1,.53-.39,1.21,1.21,0,0,1,.6-.15.8.8,0,0,1,.65.26,1.06,1.06,0,0,1,.22.73v3.26h1.23v-3.26a2.79,2.79,0,0,0-.11-.79,2,2,0,0,0-.33-.62,1.65,1.65,0,0,0-.54-.4,2,2,0,0,0-.75-.14,2.44,2.44,0,0,0-.48,0,2.86,2.86,0,0,0-.41.15,2.77,2.77,0,0,0-.37.22l-.32.29Zm-2.22-2a.76.76,0,0,0-.18-.25.74.74,0,0,0-.25-.17.78.78,0,0,0-.31-.06.77.77,0,0,0-.3.06.74.74,0,0,0-.25.17.92.92,0,0,0-.17.25.78.78,0,0,0-.06.31.8.8,0,0,0,.06.3,1,1,0,0,0,.17.24.74.74,0,0,0,.25.17.77.77,0,0,0,.3.06.78.78,0,0,0,.31-.06.74.74,0,0,0,.25-.17.84.84,0,0,0,.18-.24.8.8,0,0,0,.06-.3.78.78,0,0,0-.06-.31m-1.35,6.93h1.24V104h-1.24Zm-6,0h1.13a1,1,0,0,0,.39-.08.65.65,0,0,0,.25-.2l1.66-2.36c.12-.18.23-.35.33-.53a3.35,3.35,0,0,0,.42-1.12,3.21,3.21,0,0,0,.06-.63,2.78,2.78,0,0,0-.17-1,2.1,2.1,0,0,0-.48-.75,2.12,2.12,0,0,0-.75-.49,2.66,2.66,0,0,0-1-.18,2.56,2.56,0,0,0-1,.19,2.43,2.43,0,0,0-.78.5,2.4,2.4,0,0,0-.5.75,2.43,2.43,0,0,0,0,1.81,1.93,1.93,0,0,0,.45.65,1.87,1.87,0,0,0,.64.4,2.35,2.35,0,0,0,.74.13,2.18,2.18,0,0,0,.63-.09,1.8,1.8,0,0,0,.55-.24l-.15.2-.16.21Zm.69-5.56a1.11,1.11,0,0,1,.24-.39,1.33,1.33,0,0,1,.39-.26,1.43,1.43,0,0,1,1,0,1.11,1.11,0,0,1,.39.24,1.16,1.16,0,0,1,.26.39,1.57,1.57,0,0,1,0,1,1.14,1.14,0,0,1-.25.39,1.21,1.21,0,0,1-.39.26,1.53,1.53,0,0,1-.54.09,1.13,1.13,0,0,1-.88-.32,1.24,1.24,0,0,1-.32-.92,1.39,1.39,0,0,1,.09-.5"/><path class="cls-7" d="M135.59,133v-3.76a1.62,1.62,0,0,1,.43-.36,1,1,0,0,1,.5-.13.76.76,0,0,1,.61.23,1.12,1.12,0,0,1,.21.75V133h1.24V129.7a1.09,1.09,0,0,1,.07-.42.74.74,0,0,1,.19-.31.87.87,0,0,1,.28-.19,1,1,0,0,1,.36-.06.82.82,0,0,1,.63.24,1.13,1.13,0,0,1,.21.74V133h1.24V129.7a2.57,2.57,0,0,0-.12-.82,1.64,1.64,0,0,0-.34-.61,1.36,1.36,0,0,0-.56-.38,2,2,0,0,0-.75-.13,2,2,0,0,0-.49,0,2,2,0,0,0-.46.17,1.85,1.85,0,0,0-.39.3,1.55,1.55,0,0,0-.3.44,1.61,1.61,0,0,0-.47-.7,1.17,1.17,0,0,0-.8-.26,1.61,1.61,0,0,0-.78.19,1.66,1.66,0,0,0-.32.22,3.5,3.5,0,0,0-.28.27l-.08-.38a.29.29,0,0,0-.31-.22h-.76V133Zm-2.06-4.5a2.47,2.47,0,0,0-.77-.53,2.64,2.64,0,0,0-1-.18,2.56,2.56,0,0,0-1.07.2,2.09,2.09,0,0,0-.78.55,2.35,2.35,0,0,0-.48.83,3.25,3.25,0,0,0-.16,1,3.21,3.21,0,0,0,.18,1.12,2.5,2.5,0,0,0,.5.84,2.05,2.05,0,0,0,.73.51,2.26,2.26,0,0,0,.9.18,3.27,3.27,0,0,0,.54,0,2.44,2.44,0,0,0,.53-.14,2.17,2.17,0,0,0,.5-.26,1.84,1.84,0,0,0,.44-.4l-.35-.45a.25.25,0,0,0-.23-.11.31.31,0,0,0-.2.07l-.22.16a1.79,1.79,0,0,1-.31.16,1.28,1.28,0,0,1-.48.07,1.32,1.32,0,0,1-.53-.11,1.26,1.26,0,0,1-.4-.33,1.68,1.68,0,0,1-.25-.54,2.7,2.7,0,0,1-.09-.73,3.08,3.08,0,0,1,.08-.71,1.73,1.73,0,0,1,.25-.53,1,1,0,0,1,.4-.34,1.48,1.48,0,0,1,.57-.11,1.69,1.69,0,0,1,.43.05,3,3,0,0,1,.3.13l.21.13a.33.33,0,0,0,.19.06.22.22,0,0,0,.15,0l.11-.11Zm-6.73.1a1.7,1.7,0,0,0,.26-1,1.8,1.8,0,0,0-.16-.77,2,2,0,0,0-.47-.62,2.3,2.3,0,0,0-.72-.41,3,3,0,0,0-.92-.14,2.9,2.9,0,0,0-.91.14,2.3,2.3,0,0,0-.72.41,1.89,1.89,0,0,0-.47.62,1.81,1.81,0,0,0-.17.77,1.7,1.7,0,0,0,.27,1,1.66,1.66,0,0,0,.78.63,1.69,1.69,0,0,0-1.29,1.74,1.92,1.92,0,0,0,.19.87,1.84,1.84,0,0,0,.51.66,2.4,2.4,0,0,0,.79.43,3.58,3.58,0,0,0,2,0,2.5,2.5,0,0,0,.79-.43,1.84,1.84,0,0,0,.51-.66,2.05,2.05,0,0,0,.18-.87,1.84,1.84,0,0,0-.31-1.09,1.87,1.87,0,0,0-1-.65,1.69,1.69,0,0,0,.79-.63m-1.53-1.9a1,1,0,0,1,.33.23.89.89,0,0,1,.19.33,1,1,0,0,1,.07.39,1.84,1.84,0,0,1,0,.41,1,1,0,0,1-.18.36,1.06,1.06,0,0,1-.33.26,1.29,1.29,0,0,1-.51.09,1.21,1.21,0,0,1-.5-.09.94.94,0,0,1-.51-.62,1.84,1.84,0,0,1,0-.41,1.23,1.23,0,0,1,.06-.39.79.79,0,0,1,.2-.33.81.81,0,0,1,.33-.23,1.13,1.13,0,0,1,.47-.08,1.18,1.18,0,0,1,.48.08m-1,5.32a1,1,0,0,1-.39-.24,1.18,1.18,0,0,1-.24-.37,1.39,1.39,0,0,1-.08-.46,1.16,1.16,0,0,1,.33-.9,1.27,1.27,0,0,1,.91-.31,1.26,1.26,0,0,1,.91.31,1.16,1.16,0,0,1,.33.9,1.17,1.17,0,0,1-.08.46,1,1,0,0,1-.23.37,1.11,1.11,0,0,1-.39.24,1.49,1.49,0,0,1-.54.09,1.44,1.44,0,0,1-.53-.09m-4.25.59a.65.65,0,0,0,.15.24.78.78,0,0,0,.24.16.8.8,0,0,0,.3.06.73.73,0,0,0,.3-.06.78.78,0,0,0,.24-.16.67.67,0,0,0,.16-.24.72.72,0,0,0,.06-.29.73.73,0,0,0-.06-.3.74.74,0,0,0-.4-.4.73.73,0,0,0-.3-.06.8.8,0,0,0-.3.06.78.78,0,0,0-.24.16.75.75,0,0,0-.15.24.73.73,0,0,0-.06.3.72.72,0,0,0,.06.29m-3.24-.76-.44,0a3.57,3.57,0,0,0-.47.11l1.63-1.66.55-.59a6.15,6.15,0,0,0,.47-.6,3.51,3.51,0,0,0,.31-.65,2.25,2.25,0,0,0,.12-.74,2.11,2.11,0,0,0-.17-.85,1.88,1.88,0,0,0-.46-.65,2,2,0,0,0-.71-.42,3.1,3.1,0,0,0-1.81,0,2.38,2.38,0,0,0-.74.39,2.51,2.51,0,0,0-.54.66,2.7,2.7,0,0,0-.29.91l.65.12a.66.66,0,0,0,.39,0,.52.52,0,0,0,.22-.3,1.66,1.66,0,0,1,.15-.33,1.27,1.27,0,0,1,.25-.27,1.14,1.14,0,0,1,.33-.17,1.35,1.35,0,0,1,.41-.06,1.44,1.44,0,0,1,.43.06.9.9,0,0,1,.54.54,1.26,1.26,0,0,1,.08.46,1.91,1.91,0,0,1-.08.54,2.81,2.81,0,0,1-.22.51,4.75,4.75,0,0,1-.36.5c-.15.17-.31.35-.5.54l-2.19,2.2a.66.66,0,0,0-.17.24.91.91,0,0,0-.05.27V133h5v-.74a.38.38,0,0,0-.12-.3.42.42,0,0,0-.32-.11Zm-5.8,0-.44,0a3.57,3.57,0,0,0-.47.11l1.63-1.66.55-.59a6.15,6.15,0,0,0,.47-.6,3.51,3.51,0,0,0,.31-.65,2.25,2.25,0,0,0,.12-.74,2.11,2.11,0,0,0-.17-.85,1.88,1.88,0,0,0-.46-.65,2,2,0,0,0-.71-.42,3.1,3.1,0,0,0-1.81,0,2.38,2.38,0,0,0-.74.39,2.51,2.51,0,0,0-.54.66,2.7,2.7,0,0,0-.29.91l.65.12a.66.66,0,0,0,.39,0,.52.52,0,0,0,.22-.3,1.66,1.66,0,0,1,.15-.33,1.27,1.27,0,0,1,.25-.27,1.14,1.14,0,0,1,.33-.17,1.35,1.35,0,0,1,.41-.06,1.44,1.44,0,0,1,.43.06.9.9,0,0,1,.54.54,1.26,1.26,0,0,1,.08.46,1.91,1.91,0,0,1-.08.54,2.81,2.81,0,0,1-.22.51,4.75,4.75,0,0,1-.36.5c-.15.17-.31.35-.5.54l-2.19,2.2a.66.66,0,0,0-.17.24.91.91,0,0,0,0,.27V133h5v-.74a.38.38,0,0,0-.12-.3.42.42,0,0,0-.32-.11Zm-4.54-6.28h-.53a.64.64,0,0,0-.39.11.61.61,0,0,0-.24.32l-2.92,7.47h.52a.82.82,0,0,0,.39-.11.74.74,0,0,0,.27-.35Zm-9.56,2.52a.31.31,0,0,0-.32-.22H95.8V133H97v-3.71a2.38,2.38,0,0,1,.53-.4,1.26,1.26,0,0,1,.6-.14.82.82,0,0,1,.66.25,1.15,1.15,0,0,1,.21.73V133h1.24V129.7a2.79,2.79,0,0,0-.11-.79,2,2,0,0,0-.33-.61,1.48,1.48,0,0,0-.55-.4,1.72,1.72,0,0,0-.74-.14,1.77,1.77,0,0,0-.48,0,1.65,1.65,0,0,0-.41.14,2.85,2.85,0,0,0-.37.23,4.28,4.28,0,0,0-.33.29Zm-2.23-2a.74.74,0,0,0-.17-.25,1.1,1.1,0,0,0-.25-.17.81.81,0,0,0-.31-.06.73.73,0,0,0-.3.06.92.92,0,0,0-.25.17.74.74,0,0,0-.17.25.81.81,0,0,0-.06.31.73.73,0,0,0,.06.3.85.85,0,0,0,.17.25.72.72,0,0,0,.25.16.6.6,0,0,0,.3.07.67.67,0,0,0,.31-.07.82.82,0,0,0,.25-.16.85.85,0,0,0,.17-.25.6.6,0,0,0,.07-.3.67.67,0,0,0-.07-.31M93.3,133h1.24v-5.13H93.3Zm-6,0H88.4a.79.79,0,0,0,.38-.09.6.6,0,0,0,.26-.2l1.65-2.36a5.13,5.13,0,0,0,.34-.52,3.87,3.87,0,0,0,.25-.55,3.43,3.43,0,0,0,.17-.57,4.37,4.37,0,0,0,0-.64,2.69,2.69,0,0,0-.16-1,2.35,2.35,0,0,0-.48-.76,2.21,2.21,0,0,0-.76-.49,2.62,2.62,0,0,0-1-.17,2.7,2.7,0,0,0-1,.18,2.29,2.29,0,0,0-.78.51,2.23,2.23,0,0,0-.51.74,2.31,2.31,0,0,0-.18.91,2.14,2.14,0,0,0,.18.91,1.89,1.89,0,0,0,.45.65,2,2,0,0,0,.64.39,2,2,0,0,0,.73.13,2.59,2.59,0,0,0,.63-.08,2.29,2.29,0,0,0,.55-.24l-.14.2-.16.2Zm.69-5.56a1.14,1.14,0,0,1,.25-.39,1.12,1.12,0,0,1,.38-.26,1.36,1.36,0,0,1,.51-.09,1.38,1.38,0,0,1,.5.08A1.14,1.14,0,0,1,90,127a1,1,0,0,1,.25.39,1.44,1.44,0,0,1,.09.53,1.27,1.27,0,0,1-.08.48,1,1,0,0,1-.24.39,1.11,1.11,0,0,1-.4.26,1.43,1.43,0,0,1-.53.1,1.21,1.21,0,0,1-.89-.32,1.25,1.25,0,0,1-.31-.92,1.59,1.59,0,0,1,.08-.5"/><path class="cls-7" d="M225.86,133v-3.76a1.79,1.79,0,0,1,.43-.36,1,1,0,0,1,.51-.13.75.75,0,0,1,.6.23,1.12,1.12,0,0,1,.21.75V133h1.24V129.7a1.09,1.09,0,0,1,.07-.42.86.86,0,0,1,.19-.31.81.81,0,0,1,.29-.19,1,1,0,0,1,.35-.06.79.79,0,0,1,.63.24,1.13,1.13,0,0,1,.22.74V133h1.23V129.7a2.57,2.57,0,0,0-.12-.82,1.64,1.64,0,0,0-.34-.61,1.33,1.33,0,0,0-.55-.38,2.34,2.34,0,0,0-1.25-.08,1.74,1.74,0,0,0-.45.17,1.68,1.68,0,0,0-.4.3,1.55,1.55,0,0,0-.3.44,1.53,1.53,0,0,0-.47-.7,1.16,1.16,0,0,0-.79-.26,1.45,1.45,0,0,0-.43,0,1.42,1.42,0,0,0-.36.14,1.6,1.6,0,0,0-.31.22,2.37,2.37,0,0,0-.28.27l-.08-.38a.31.31,0,0,0-.32-.22h-.75V133Zm-2.05-4.5a2.4,2.4,0,0,0-.78-.53,2.64,2.64,0,0,0-1-.18,2.59,2.59,0,0,0-1.07.2,2.09,2.09,0,0,0-.78.55,2.35,2.35,0,0,0-.48.83,3.25,3.25,0,0,0-.16,1,3.21,3.21,0,0,0,.18,1.12,2.5,2.5,0,0,0,.5.84,2.09,2.09,0,0,0,.74.51,2.21,2.21,0,0,0,.89.18,3.27,3.27,0,0,0,.54,0,2.44,2.44,0,0,0,.53-.14,2.17,2.17,0,0,0,.5-.26,2.09,2.09,0,0,0,.45-.4l-.36-.45a.23.23,0,0,0-.22-.11.31.31,0,0,0-.21.07l-.22.16a1.49,1.49,0,0,1-.31.16,1.45,1.45,0,0,1-1,0,1.16,1.16,0,0,1-.4-.33,1.7,1.7,0,0,1-.26-.54,2.72,2.72,0,0,1-.08-.73,2.62,2.62,0,0,1,.08-.71,1.51,1.51,0,0,1,.24-.53,1,1,0,0,1,.41-.34,1.41,1.41,0,0,1,.57-.11,1.61,1.61,0,0,1,.42.05,2.23,2.23,0,0,1,.3.13l.22.13a.32.32,0,0,0,.18.06.21.21,0,0,0,.15,0,.57.57,0,0,0,.11-.11Zm-7,1.77v-4.51h-1.17l-3.42,4.58.13.62a.26.26,0,0,0,.12.19.29.29,0,0,0,.22.08h3V133h1.07V131.2h.66a.25.25,0,0,0,.19-.07.27.27,0,0,0,.06-.17v-.72Zm-3.27,0,2.24-3.1a6.58,6.58,0,0,0,0,.74v2.36Zm-3.25,2.34a.67.67,0,0,0,.16.24.6.6,0,0,0,.24.16.73.73,0,0,0,.3.06.72.72,0,0,0,.29-.06.78.78,0,0,0,.24-.16.7.7,0,0,0,.17-.24.72.72,0,0,0,.06-.29.73.73,0,0,0-.06-.3.81.81,0,0,0-.17-.24.78.78,0,0,0-.24-.16.72.72,0,0,0-.29-.06.73.73,0,0,0-.3.06.6.6,0,0,0-.24.16.78.78,0,0,0-.16.24.73.73,0,0,0-.06.3.72.72,0,0,0,.06.29m-4-5.72h2a.78.78,0,0,0,.56-.17.58.58,0,0,0,.17-.43v-.52h-3.57l-.6,3.51.77.22a3.07,3.07,0,0,1,1-.19,1.4,1.4,0,0,1,1,.33,1.22,1.22,0,0,1,.35.92,1.87,1.87,0,0,1-.09.59,1.33,1.33,0,0,1-.26.47,1.1,1.1,0,0,1-.43.31,1.64,1.64,0,0,1-.6.11,1.73,1.73,0,0,1-.55-.08,2.53,2.53,0,0,1-.4-.17l-.29-.18a.56.56,0,0,0-.26-.08.37.37,0,0,0-.31.17l-.38.53a3.3,3.3,0,0,0,.4.32,3.38,3.38,0,0,0,.5.27,3.47,3.47,0,0,0,.57.19,3.32,3.32,0,0,0,.65.07,3.12,3.12,0,0,0,1.07-.19,2.53,2.53,0,0,0,.85-.52,2.4,2.4,0,0,0,.56-.81,2.59,2.59,0,0,0,.21-1.05,2.49,2.49,0,0,0-.15-.87,1.92,1.92,0,0,0-.45-.7,2,2,0,0,0-.73-.47,2.59,2.59,0,0,0-1-.17,3.17,3.17,0,0,0-.43,0,4,4,0,0,0-.46.07Zm-5,5-.44,0a4,4,0,0,0-.47.11L202,130.3l.56-.59a6,6,0,0,0,.46-.6,3,3,0,0,0,.31-.65,2.25,2.25,0,0,0,.12-.74,2.11,2.11,0,0,0-.16-.85,2,2,0,0,0-.46-.65,2.19,2.19,0,0,0-.71-.42,3,3,0,0,0-.92-.14,2.92,2.92,0,0,0-.9.13,2.5,2.5,0,0,0-.74.39,2.3,2.3,0,0,0-.53.66,2.5,2.5,0,0,0-.29.91l.65.12a.66.66,0,0,0,.39,0,.56.56,0,0,0,.22-.3,1,1,0,0,1,.15-.33,1,1,0,0,1,.24-.27,1.29,1.29,0,0,1,.33-.17,1.35,1.35,0,0,1,.41-.06,1.4,1.4,0,0,1,.43.06.93.93,0,0,1,.33.21.83.83,0,0,1,.22.33,1.27,1.27,0,0,1,.07.46,1.61,1.61,0,0,1-.08.54,2.25,2.25,0,0,1-.22.51,4.75,4.75,0,0,1-.36.5l-.49.54-2.2,2.2a.66.66,0,0,0-.17.24.91.91,0,0,0-.05.27V133h5v-.74a.38.38,0,0,0-.12-.3.39.39,0,0,0-.31-.11Zm-4.54-6.28h-.53a.61.61,0,0,0-.38.11.62.62,0,0,0-.25.32l-2.92,7.47h.53a.79.79,0,0,0,.38-.11.74.74,0,0,0,.27-.35Zm-9.76,2.52a.29.29,0,0,0-.31-.22h-.76V133h1.24v-3.71a2,2,0,0,1,.53-.4,1.21,1.21,0,0,1,.6-.14.8.8,0,0,1,.65.25,1.15,1.15,0,0,1,.22.73V133h1.23V129.7a2.79,2.79,0,0,0-.11-.79,2,2,0,0,0-.33-.61,1.52,1.52,0,0,0-.54-.4,1.79,1.79,0,0,0-.75-.14,1.86,1.86,0,0,0-.48,0,1.8,1.8,0,0,0-.41.14,2.85,2.85,0,0,0-.37.23,2.89,2.89,0,0,0-.32.29Zm-2.22-2a.76.76,0,0,0-.18-.25.92.92,0,0,0-.25-.17.81.81,0,0,0-.31-.06.73.73,0,0,0-.3.06.81.81,0,0,0-.42.42.81.81,0,0,0-.06.31.73.73,0,0,0,.06.3,1.1,1.1,0,0,0,.17.25.72.72,0,0,0,.25.16.6.6,0,0,0,.3.07.67.67,0,0,0,.31-.07.72.72,0,0,0,.25-.16.88.88,0,0,0,.18-.25.73.73,0,0,0,.06-.3.81.81,0,0,0-.06-.31M183.37,133h1.24v-5.13h-1.24Zm-3.32-2.32a2.65,2.65,0,0,1-.31.82,1.06,1.06,0,0,1-.44.43,1.2,1.2,0,0,1-.52.12,1.06,1.06,0,0,1-.95-.55,2.43,2.43,0,0,1-.3-.82,7.74,7.74,0,0,1,0-2.6,2.43,2.43,0,0,1,.3-.82,1.2,1.2,0,0,1,.44-.43,1.13,1.13,0,0,1,.51-.12,1.2,1.2,0,0,1,.52.12,1.13,1.13,0,0,1,.44.43,2.65,2.65,0,0,1,.31.82,7.1,7.1,0,0,1,0,2.6m1.19-2.94a3.34,3.34,0,0,0-.56-1.15,2.21,2.21,0,0,0-.85-.68,2.44,2.44,0,0,0-1.05-.22,2.47,2.47,0,0,0-1.05.22,2.16,2.16,0,0,0-.83.68,3.17,3.17,0,0,0-.56,1.15,6.82,6.82,0,0,0,0,3.28,3.3,3.3,0,0,0,.56,1.16,2.13,2.13,0,0,0,.83.67,2.48,2.48,0,0,0,1.05.23,2.45,2.45,0,0,0,1.05-.23,2.19,2.19,0,0,0,.85-.67,3.48,3.48,0,0,0,.56-1.16,6.82,6.82,0,0,0,0-3.28M174,132v-6.31h-1l-2.2,1.87.39.54a.36.36,0,0,0,.09.08l.13.05h.17a.38.38,0,0,0,.18-.09l1-.87c0,.18,0,.35,0,.52V132h-1.46V133h4V132Z"/><path class="cls-7" d="M138.7,157.11v-3.76a1.79,1.79,0,0,1,.43-.36,1,1,0,0,1,.51-.13.78.78,0,0,1,.6.23,1.12,1.12,0,0,1,.21.75v3.27h1.24v-3.27a1.09,1.09,0,0,1,.07-.42,1,1,0,0,1,.19-.31,1,1,0,0,1,.29-.19,1,1,0,0,1,.35-.06.77.77,0,0,1,.63.25,1.1,1.1,0,0,1,.22.73v3.27h1.23v-3.27a2.57,2.57,0,0,0-.12-.82,1.72,1.72,0,0,0-.34-.61,1.43,1.43,0,0,0-.55-.38,2,2,0,0,0-.76-.13,2.72,2.72,0,0,0-.49,0,2.2,2.2,0,0,0-.45.17,1.68,1.68,0,0,0-.4.3,1.55,1.55,0,0,0-.3.44,1.58,1.58,0,0,0-.47-.7,1.21,1.21,0,0,0-.79-.26,1.88,1.88,0,0,0-.43,0,1.92,1.92,0,0,0-.36.14,2.18,2.18,0,0,0-.31.22,2.37,2.37,0,0,0-.28.27l-.08-.38a.31.31,0,0,0-.32-.22h-.75v5.13Zm-2-4.5a2.57,2.57,0,0,0-.78-.53,2.64,2.64,0,0,0-1-.18,2.76,2.76,0,0,0-1.07.2,2.2,2.2,0,0,0-.78.55,2.49,2.49,0,0,0-.48.84,3.19,3.19,0,0,0-.16,1,3.31,3.31,0,0,0,.18,1.13,2.45,2.45,0,0,0,.5.83,2.12,2.12,0,0,0,.74.52,2.21,2.21,0,0,0,.89.17,3.27,3.27,0,0,0,.54,0,2.42,2.42,0,0,0,.53-.13,2.65,2.65,0,0,0,.5-.26,2.46,2.46,0,0,0,.45-.41l-.36-.45a.25.25,0,0,0-.22-.11.31.31,0,0,0-.21.07l-.22.16a1.49,1.49,0,0,1-.31.16,1.26,1.26,0,0,1-.47.07,1.12,1.12,0,0,1-.53-.11,1,1,0,0,1-.4-.33,1.51,1.51,0,0,1-.26-.54,2.67,2.67,0,0,1-.08-.73,2.54,2.54,0,0,1,.08-.7,1.48,1.48,0,0,1,.24-.54,1.11,1.11,0,0,1,.41-.33,1.26,1.26,0,0,1,.57-.12,1.25,1.25,0,0,1,.42.06,1.42,1.42,0,0,1,.3.13l.22.13a.31.31,0,0,0,.18.05.21.21,0,0,0,.15,0,.38.38,0,0,0,.11-.11Zm-7,1.77v-4.51h-1.17l-3.42,4.58.13.62a.28.28,0,0,0,.12.2.32.32,0,0,0,.22.07h3v1.77h1.07v-1.77h.66a.25.25,0,0,0,.19-.07.25.25,0,0,0,.06-.17v-.72Zm-3.27,0,2.24-3.1a6.7,6.7,0,0,0,0,.74v2.36Zm-3.25,2.35a.63.63,0,0,0,.16.23.6.6,0,0,0,.24.16.73.73,0,0,0,.3.06.72.72,0,0,0,.29-.06.78.78,0,0,0,.24-.16.66.66,0,0,0,.17-.23.73.73,0,0,0,.06-.3.72.72,0,0,0-.23-.54,1,1,0,0,0-.24-.16.72.72,0,0,0-.29-.06.73.73,0,0,0-.3.06.72.72,0,0,0-.24.16.78.78,0,0,0-.16.24.8.8,0,0,0-.06.3.73.73,0,0,0,.06.3m-4-5.73h2a.78.78,0,0,0,.56-.17.58.58,0,0,0,.17-.43v-.52h-3.57l-.6,3.51.77.22a3.07,3.07,0,0,1,1-.19,1.4,1.4,0,0,1,1,.33,1.22,1.22,0,0,1,.35.92,1.89,1.89,0,0,1-.09.6,1.43,1.43,0,0,1-.26.47,1.19,1.19,0,0,1-.43.3,1.46,1.46,0,0,1-.6.11,1.49,1.49,0,0,1-.55-.08,2.53,2.53,0,0,1-.4-.17,2.45,2.45,0,0,1-.29-.18.56.56,0,0,0-.26-.08.37.37,0,0,0-.31.17l-.38.53a3.3,3.3,0,0,0,.4.32,3.38,3.38,0,0,0,.5.27,3.47,3.47,0,0,0,.57.19,2.7,2.7,0,0,0,.65.07,2.9,2.9,0,0,0,1.07-.19,2.38,2.38,0,0,0,.85-.52,2.22,2.22,0,0,0,.56-.81,2.59,2.59,0,0,0,.21-1,2.49,2.49,0,0,0-.15-.87,1.92,1.92,0,0,0-.45-.7,2,2,0,0,0-.73-.47,2.79,2.79,0,0,0-1-.17l-.43,0-.46.07Zm-5,5a2.25,2.25,0,0,0-.44,0,3.94,3.94,0,0,0-.47.1l1.63-1.66.56-.59a4.35,4.35,0,0,0,.46-.6,2.77,2.77,0,0,0,.31-.65,2.21,2.21,0,0,0,.12-.74,2.15,2.15,0,0,0-.16-.85,2,2,0,0,0-.46-.65,2.17,2.17,0,0,0-.71-.41,2.73,2.73,0,0,0-.92-.15,2.92,2.92,0,0,0-.9.13,2.31,2.31,0,0,0-.74.4,2.13,2.13,0,0,0-.53.65,2.56,2.56,0,0,0-.29.91l.65.12a.59.59,0,0,0,.39,0,.56.56,0,0,0,.22-.3,1,1,0,0,1,.15-.33.85.85,0,0,1,.24-.26,1.06,1.06,0,0,1,.33-.18,1.35,1.35,0,0,1,.41-.06,1.14,1.14,0,0,1,.43.07.79.79,0,0,1,.33.2.83.83,0,0,1,.22.33,1.31,1.31,0,0,1,.07.46,1.61,1.61,0,0,1-.08.54,2.25,2.25,0,0,1-.22.51,3.9,3.9,0,0,1-.36.5l-.49.54-2.2,2.2a.7.7,0,0,0-.17.25.85.85,0,0,0,0,.26v.41h5v-.74a.41.41,0,0,0-.12-.3.43.43,0,0,0-.31-.11Zm-4.54-6.28H109a.68.68,0,0,0-.38.11.67.67,0,0,0-.25.32l-2.92,7.47H106a.67.67,0,0,0,.65-.46ZM100,152.2a.29.29,0,0,0-.31-.22h-.76v5.13h1.24V153.4a2,2,0,0,1,.53-.4,1.33,1.33,0,0,1,.6-.14.8.8,0,0,1,.65.26,1.1,1.1,0,0,1,.22.72v3.27h1.23v-3.27a2.77,2.77,0,0,0-.11-.78,1.93,1.93,0,0,0-.33-.62,1.65,1.65,0,0,0-.54-.4,2,2,0,0,0-.75-.14,2.44,2.44,0,0,0-.48,0,2.48,2.48,0,0,0-.41.15,2,2,0,0,0-.37.22l-.32.29Zm-2.22-2a.88.88,0,0,0-.18-.25.72.72,0,0,0-.25-.16.82.82,0,0,0-.31-.07.73.73,0,0,0-.3.07.72.72,0,0,0-.25.16,1.1,1.1,0,0,0-.17.25.81.81,0,0,0-.06.31.73.73,0,0,0,.06.3.92.92,0,0,0,.17.25.74.74,0,0,0,.25.17.73.73,0,0,0,.3.06.81.81,0,0,0,.31-.06.74.74,0,0,0,.25-.17.76.76,0,0,0,.18-.25.73.73,0,0,0,.06-.3.81.81,0,0,0-.06-.31m-1.35,6.94h1.24V152H96.41Zm-3.32-2.32a2.56,2.56,0,0,1-.31.82,1,1,0,0,1-.44.43,1.2,1.2,0,0,1-.52.12,1.13,1.13,0,0,1-.51-.12,1.06,1.06,0,0,1-.44-.43,2.35,2.35,0,0,1-.3-.82,5.88,5.88,0,0,1-.11-1.3,6,6,0,0,1,.11-1.3,2.52,2.52,0,0,1,.3-.82,1.09,1.09,0,0,1,.44-.42,1.14,1.14,0,0,1,.51-.13,1.21,1.21,0,0,1,.52.13,1,1,0,0,1,.44.42,2.76,2.76,0,0,1,.31.82,5.93,5.93,0,0,1,.12,1.3,5.8,5.8,0,0,1-.12,1.3m1.19-2.94a3.43,3.43,0,0,0-.56-1.15,2.31,2.31,0,0,0-.85-.68,2.44,2.44,0,0,0-1.05-.22,2.47,2.47,0,0,0-1,.22,2.25,2.25,0,0,0-.83.68,3.25,3.25,0,0,0-.56,1.15,6.08,6.08,0,0,0-.2,1.64,6.21,6.21,0,0,0,.2,1.65,3.25,3.25,0,0,0,.56,1.15,2.25,2.25,0,0,0,.83.68,2.47,2.47,0,0,0,1,.22,2.44,2.44,0,0,0,1.05-.22,2.31,2.31,0,0,0,.85-.68,3.43,3.43,0,0,0,.56-1.15,6.21,6.21,0,0,0,.2-1.65,6.08,6.08,0,0,0-.2-1.64M87,156.18v-6.31H86l-2.2,1.87.39.54a.24.24,0,0,0,.09.08.29.29,0,0,0,.13,0h.17a.38.38,0,0,0,.18-.09l1-.87c0,.18,0,.35,0,.52v4.21H84.31v.93h4v-.93Z"/><path class="cls-7" d="M229.56,157.11v-3.76A1.79,1.79,0,0,1,230,153a1,1,0,0,1,.51-.13.77.77,0,0,1,.6.23,1.12,1.12,0,0,1,.21.75v3.27h1.24v-3.27a1.09,1.09,0,0,1,.07-.42,1,1,0,0,1,.19-.31,1.12,1.12,0,0,1,.29-.19,1,1,0,0,1,.35-.06.77.77,0,0,1,.63.25,1.1,1.1,0,0,1,.22.73v3.27h1.23v-3.27a2.57,2.57,0,0,0-.12-.82,1.58,1.58,0,0,0-.34-.61,1.43,1.43,0,0,0-.55-.38,2,2,0,0,0-.76-.13,2.81,2.81,0,0,0-.49,0,2.2,2.2,0,0,0-.45.17,1.68,1.68,0,0,0-.4.3,1.55,1.55,0,0,0-.3.44,1.58,1.58,0,0,0-.47-.7,1.19,1.19,0,0,0-.79-.26,1.88,1.88,0,0,0-.43,0,2.67,2.67,0,0,0-.36.14,2.18,2.18,0,0,0-.31.22,2.37,2.37,0,0,0-.28.27l-.08-.38a.31.31,0,0,0-.32-.22h-.75v5.13Zm-2.05-4.5a2.57,2.57,0,0,0-.78-.53,2.64,2.64,0,0,0-1-.18,2.76,2.76,0,0,0-1.07.2,2.2,2.2,0,0,0-.78.55,2.49,2.49,0,0,0-.48.84,3.49,3.49,0,0,0-.16,1,3.31,3.31,0,0,0,.18,1.13,2.62,2.62,0,0,0,.5.83,2.12,2.12,0,0,0,.74.52,2.21,2.21,0,0,0,.89.17,3.27,3.27,0,0,0,.54,0,2.28,2.28,0,0,0,.53-.13,2.38,2.38,0,0,0,.5-.26,2.46,2.46,0,0,0,.45-.41l-.36-.45a.25.25,0,0,0-.22-.11.31.31,0,0,0-.21.07l-.22.16a1.27,1.27,0,0,1-.31.16,1.26,1.26,0,0,1-.47.07,1.12,1.12,0,0,1-.53-.11,1,1,0,0,1-.4-.33,1.51,1.51,0,0,1-.26-.54,3.13,3.13,0,0,1-.08-.73,2.54,2.54,0,0,1,.08-.7,1.48,1.48,0,0,1,.24-.54,1.11,1.11,0,0,1,.41-.33,1.26,1.26,0,0,1,.57-.12,1.25,1.25,0,0,1,.42.06,1.42,1.42,0,0,1,.3.13l.22.13a.31.31,0,0,0,.18.05.21.21,0,0,0,.15,0,.38.38,0,0,0,.11-.11Zm-11.18-2.73v.83a.31.31,0,0,0,.29.29h3.46a2.47,2.47,0,0,0-.21.27c-.06.1-.13.2-.19.31l-2.79,5.53h.89a.7.7,0,0,0,.42-.12.89.89,0,0,0,.24-.3l2.74-5.64.1-.25a1.37,1.37,0,0,0,.05-.39v-.53ZM214,156.73a.63.63,0,0,0,.16.23.6.6,0,0,0,.24.16.73.73,0,0,0,.3.06.72.72,0,0,0,.29-.06.6.6,0,0,0,.24-.16.66.66,0,0,0,.17-.23.73.73,0,0,0,.06-.3.72.72,0,0,0-.23-.54.77.77,0,0,0-.53-.22.73.73,0,0,0-.3.06.72.72,0,0,0-.24.16.78.78,0,0,0-.16.24.8.8,0,0,0-.06.3.73.73,0,0,0,.06.3m-3.95-.65a1,1,0,0,1-.41-.27,1.24,1.24,0,0,1-.24-.42,1.63,1.63,0,0,1-.08-.55,1.46,1.46,0,0,1,.09-.52,1.17,1.17,0,0,1,.27-.42,1.2,1.2,0,0,1,.41-.28,1.29,1.29,0,0,1,.53-.1,1.53,1.53,0,0,1,.54.09,1.29,1.29,0,0,1,.42.26,1.17,1.17,0,0,1,.27.42,1.64,1.64,0,0,1,.1.56,1.51,1.51,0,0,1-.1.53,1.34,1.34,0,0,1-.28.42,1.28,1.28,0,0,1-.43.28,1.33,1.33,0,0,1-.54.1,1.35,1.35,0,0,1-.55-.1m2.42-6.2h-1.1a1,1,0,0,0-.4.08.71.71,0,0,0-.26.21L209,152.48a4.81,4.81,0,0,0-.64,1.12,2.89,2.89,0,0,0-.21,1.05,3.11,3.11,0,0,0,.17,1,2.16,2.16,0,0,0,1.29,1.31,2.61,2.61,0,0,0,1,.19,2.71,2.71,0,0,0,1-.19,2.62,2.62,0,0,0,.81-.52,2.55,2.55,0,0,0,.52-.77,2.51,2.51,0,0,0,.18-1,2.33,2.33,0,0,0-.18-.95,2.07,2.07,0,0,0-.47-.67,2,2,0,0,0-.69-.41,2.35,2.35,0,0,0-.79-.14,2.26,2.26,0,0,0-.53.06,2.18,2.18,0,0,0-.45.16l.25-.31ZM204.94,156a2.25,2.25,0,0,0-.44,0,3.94,3.94,0,0,0-.47.1l1.63-1.66.56-.59a4.35,4.35,0,0,0,.46-.6,2.77,2.77,0,0,0,.31-.65,2.21,2.21,0,0,0,.12-.74A2.15,2.15,0,0,0,207,151a2,2,0,0,0-.46-.65,2.17,2.17,0,0,0-.71-.41,2.73,2.73,0,0,0-.92-.15,2.92,2.92,0,0,0-.9.13,2.31,2.31,0,0,0-.74.4,2.13,2.13,0,0,0-.53.65,2.56,2.56,0,0,0-.29.91l.65.12a.59.59,0,0,0,.39,0,.56.56,0,0,0,.22-.3,1,1,0,0,1,.15-.33.85.85,0,0,1,.24-.26,1.06,1.06,0,0,1,.33-.18,1.35,1.35,0,0,1,.41-.06,1.14,1.14,0,0,1,.43.07.79.79,0,0,1,.33.2.83.83,0,0,1,.22.33,1.31,1.31,0,0,1,.07.46,1.61,1.61,0,0,1-.08.54,2.25,2.25,0,0,1-.22.51,3.9,3.9,0,0,1-.36.5l-.49.54-2.2,2.2a.7.7,0,0,0-.17.25.85.85,0,0,0,0,.26v.41h5v-.74a.41.41,0,0,0-.12-.3.43.43,0,0,0-.31-.11Zm-4.54-6.28h-.53a.7.7,0,0,0-.38.11.73.73,0,0,0-.25.32l-2.92,7.47h.53a.69.69,0,0,0,.38-.11.64.64,0,0,0,.27-.35Zm-9.16,2.52a.29.29,0,0,0-.31-.22h-.76v5.13h1.24V153.4a2,2,0,0,1,.53-.4,1.33,1.33,0,0,1,.6-.14.8.8,0,0,1,.65.26,1.05,1.05,0,0,1,.22.72v3.27h1.23v-3.27a2.77,2.77,0,0,0-.11-.78,1.93,1.93,0,0,0-.33-.62,1.65,1.65,0,0,0-.54-.4,2,2,0,0,0-.75-.14,2.44,2.44,0,0,0-.48,0,2.86,2.86,0,0,0-.41.15,2,2,0,0,0-.37.22l-.32.29Zm-2.22-2a.88.88,0,0,0-.18-.25.72.72,0,0,0-.25-.16.78.78,0,0,0-.31-.07.78.78,0,0,0-.3.07.72.72,0,0,0-.25.16,1.1,1.1,0,0,0-.17.25.81.81,0,0,0-.06.31.73.73,0,0,0,.06.3.92.92,0,0,0,.17.25.74.74,0,0,0,.25.17.77.77,0,0,0,.3.06.78.78,0,0,0,.31-.06.74.74,0,0,0,.25-.17.76.76,0,0,0,.18-.25.73.73,0,0,0,.06-.3.81.81,0,0,0-.06-.31m-1.35,6.94h1.24V152h-1.24Zm-5-6.11h2a.76.76,0,0,0,.56-.17.58.58,0,0,0,.17-.43v-.52h-3.57l-.6,3.51.77.22a3.07,3.07,0,0,1,1-.19,1.38,1.38,0,0,1,1,.33,1.22,1.22,0,0,1,.35.92,1.89,1.89,0,0,1-.09.6,1.43,1.43,0,0,1-.26.47,1.19,1.19,0,0,1-.43.3,1.46,1.46,0,0,1-.6.11,1.49,1.49,0,0,1-.55-.08,3,3,0,0,1-.4-.17,2.45,2.45,0,0,1-.29-.18.52.52,0,0,0-.26-.08.37.37,0,0,0-.31.17l-.38.53a3.3,3.3,0,0,0,.4.32,4,4,0,0,0,.5.27,3.47,3.47,0,0,0,.57.19,2.76,2.76,0,0,0,.65.07A2.9,2.9,0,0,0,184,157a2.38,2.38,0,0,0,.85-.52,2.22,2.22,0,0,0,.56-.81,2.59,2.59,0,0,0,.21-1,2.49,2.49,0,0,0-.15-.87,1.92,1.92,0,0,0-.45-.7,2,2,0,0,0-.73-.47,2.79,2.79,0,0,0-1-.17l-.43,0-.46.07Zm-4.18,5.73a.79.79,0,0,0,.16.23.78.78,0,0,0,.24.16.8.8,0,0,0,.3.06.73.73,0,0,0,.3-.06.78.78,0,0,0,.24-.16.63.63,0,0,0,.16-.23.73.73,0,0,0,.06-.3.8.8,0,0,0-.06-.3.78.78,0,0,0-.16-.24,1,1,0,0,0-.24-.16.73.73,0,0,0-.3-.06.8.8,0,0,0-.3.06.74.74,0,0,0-.4.4,1,1,0,0,0-.05.3.94.94,0,0,0,.05.3m-2.12-1.94a2.56,2.56,0,0,1-.31.82,1.12,1.12,0,0,1-.44.43,1.19,1.19,0,0,1-1,0,1,1,0,0,1-.43-.43,2.56,2.56,0,0,1-.31-.82,6.56,6.56,0,0,1-.11-1.3,6.7,6.7,0,0,1,.11-1.3,2.76,2.76,0,0,1,.31-.82,1.07,1.07,0,0,1,.43-.42,1.11,1.11,0,0,1,1,0,1.16,1.16,0,0,1,.44.42,2.76,2.76,0,0,1,.31.82,6.7,6.7,0,0,1,.11,1.3,6.56,6.56,0,0,1-.11,1.3m1.18-2.94a3.25,3.25,0,0,0-.56-1.15,2.28,2.28,0,0,0-.84-.68,2.5,2.5,0,0,0-1-.22,2.44,2.44,0,0,0-1.05.22,2.36,2.36,0,0,0-.84.68,3.42,3.42,0,0,0-.55,1.15,5.71,5.71,0,0,0-.2,1.64,5.83,5.83,0,0,0,.2,1.65,3.42,3.42,0,0,0,.55,1.15,2.36,2.36,0,0,0,.84.68,2.44,2.44,0,0,0,1.05.22,2.5,2.5,0,0,0,1-.22,2.28,2.28,0,0,0,.84-.68,3.25,3.25,0,0,0,.56-1.15,5.8,5.8,0,0,0,.21-1.65,5.68,5.68,0,0,0-.21-1.64m-7.27,4.33v-6.31h-1l-2.21,1.87.39.54a.24.24,0,0,0,.09.08.34.34,0,0,0,.14,0h.16a.38.38,0,0,0,.18-.09l1-.87c0,.18,0,.35,0,.52v4.21h-1.47v.93h4v-.93Z"/><path class="cls-7" d="M134.61,180.92v-3.76a1.83,1.83,0,0,1,.44-.36,1,1,0,0,1,.5-.13.77.77,0,0,1,.61.23,1.18,1.18,0,0,1,.2.75v3.27h1.24v-3.27a1.32,1.32,0,0,1,.07-.42.76.76,0,0,1,.2-.31.77.77,0,0,1,.28-.19,1,1,0,0,1,.35-.06.79.79,0,0,1,.63.24,1.07,1.07,0,0,1,.22.74v3.27h1.23v-3.27a2.91,2.91,0,0,0-.11-.82,1.66,1.66,0,0,0-.35-.61,1.33,1.33,0,0,0-.55-.38,2,2,0,0,0-.76-.13,2,2,0,0,0-.48,0,1.72,1.72,0,0,0-.86.47,1.55,1.55,0,0,0-.3.44,1.59,1.59,0,0,0-.46-.7,1.19,1.19,0,0,0-.8-.26,1.34,1.34,0,0,0-.42,0,1.42,1.42,0,0,0-.36.14,1.4,1.4,0,0,0-.32.22,2.37,2.37,0,0,0-.28.27l-.08-.38a.31.31,0,0,0-.32-.22h-.75v5.13Zm-2.05-4.5a2.4,2.4,0,0,0-.78-.53,2.94,2.94,0,0,0-2.08,0,2.09,2.09,0,0,0-.78.55,2.19,2.19,0,0,0-.47.83,3.21,3.21,0,0,0-.17,1.05,3,3,0,0,0,.19,1.12,2.48,2.48,0,0,0,.49.84,2.25,2.25,0,0,0,1.63.69,3.48,3.48,0,0,0,.55,0,2.6,2.6,0,0,0,.53-.14,2.11,2.11,0,0,0,.49-.26,2.39,2.39,0,0,0,.45-.4l-.36-.45a.23.23,0,0,0-.22-.11.31.31,0,0,0-.21.07l-.22.16a1.39,1.39,0,0,1-.3.16,1.35,1.35,0,0,1-.48.07,1.25,1.25,0,0,1-.53-.11,1.16,1.16,0,0,1-.4-.33,1.49,1.49,0,0,1-.25-.54,2.7,2.7,0,0,1-.09-.73,2.62,2.62,0,0,1,.08-.71,1.43,1.43,0,0,1,.24-.53,1,1,0,0,1,.41-.34,1.26,1.26,0,0,1,.57-.11,1.37,1.37,0,0,1,.43,0,1.57,1.57,0,0,1,.29.13l.22.13a.32.32,0,0,0,.18.06.25.25,0,0,0,.16,0,.55.55,0,0,0,.1-.11Zm-6.73.1a1.78,1.78,0,0,0,.26-1,1.81,1.81,0,0,0-.17-.77,1.89,1.89,0,0,0-.47-.62,2.36,2.36,0,0,0-.71-.41,2.73,2.73,0,0,0-.92-.14,2.69,2.69,0,0,0-.92.14,2.3,2.3,0,0,0-.72.41,1.86,1.86,0,0,0-.46.62,1.67,1.67,0,0,0-.17.77,1.78,1.78,0,0,0,.26,1,1.74,1.74,0,0,0,.79.63,1.87,1.87,0,0,0-1,.65,1.84,1.84,0,0,0-.31,1.09,2.05,2.05,0,0,0,.18.87,1.84,1.84,0,0,0,.51.66,2.45,2.45,0,0,0,.8.43,3.22,3.22,0,0,0,1,.15,3.31,3.31,0,0,0,1-.15,2.4,2.4,0,0,0,.79-.43,2,2,0,0,0,.52-.66,2.05,2.05,0,0,0,.18-.87,1.69,1.69,0,0,0-1.29-1.74,1.74,1.74,0,0,0,.79-.63m-1.54-1.9a.81.81,0,0,1,.33.23.91.91,0,0,1,.2.33,1.23,1.23,0,0,1,.06.39,1.4,1.4,0,0,1,0,.41.77.77,0,0,1-.18.36.87.87,0,0,1-.33.26,1.21,1.21,0,0,1-.5.09,1.29,1.29,0,0,1-.51-.09,1.06,1.06,0,0,1-.33-.26.86.86,0,0,1-.17-.36,1.4,1.4,0,0,1-.06-.41,1,1,0,0,1,.07-.39.78.78,0,0,1,.19-.33,1,1,0,0,1,.33-.23,1.18,1.18,0,0,1,.48-.08,1.13,1.13,0,0,1,.47.08m-1,5.32a1.12,1.12,0,0,1-.38-.24.91.91,0,0,1-.24-.37,1.17,1.17,0,0,1-.08-.46,1.16,1.16,0,0,1,.33-.9,1.26,1.26,0,0,1,.91-.31,1.27,1.27,0,0,1,.91.31,1.16,1.16,0,0,1,.33.9,1.39,1.39,0,0,1-.08.46,1,1,0,0,1-.24.37,1.08,1.08,0,0,1-.39.24,1.44,1.44,0,0,1-.53.09,1.49,1.49,0,0,1-.54-.09m-5.11-.17-.44,0a3.57,3.57,0,0,0-.47.11l1.63-1.66.55-.59a6.15,6.15,0,0,0,.47-.6,3.51,3.51,0,0,0,.31-.65,2.25,2.25,0,0,0,.12-.74,2.11,2.11,0,0,0-.17-.85,1.88,1.88,0,0,0-.46-.65,2,2,0,0,0-.71-.42,2.63,2.63,0,0,0-.91-.14,2.92,2.92,0,0,0-.9.13,2.38,2.38,0,0,0-.74.39,2.51,2.51,0,0,0-.54.66,2.7,2.7,0,0,0-.29.91l.65.12a.66.66,0,0,0,.39,0,.52.52,0,0,0,.22-.3,1.66,1.66,0,0,1,.15-.33,1.27,1.27,0,0,1,.25-.27,1.14,1.14,0,0,1,.33-.17,1.35,1.35,0,0,1,.41-.06,1.44,1.44,0,0,1,.43.06.9.9,0,0,1,.54.54,1.26,1.26,0,0,1,.08.46,1.91,1.91,0,0,1-.08.54,2.81,2.81,0,0,1-.22.51,4.75,4.75,0,0,1-.36.5c-.15.17-.31.35-.5.54l-2.19,2.2a.66.66,0,0,0-.17.24.86.86,0,0,0,0,.27v.41h5v-.74a.38.38,0,0,0-.12-.3.42.42,0,0,0-.32-.11Zm-4.54-6.28h-.53a.64.64,0,0,0-.39.11.61.61,0,0,0-.24.32l-2.92,7.47h.52a.82.82,0,0,0,.39-.11.74.74,0,0,0,.27-.35ZM104.07,176a.31.31,0,0,0-.32-.22H103v5.13h1.23v-3.71a2.38,2.38,0,0,1,.53-.4,1.26,1.26,0,0,1,.6-.14.82.82,0,0,1,.66.25,1.13,1.13,0,0,1,.21.73v3.27h1.24v-3.27a2.79,2.79,0,0,0-.11-.79,1.88,1.88,0,0,0-.33-.61,1.48,1.48,0,0,0-.55-.4,1.72,1.72,0,0,0-.74-.14,1.77,1.77,0,0,0-.48,0,1.65,1.65,0,0,0-.41.14,2.06,2.06,0,0,0-.37.23,4.28,4.28,0,0,0-.33.29Zm-2.23-2a.74.74,0,0,0-.17-.25.85.85,0,0,0-.25-.17.81.81,0,0,0-.31-.06.73.73,0,0,0-.3.06.81.81,0,0,0-.42.42.81.81,0,0,0-.06.31.73.73,0,0,0,.06.3.85.85,0,0,0,.17.25.72.72,0,0,0,.25.16.73.73,0,0,0,.3.07.89.89,0,0,0,.56-.23.85.85,0,0,0,.17-.25.6.6,0,0,0,.07-.3.67.67,0,0,0-.07-.31m-1.34,6.94h1.24v-5.13H100.5ZM96.89,180v-6.31h-1l-2.21,1.87.39.54a.36.36,0,0,0,.09.08l.14.05h.17a.4.4,0,0,0,.17-.09l1-.87c0,.18,0,.35,0,.52V180H94.19v.93h4V180Zm-5.8,0v-6.31h-1l-2.21,1.87.39.54a.36.36,0,0,0,.09.08l.14.05h.17a.4.4,0,0,0,.17-.09l1-.87c0,.18,0,.35,0,.52V180H88.39v.93h4V180Z"/><path class="cls-7" d="M229.76,180.92v-3.76a1.79,1.79,0,0,1,.43-.36,1,1,0,0,1,.51-.13.74.74,0,0,1,.6.23,1.12,1.12,0,0,1,.21.75v3.27h1.24v-3.27a1.09,1.09,0,0,1,.07-.42.86.86,0,0,1,.19-.31.91.91,0,0,1,.29-.19,1,1,0,0,1,.35-.06.79.79,0,0,1,.63.24,1.13,1.13,0,0,1,.22.74v3.27h1.23v-3.27a2.57,2.57,0,0,0-.12-.82,1.51,1.51,0,0,0-.34-.61,1.33,1.33,0,0,0-.55-.38,2,2,0,0,0-.76-.13,2.09,2.09,0,0,0-.49,0,1.74,1.74,0,0,0-.45.17,1.68,1.68,0,0,0-.4.3,1.55,1.55,0,0,0-.3.44,1.53,1.53,0,0,0-.47-.7,1.14,1.14,0,0,0-.79-.26,1.45,1.45,0,0,0-.43,0,1.78,1.78,0,0,0-.36.14,1.6,1.6,0,0,0-.31.22,2.37,2.37,0,0,0-.28.27l-.08-.38a.31.31,0,0,0-.32-.22h-.75v5.13Zm-2-4.5a2.4,2.4,0,0,0-.78-.53,2.64,2.64,0,0,0-1-.18,2.59,2.59,0,0,0-1.07.2,2.09,2.09,0,0,0-.78.55,2.35,2.35,0,0,0-.48.83,3.5,3.5,0,0,0-.16,1.05,3.25,3.25,0,0,0,.18,1.12,2.68,2.68,0,0,0,.5.84,2.25,2.25,0,0,0,1.63.69,3.27,3.27,0,0,0,.54,0,2.3,2.3,0,0,0,.53-.14,2,2,0,0,0,.5-.26,2.39,2.39,0,0,0,.45-.4l-.36-.45a.23.23,0,0,0-.22-.11.31.31,0,0,0-.21.07l-.22.16a1.27,1.27,0,0,1-.31.16,1.45,1.45,0,0,1-1,0,1.16,1.16,0,0,1-.4-.33,1.7,1.7,0,0,1-.26-.54,3.2,3.2,0,0,1-.08-.73,2.62,2.62,0,0,1,.08-.71,1.43,1.43,0,0,1,.24-.53,1,1,0,0,1,.41-.34,1.63,1.63,0,0,1,1-.06,1.42,1.42,0,0,1,.3.13l.22.13a.32.32,0,0,0,.18.06.21.21,0,0,0,.15,0l.11-.11Zm-8.59,3.35-.45,0a3.84,3.84,0,0,0-.46.11l1.63-1.66.55-.59a4.8,4.8,0,0,0,.46-.6,3,3,0,0,0,.32-.65,2.25,2.25,0,0,0,.12-.74,2.11,2.11,0,0,0-.17-.85,1.88,1.88,0,0,0-.46-.65,2.09,2.09,0,0,0-.71-.42,2.67,2.67,0,0,0-.91-.14,2.92,2.92,0,0,0-.9.13,2.27,2.27,0,0,0-.74.39,2.17,2.17,0,0,0-.54.66,2.7,2.7,0,0,0-.29.91l.65.12a.66.66,0,0,0,.39,0,.56.56,0,0,0,.22-.3,1,1,0,0,1,.15-.33,1.27,1.27,0,0,1,.25-.27,1,1,0,0,1,.33-.17,1.31,1.31,0,0,1,.41-.06,1.44,1.44,0,0,1,.43.06.9.9,0,0,1,.54.54,1.26,1.26,0,0,1,.08.46,1.91,1.91,0,0,1-.08.54,2.81,2.81,0,0,1-.22.51,3.76,3.76,0,0,1-.37.5c-.14.17-.31.35-.49.54l-2.19,2.2a.56.56,0,0,0-.17.24.65.65,0,0,0-.05.27v.41h5v-.74a.38.38,0,0,0-.12-.3.43.43,0,0,0-.32-.11Zm-4.94.76a.78.78,0,0,0,.16.24.6.6,0,0,0,.24.16.73.73,0,0,0,.3.06.72.72,0,0,0,.29-.06.6.6,0,0,0,.24-.16.81.81,0,0,0,.17-.24.72.72,0,0,0,.06-.29.73.73,0,0,0-.06-.3.81.81,0,0,0-.17-.24.6.6,0,0,0-.24-.16.72.72,0,0,0-.29-.06.73.73,0,0,0-.3.06.6.6,0,0,0-.24.16.78.78,0,0,0-.16.24.73.73,0,0,0-.06.3.72.72,0,0,0,.06.29m-5.24.39h1.13a.86.86,0,0,0,.39-.09.63.63,0,0,0,.25-.2l1.66-2.36c.12-.17.23-.35.33-.52a3.94,3.94,0,0,0,.26-.55,3.41,3.41,0,0,0,.16-.57,3.31,3.31,0,0,0,.06-.64,2.69,2.69,0,0,0-.17-1,2.06,2.06,0,0,0-.48-.76,2.21,2.21,0,0,0-.76-.49,2.57,2.57,0,0,0-1-.17,2.71,2.71,0,0,0-1,.18,2.29,2.29,0,0,0-.78.51,2.2,2.2,0,0,0-.5.74,2.31,2.31,0,0,0-.18.91,2.14,2.14,0,0,0,.17.91,1.89,1.89,0,0,0,.45.65,2,2,0,0,0,.64.39,2.1,2.1,0,0,0,.74.13,2.59,2.59,0,0,0,.63-.08,2.48,2.48,0,0,0,.55-.24l-.15.2-.16.2Zm.69-5.56a1,1,0,0,1,.24-.39,1.16,1.16,0,0,1,.39-.26,1.31,1.31,0,0,1,.5-.09,1.35,1.35,0,0,1,.5.08,1.14,1.14,0,0,1,.39.25,1,1,0,0,1,.26.39,1.44,1.44,0,0,1,.09.53,1.28,1.28,0,0,1-.09.48,1,1,0,0,1-.24.39,1.16,1.16,0,0,1-.39.26,1.53,1.53,0,0,1-.54.1,1.21,1.21,0,0,1-.89-.32,1.29,1.29,0,0,1-.31-.92,1.35,1.35,0,0,1,.09-.5m-4.49,4.41-.44,0a4,4,0,0,0-.47.11l1.63-1.66.56-.59a6,6,0,0,0,.46-.6,3,3,0,0,0,.31-.65,2.25,2.25,0,0,0,.12-.74,2.11,2.11,0,0,0-.16-.85,2,2,0,0,0-.46-.65,2.19,2.19,0,0,0-.71-.42,2.73,2.73,0,0,0-.92-.14,2.92,2.92,0,0,0-.9.13,2.5,2.5,0,0,0-.74.39,2.3,2.3,0,0,0-.53.66,2.5,2.5,0,0,0-.29.91l.65.12a.66.66,0,0,0,.39,0,.56.56,0,0,0,.22-.3,1,1,0,0,1,.15-.33,1,1,0,0,1,.24-.27,1.29,1.29,0,0,1,.33-.17,1.35,1.35,0,0,1,.41-.06,1.4,1.4,0,0,1,.43.06.93.93,0,0,1,.33.21.83.83,0,0,1,.22.33,1.27,1.27,0,0,1,.07.46,1.61,1.61,0,0,1-.08.54,2.25,2.25,0,0,1-.22.51,4.75,4.75,0,0,1-.36.5l-.49.54-2.2,2.2a.66.66,0,0,0-.17.24.86.86,0,0,0-.05.27v.41h5v-.74a.38.38,0,0,0-.12-.3.39.39,0,0,0-.31-.11Zm-4.54-6.28h-.53a.63.63,0,0,0-.38.11.68.68,0,0,0-.25.32l-2.92,7.47h.53a.79.79,0,0,0,.38-.11.68.68,0,0,0,.27-.35ZM191.24,176a.29.29,0,0,0-.31-.22h-.76v5.13h1.24v-3.71a2,2,0,0,1,.53-.4,1.21,1.21,0,0,1,.6-.14.8.8,0,0,1,.65.25,1.08,1.08,0,0,1,.22.73v3.27h1.23v-3.27a2.79,2.79,0,0,0-.11-.79,1.88,1.88,0,0,0-.33-.61,1.52,1.52,0,0,0-.54-.4,1.79,1.79,0,0,0-.75-.14,1.86,1.86,0,0,0-.48,0,2,2,0,0,0-.41.14,2.06,2.06,0,0,0-.37.23,2.89,2.89,0,0,0-.32.29ZM189,174a.76.76,0,0,0-.18-.25.74.74,0,0,0-.25-.17.78.78,0,0,0-.31-.06.77.77,0,0,0-.3.06.74.74,0,0,0-.25.17.92.92,0,0,0-.17.25.81.81,0,0,0-.06.31.73.73,0,0,0,.06.3,1.1,1.1,0,0,0,.17.25.72.72,0,0,0,.25.16.78.78,0,0,0,.3.07.78.78,0,0,0,.31-.07.72.72,0,0,0,.25-.16.88.88,0,0,0,.18-.25.73.73,0,0,0,.06-.3A.81.81,0,0,0,189,174m-1.35,6.94h1.24v-5.13h-1.24Zm-5.19-6.11h2a.76.76,0,0,0,.56-.17.58.58,0,0,0,.17-.43v-.52h-3.57l-.6,3.51.77.22a3.07,3.07,0,0,1,1.05-.19,1.38,1.38,0,0,1,1,.33,1.22,1.22,0,0,1,.35.92,1.87,1.87,0,0,1-.09.59,1.43,1.43,0,0,1-.26.47,1.22,1.22,0,0,1-.43.31,1.64,1.64,0,0,1-.6.11,1.73,1.73,0,0,1-.55-.08,3,3,0,0,1-.4-.17l-.29-.18a.52.52,0,0,0-.26-.08.37.37,0,0,0-.31.17l-.38.53a3.3,3.3,0,0,0,.4.32,4,4,0,0,0,.5.27,3.47,3.47,0,0,0,.57.19,3.41,3.41,0,0,0,.65.07,3.12,3.12,0,0,0,1.07-.19,2.53,2.53,0,0,0,.85-.52,2.4,2.4,0,0,0,.56-.81,2.59,2.59,0,0,0,.21-1,2.49,2.49,0,0,0-.15-.87,1.92,1.92,0,0,0-.45-.7,2,2,0,0,0-.73-.47,2.59,2.59,0,0,0-1-.17,3.17,3.17,0,0,0-.43,0,4.3,4.3,0,0,0-.46.07Zm-4.18,5.72a1,1,0,0,0,.16.24.78.78,0,0,0,.24.16.8.8,0,0,0,.3.06.73.73,0,0,0,.3-.06.74.74,0,0,0,.4-.4.72.72,0,0,0,.06-.29.73.73,0,0,0-.06-.3.74.74,0,0,0-.4-.4.73.73,0,0,0-.3-.06.8.8,0,0,0-.3.06.78.78,0,0,0-.24.16,1,1,0,0,0-.16.24.94.94,0,0,0-.05.3.93.93,0,0,0,.05.29m-2.41-.54v-6.31h-1l-2.21,1.87.39.54a.36.36,0,0,0,.09.08l.14.05h.16a.38.38,0,0,0,.18-.09l1-.87c0,.18,0,.35,0,.52V180h-1.47v.93h4V180Zm-5.8,0v-6.31h-1l-2.21,1.87.39.54a.36.36,0,0,0,.09.08l.14.05h.16a.38.38,0,0,0,.18-.09l1-.87c0,.18,0,.35,0,.52V180h-1.47v.93h4V180Z"/><path class="cls-7" d="M47.59,84.87V81.11a1.83,1.83,0,0,1,.44-.36,1,1,0,0,1,.5-.13.81.81,0,0,1,.61.23,1.18,1.18,0,0,1,.2.75v3.27h1.24V81.6a1.32,1.32,0,0,1,.07-.42.83.83,0,0,1,.2-.31.92.92,0,0,1,.28-.19,1,1,0,0,1,.35-.06.77.77,0,0,1,.63.25,1,1,0,0,1,.22.73v3.27h1.23V81.6a2.91,2.91,0,0,0-.11-.82,1.74,1.74,0,0,0-.35-.61,1.43,1.43,0,0,0-.55-.38,2,2,0,0,0-.76-.13,2.61,2.61,0,0,0-.48,0,2.09,2.09,0,0,0-.46.17,1.68,1.68,0,0,0-.4.3,1.55,1.55,0,0,0-.3.44,1.65,1.65,0,0,0-.46-.7,1.24,1.24,0,0,0-.8-.26,1.73,1.73,0,0,0-.42,0,1.92,1.92,0,0,0-.36.14,1.81,1.81,0,0,0-.32.22,2.37,2.37,0,0,0-.28.27L47.43,80a.31.31,0,0,0-.32-.22h-.75v5.13ZM43.9,79.74v3.71a1.77,1.77,0,0,1-.53.39,1.21,1.21,0,0,1-.6.14.81.81,0,0,1-.65-.25A1.15,1.15,0,0,1,41.9,83V79.74H40.67V83a2.79,2.79,0,0,0,.11.79,2,2,0,0,0,.33.61,1.5,1.5,0,0,0,.55.41,1.88,1.88,0,0,0,.74.14,1.92,1.92,0,0,0,.89-.2,2.5,2.5,0,0,0,.7-.52l.08.41a.3.3,0,0,0,.31.23h.76V79.74Zm-4.34-1.81a.85.85,0,0,0-.17-.25.72.72,0,0,0-.25-.16.67.67,0,0,0-.31-.07.6.6,0,0,0-.3.07.72.72,0,0,0-.25.16.85.85,0,0,0-.17.25.81.81,0,0,0-.06.31.73.73,0,0,0,.06.3.74.74,0,0,0,.17.25.92.92,0,0,0,.25.17.73.73,0,0,0,.3.06.81.81,0,0,0,.31-.06.92.92,0,0,0,.25-.17.74.74,0,0,0,.17-.25.6.6,0,0,0,.07-.3.67.67,0,0,0-.07-.31m-1.34,6.94h1.24V79.74H38.22Zm-2.5-7.43v2.7a2,2,0,0,0-.54-.36,1.81,1.81,0,0,0-.74-.14,2,2,0,0,0-1.6.77,2.75,2.75,0,0,0-.45.85,3.62,3.62,0,0,0-.15,1.06,3.86,3.86,0,0,0,.14,1.12,2.32,2.32,0,0,0,.39.82,1.72,1.72,0,0,0,.6.51,1.64,1.64,0,0,0,.77.17,1.89,1.89,0,0,0,.94-.22,2.55,2.55,0,0,0,.71-.57l.1.49a.3.3,0,0,0,.31.23H37V77.44Zm0,5.91a1.76,1.76,0,0,1-.51.45,1.21,1.21,0,0,1-.65.16,1.23,1.23,0,0,1-.44-.08.83.83,0,0,1-.33-.29,1.33,1.33,0,0,1-.2-.51,3.28,3.28,0,0,1-.08-.76,2.86,2.86,0,0,1,.09-.77,1.69,1.69,0,0,1,.24-.54,1,1,0,0,1,.39-.32,1.18,1.18,0,0,1,.5-.11,1.41,1.41,0,0,1,.54.11,1.23,1.23,0,0,1,.45.36Zm-4.43-.89a.24.24,0,0,0,.23-.1.79.79,0,0,0,.06-.38,2.68,2.68,0,0,0-.17-1,1.94,1.94,0,0,0-.46-.73,2,2,0,0,0-.71-.46,2.56,2.56,0,0,0-.89-.15,2.59,2.59,0,0,0-1,.2,2.18,2.18,0,0,0-.78.54,2.54,2.54,0,0,0-.49.81,2.84,2.84,0,0,0-.17,1,3.33,3.33,0,0,0,.2,1.19,2.55,2.55,0,0,0,.53.86,2.38,2.38,0,0,0,.8.53,3,3,0,0,0,1,.17,3.69,3.69,0,0,0,.56,0,2.68,2.68,0,0,0,.56-.13,3.26,3.26,0,0,0,.53-.26,2,2,0,0,0,.46-.41l-.35-.45a.27.27,0,0,0-.23-.11.44.44,0,0,0-.24.07l-.28.15a2.72,2.72,0,0,1-.38.16,1.83,1.83,0,0,1-1.07,0,1.39,1.39,0,0,1-.43-.28,1.62,1.62,0,0,1-.29-.48,2.55,2.55,0,0,1-.14-.68Zm-3.15-.75a1.53,1.53,0,0,1,.39-.86,1.17,1.17,0,0,1,.84-.31,1.07,1.07,0,0,1,.49.1.94.94,0,0,1,.34.25,1,1,0,0,1,.2.37,1.33,1.33,0,0,1,.07.45Zm-3.25-4.07h-.16l-.11,0a.21.21,0,0,0-.1.06.62.62,0,0,0-.09.12l-2.13,4c-.06.11-.11.22-.16.33l-.15.36a3.65,3.65,0,0,0-.14-.35c-.05-.11-.1-.22-.16-.33l-2.16-4-.08-.12a.21.21,0,0,0-.1-.06l-.12,0H18.06v7.23h1.19V80.2c0-.09,0-.19,0-.3l0-.32,2.21,4.12a.51.51,0,0,0,.48.29h.19a.49.49,0,0,0,.47-.29l2.19-4.11c0,.22,0,.42,0,.61v4.67H25.9V77.64Z"/><path class="cls-7" d="M47.41,106.45a.25.25,0,0,0,.23-.1.82.82,0,0,0,.06-.38,2.78,2.78,0,0,0-.16-1,2.19,2.19,0,0,0-.47-.73,1.84,1.84,0,0,0-.7-.45,2.62,2.62,0,0,0-.9-.15,2.46,2.46,0,0,0-1,.2,2.23,2.23,0,0,0-.77.54,2.19,2.19,0,0,0-.49.8,2.71,2.71,0,0,0-.17,1,3.34,3.34,0,0,0,.19,1.19,2.43,2.43,0,0,0,.54.86,2.17,2.17,0,0,0,.8.52,2.68,2.68,0,0,0,1,.18,3.6,3.6,0,0,0,.56,0,3,3,0,0,0,.57-.14,2.37,2.37,0,0,0,.53-.26,2.17,2.17,0,0,0,.46-.4l-.36-.45a.24.24,0,0,0-.23-.11.43.43,0,0,0-.23.07l-.29.15a2.29,2.29,0,0,1-.38.16,1.92,1.92,0,0,1-.52.07,1.53,1.53,0,0,1-.54-.1,1,1,0,0,1-.43-.28,1.29,1.29,0,0,1-.29-.47,2.21,2.21,0,0,1-.14-.68Zm-3.15-.75a1.48,1.48,0,0,1,.4-.86,1.1,1.1,0,0,1,.84-.31,1.21,1.21,0,0,1,.48.09.88.88,0,0,1,.34.26,1.12,1.12,0,0,1,.21.37,1.63,1.63,0,0,1,.06.45Zm-3.14-1.8a2.08,2.08,0,0,0-.53-.2,3,3,0,0,0-.62-.06,2.65,2.65,0,0,0-.81.11,2,2,0,0,0-.64.33,1.46,1.46,0,0,0-.43.53,1.52,1.52,0,0,0-.15.69,1.5,1.5,0,0,0,.22.82,1.65,1.65,0,0,0,.61.56,1.21,1.21,0,0,0-.29.19,1.12,1.12,0,0,0-.21.23.9.9,0,0,0-.12.24.69.69,0,0,0,0,.24.81.81,0,0,0,.12.46.91.91,0,0,0,.33.28,1.44,1.44,0,0,0-.6.38.91.91,0,0,0-.22.61,1.09,1.09,0,0,0,.14.51,1.46,1.46,0,0,0,.43.43,2.76,2.76,0,0,0,.71.3,4.34,4.34,0,0,0,1,.11,3.43,3.43,0,0,0,1.06-.15,2.86,2.86,0,0,0,.78-.4,1.83,1.83,0,0,0,.48-.57,1.47,1.47,0,0,0,.17-.66,1.16,1.16,0,0,0-.14-.6,1.12,1.12,0,0,0-.38-.37,1.83,1.83,0,0,0-.54-.2,4.07,4.07,0,0,0-.61-.08l-.62,0a4.11,4.11,0,0,1-.53,0,1.15,1.15,0,0,1-.38-.11.24.24,0,0,1-.14-.22q0-.18.24-.33l.27,0,.29,0a2.58,2.58,0,0,0,.8-.12,2.1,2.1,0,0,0,.63-.33,1.7,1.7,0,0,0,.43-.53,1.51,1.51,0,0,0,.15-.68,1.54,1.54,0,0,0-.11-.58l.46-.09q.27,0,.27-.27v-.46Zm.17,5.46a.61.61,0,0,1-.23.22,1.69,1.69,0,0,1-.42.15,3.25,3.25,0,0,1-.59,0,3.13,3.13,0,0,1-.58,0,1.21,1.21,0,0,1-.38-.13.51.51,0,0,1-.21-.2.45.45,0,0,1-.07-.25.52.52,0,0,1,.13-.36.89.89,0,0,1,.33-.27l.48,0,.48,0,.44,0a1.64,1.64,0,0,1,.36.07.66.66,0,0,1,.25.15.35.35,0,0,1,.09.25.5.5,0,0,1-.08.27m-1.71-3.26a.82.82,0,0,1-.29-.17,1,1,0,0,1-.17-.27.88.88,0,0,1-.06-.33.82.82,0,0,1,.23-.61.93.93,0,0,1,.68-.22,1,1,0,0,1,.69.22.82.82,0,0,1,.22.61,1.27,1.27,0,0,1-.05.34.78.78,0,0,1-.17.26.82.82,0,0,1-.29.17,1.15,1.15,0,0,1-.4.07,1.13,1.13,0,0,1-.39-.07M35.51,104a.39.39,0,0,0-.1-.25.43.43,0,0,0-.26-.06h-.73v5.13h1.24V105.7a2.55,2.55,0,0,1,.18-.37,1,1,0,0,1,.23-.27.81.81,0,0,1,.28-.17,1.06,1.06,0,0,1,.37-.06,1.46,1.46,0,0,1,.29,0l.22,0a.28.28,0,0,0,.13,0,.32.32,0,0,0,.07-.13l.08-.92a.94.94,0,0,0-.57-.16,1.24,1.24,0,0,0-.78.26,2.26,2.26,0,0,0-.57.73Zm-6.06.8a.5.5,0,0,0,.14.15.34.34,0,0,0,.22.07.55.55,0,0,0,.28-.07l.27-.16a1.42,1.42,0,0,1,.35-.15,1.37,1.37,0,0,1,.49-.07.83.83,0,0,1,.64.24,1.12,1.12,0,0,1,.22.77v.3a7.73,7.73,0,0,0-1,.08,4.72,4.72,0,0,0-.8.19,2.86,2.86,0,0,0-.58.27,1.77,1.77,0,0,0-.38.33,1.07,1.07,0,0,0-.21.37,1.34,1.34,0,0,0-.07.39,1.57,1.57,0,0,0,.11.6,1.4,1.4,0,0,0,.31.44,1.48,1.48,0,0,0,.48.26,1.89,1.89,0,0,0,.6.09,2.57,2.57,0,0,0,.5,0,2.16,2.16,0,0,0,.43-.14,2.08,2.08,0,0,0,.38-.22,3.45,3.45,0,0,0,.38-.31l.11.37a.36.36,0,0,0,.15.21.54.54,0,0,0,.27.06h.56v-3.24a2.53,2.53,0,0,0-.12-.8,1.66,1.66,0,0,0-.38-.63,1.6,1.6,0,0,0-.6-.41,2,2,0,0,0-.8-.15,3,3,0,0,0-2.13.81Zm2.61,2.69a2,2,0,0,1-.54.42,1.53,1.53,0,0,1-.66.14.82.82,0,0,1-.5-.14.55.55,0,0,1-.2-.47.47.47,0,0,1,.1-.3.73.73,0,0,1,.31-.25,2.21,2.21,0,0,1,.59-.17,5.23,5.23,0,0,1,.9-.09Zm-6.37.22v-6.12H24.35v7.23h4.23v-1.11Z"/><path class="cls-7" d="M38.79,131.8v-6.12H37.44v7.23h4.24V131.8Zm-4.57-2.67,2.33-3.45H35.26a.25.25,0,0,0-.16,0,.33.33,0,0,0-.12.14l-1.51,2.38a1.42,1.42,0,0,0-.12.25l-1.65-2.65a.28.28,0,0,0-.12-.12.35.35,0,0,0-.2,0H30l2.31,3.51L30,132.91H31.2a.32.32,0,0,0,.2-.07.7.7,0,0,0,.14-.16l1.61-2.56a1.65,1.65,0,0,0,.09-.22l1.68,2.78a.48.48,0,0,0,.13.16.31.31,0,0,0,.22.07h1.34Z"/><path class="cls-7" d="M41.69,155.73v-6.12H40.35v7.23h4.23v-1.11Zm-4.56-2.66,2.32-3.46H38.17a.31.31,0,0,0-.17,0,.58.58,0,0,0-.12.14l-1.5,2.37-.13.25-1.64-2.65a.68.68,0,0,0-.12-.12.46.46,0,0,0-.2,0H33l2.3,3.51-2.4,3.72h1.26a.27.27,0,0,0,.2-.07,1.07,1.07,0,0,0,.14-.16l1.61-2.56a2.2,2.2,0,0,0,.09-.21l1.67,2.77a.54.54,0,0,0,.14.16.31.31,0,0,0,.22.07h1.34Zm-7,2.62a3.42,3.42,0,0,0-.44,0,4,4,0,0,0-.47.11l1.63-1.67c.19-.2.38-.39.55-.59a3.75,3.75,0,0,0,.47-.6,3,3,0,0,0,.31-.65,2.17,2.17,0,0,0,.12-.74,2.07,2.07,0,0,0-.17-.84,1.88,1.88,0,0,0-.46-.65,2,2,0,0,0-.71-.42,2.63,2.63,0,0,0-.91-.15,2.93,2.93,0,0,0-.9.14,2.19,2.19,0,0,0-.74.39,2.36,2.36,0,0,0-.54.66,2.49,2.49,0,0,0-.28.91l.64.11a.6.6,0,0,0,.39,0,.51.51,0,0,0,.22-.31,1.66,1.66,0,0,1,.15-.33,1.23,1.23,0,0,1,.25-.26,1.29,1.29,0,0,1,.33-.17,1.1,1.1,0,0,1,.41-.07,1.43,1.43,0,0,1,.43.07.91.91,0,0,1,.33.2.89.89,0,0,1,.21.34,1.06,1.06,0,0,1,.08.45,2,2,0,0,1-.08.55,2,2,0,0,1-.22.5,4,4,0,0,1-.36.51c-.15.17-.31.35-.5.53l-2.19,2.2a.79.79,0,0,0-.17.25.85.85,0,0,0,0,.26v.41h5v-.74a.37.37,0,0,0-.12-.29.42.42,0,0,0-.32-.12Z"/><path class="cls-7" d="M41.69,179.81v-6.12H40.35v7.23h4.23v-1.11Zm-4.56-2.67,2.32-3.45H38.17a.31.31,0,0,0-.17,0,.58.58,0,0,0-.12.14l-1.5,2.38a2,2,0,0,0-.13.25l-1.64-2.65a.51.51,0,0,0-.12-.13.49.49,0,0,0-.2,0H33l2.3,3.51-2.4,3.72h1.26a.28.28,0,0,0,.2-.08l.14-.15,1.6-2.56a1.12,1.12,0,0,0,.1-.22l1.67,2.78a.7.7,0,0,0,.14.16.36.36,0,0,0,.22.07h1.34Zm-8.9-1.32a.66.66,0,0,0,.39,0,.56.56,0,0,0,.22-.3,1,1,0,0,1,.15-.33,1.27,1.27,0,0,1,.25-.27,1.19,1.19,0,0,1,.73-.23,1,1,0,0,1,.76.26,1,1,0,0,1,.29.78,1.27,1.27,0,0,1-.07.44.81.81,0,0,1-.25.34,1.34,1.34,0,0,1-.48.22,3.66,3.66,0,0,1-.75.09v.88a3.51,3.51,0,0,1,.88.08,1.3,1.3,0,0,1,.5.24.7.7,0,0,1,.23.36,1.74,1.74,0,0,1,.05.47,1.18,1.18,0,0,1-.07.41,1.07,1.07,0,0,1-.24.37,1.11,1.11,0,0,1-.39.26,1.35,1.35,0,0,1-.55.11,1.14,1.14,0,0,1-.48-.09,1.07,1.07,0,0,1-.36-.21,1.42,1.42,0,0,1-.25-.3c-.07-.12-.14-.23-.2-.35a.4.4,0,0,0-.27-.2.67.67,0,0,0-.41.05l-.54.22a4.13,4.13,0,0,0,.36.82,2.14,2.14,0,0,0,.51.6,2,2,0,0,0,.7.37,3.36,3.36,0,0,0,.95.13,3,3,0,0,0,.95-.15,2.42,2.42,0,0,0,.79-.43,2,2,0,0,0,.54-.69,2.26,2.26,0,0,0,.2-1,1.7,1.7,0,0,0-.32-1.05,1.92,1.92,0,0,0-1-.63,2.12,2.12,0,0,0,.48-.22,1.15,1.15,0,0,0,.36-.33,1.42,1.42,0,0,0,.23-.46,2.27,2.27,0,0,0,.07-.61,1.77,1.77,0,0,0-.15-.73,1.73,1.73,0,0,0-.44-.6,1.89,1.89,0,0,0-.68-.39,2.6,2.6,0,0,0-.91-.14,2.86,2.86,0,0,0-.89.13,2.27,2.27,0,0,0-.74.39,2.17,2.17,0,0,0-.54.66,2.7,2.7,0,0,0-.29.91Z"/><path class="cls-6" d="M125.88,7.89h-.14l-.11,0-.09.06a.44.44,0,0,0-.08.11l-1.7,3.24a2.92,2.92,0,0,0-.14.31c-.05.1-.09.21-.14.33a3.05,3.05,0,0,0-.13-.32,1.77,1.77,0,0,0-.15-.31l-1.7-3.25a1,1,0,0,0-.08-.11l-.09-.06-.11,0h-1.1V14h1.11V10.24a2.35,2.35,0,0,0,0-.26c0-.09,0-.18,0-.28L123,13a.51.51,0,0,0,.18.2.5.5,0,0,0,.27.07h.17A.46.46,0,0,0,124,13l1.75-3.31a2.66,2.66,0,0,0,0,.28v4h1.11V7.89Zm-8.1,3.9a1.71,1.71,0,0,1-.36.65,1.59,1.59,0,0,1-.58.4,2.16,2.16,0,0,1-1.53,0,1.59,1.59,0,0,1-.58-.4,1.71,1.71,0,0,1-.36-.65,2.55,2.55,0,0,1-.13-.86,2.59,2.59,0,0,1,.13-.86,1.79,1.79,0,0,1,.36-.65,1.59,1.59,0,0,1,.58-.4,2.16,2.16,0,0,1,1.53,0,1.59,1.59,0,0,1,.58.4,1.79,1.79,0,0,1,.36.65,2.88,2.88,0,0,1,.13.86,2.83,2.83,0,0,1-.13.86M119,9.7a3,3,0,0,0-.63-1,2.8,2.8,0,0,0-1-.65,3.51,3.51,0,0,0-2.55,0,2.8,2.8,0,0,0-1,.65,3,3,0,0,0-.64,1,3.37,3.37,0,0,0-.22,1.24,3.33,3.33,0,0,0,.22,1.24,3,3,0,0,0,.64,1,3.1,3.1,0,0,0,1,.65,3.51,3.51,0,0,0,2.55,0,3.1,3.1,0,0,0,1-.65,3,3,0,0,0,.63-1,3.43,3.43,0,0,0,0-2.47m-7.58,2.09a1.45,1.45,0,0,0-.19-.23,1.88,1.88,0,0,0-.23-.16,1.9,1.9,0,0,0,.55-.28,1.65,1.65,0,0,0,.4-.39,1.74,1.74,0,0,0,.25-.49,1.9,1.9,0,0,0,.09-.58,1.8,1.8,0,0,0-.14-.71,1.36,1.36,0,0,0-.42-.56A2.05,2.05,0,0,0,111,8a4,4,0,0,0-1.1-.13H108V14h1.26V11.66h.43a.44.44,0,0,1,.25.05.41.41,0,0,1,.16.16l1.16,1.87a.49.49,0,0,0,.46.24h1.14Zm-2.18-1V8.84h.65a1.34,1.34,0,0,1,.88.24.84.84,0,0,1,.29.67,1.35,1.35,0,0,1-.07.41,1,1,0,0,1-.21.32,1,1,0,0,1-.37.21,1.38,1.38,0,0,1-.53.08Zm-2.14-1.9v-1h-3.88V14h1.27V11.55h2.19v-1h-2.19V8.87Z"/><path class="cls-6" d="M205.44,11.79a1.87,1.87,0,0,1-.37.65,1.55,1.55,0,0,1-.57.4,1.89,1.89,0,0,1-.77.14,1.92,1.92,0,0,1-.77-.14,1.64,1.64,0,0,1-.57-.4,1.87,1.87,0,0,1-.37-.65,2.84,2.84,0,0,1-.12-.86,2.88,2.88,0,0,1,.12-.86,2,2,0,0,1,.37-.65A1.64,1.64,0,0,1,203,9a1.92,1.92,0,0,1,.77-.14,1.89,1.89,0,0,1,.77.14,1.55,1.55,0,0,1,.57.4,2,2,0,0,1,.37.65,2.88,2.88,0,0,1,.12.86,2.84,2.84,0,0,1-.12.86m1.19-2.09a2.86,2.86,0,0,0-.64-1,2.76,2.76,0,0,0-1-.65,3.51,3.51,0,0,0-2.55,0,2.71,2.71,0,0,0-1,.65,2.82,2.82,0,0,0-.64,1,3.37,3.37,0,0,0-.22,1.24,3.33,3.33,0,0,0,.22,1.24,2.86,2.86,0,0,0,.64,1,3,3,0,0,0,1,.65,3.51,3.51,0,0,0,2.55,0,3.05,3.05,0,0,0,1-.65,2.86,2.86,0,0,0,.64-1,3.58,3.58,0,0,0,0-2.47m-6.25-1.81h-4.82v1h1.78V14h1.26V8.9h1.78Z"/></g></svg>