<svg width="662" height="22" viewBox="0 0 662 22" fill="none" xmlns="http://www.w3.org/2000/svg">
<path d="M1 20L17.5 8C27.3368 0.845957 40.6632 0.845957 50.5 8V8C60.3368 15.154 73.6632 15.154 83.5 8V8C93.3368 0.845957 106.663 0.845957 116.5 8V8C126.337 15.154 139.663 15.154 149.5 8V8C159.337 0.845957 172.663 0.845957 182.5 8V8C192.337 15.154 205.663 15.154 215.5 8V8C225.337 0.845957 238.785 0.934426 248.622 8.08847V8.08847C258.368 15.1765 271.641 15.4461 281.58 8.63085L284.068 6.92496C293.562 0.41482 306.173 0.778958 315.275 7.82605V7.82605C324.592 15.0393 337.553 15.2338 347.083 8.30335L347.759 7.81164C357.441 0.769891 370.687 0.863327 380.369 7.90507V7.90507C390.206 15.0591 403.663 15.154 413.5 8V8C423.337 0.845957 436.663 0.845957 446.5 8V8C456.337 15.154 469.663 15.154 479.5 8V8C489.337 0.845957 502.663 0.845957 512.5 8V8C522.337 15.154 535.663 15.154 545.5 8V8C555.337 0.845957 568.663 0.845957 578.5 8V8C588.337 15.154 601.663 15.154 611.5 8V8C621.337 0.845957 634.663 0.845957 644.5 8L661 20" stroke="white" stroke-width="3"/>
</svg>
